<svg xmlns="http://www.w3.org/2000/svg" width="24.761" height="16.286" viewBox="0 0 24.761 16.286">
  <path id="Icon_awesome-exchange-alt" data-name="Icon awesome-exchange-alt" d="M0,7.936V7.365c0-.473.52-.857,1.161-.857h17.41V4.794c0-.763,1.253-1.144,1.981-.606l3.869,2.857a.71.71,0,0,1,0,1.212l-3.869,2.857c-.726.536-1.981.16-1.981-.606V8.793H1.161C.52,8.793,0,8.41,0,7.936Zm23.6,7.428H6.19V13.65c0-.761-1.251-1.146-1.981-.606L.34,15.9a.71.71,0,0,0,0,1.212L4.209,19.97c.727.537,1.981.16,1.981-.606V17.65H23.6c.641,0,1.161-.384,1.161-.857v-.571C24.761,15.748,24.241,15.364,23.6,15.364Z" transform="translate(0 -3.936)"/>
</svg>
