<svg xmlns="http://www.w3.org/2000/svg" width="42.984" height="40.468" viewBox="0 0 42.984 40.468">
  <g id="cart_2_" data-name="cart (2)" transform="translate(-27.589 -33.165)">
    <path id="Path_61192" data-name="Path 61192" d="M69.227,40.836H37.768L36.46,34.028a1.064,1.064,0,0,0-1.045-.864H28.653a1.064,1.064,0,1,0,0,2.129h5.882l1.23,6.4a1.048,1.048,0,0,0,.035.124s0,.007,0,.011l2.918,18.665a1.333,1.333,0,0,0,.042.172L35.777,63.65a3.023,3.023,0,0,0,2.138,5.161H66.026a1.064,1.064,0,0,0,0-2.129H37.914a.894.894,0,0,1-.633-1.526l3.4-3.4a1.054,1.054,0,0,0,.1-.117H66.447a1.345,1.345,0,0,0,1.33-1.141l2.78-18.108A1.345,1.345,0,0,0,69.227,40.836ZM61.907,42.6h2.81l-.351,3.108H61.641Zm-.367,4.306h2.688l-.319,2.853H61.295ZM57.883,42.6h2.8l-.229,3.108H57.74Zm-9.271,0,.138,3.108h-2.72L45.8,42.6ZM45.2,49.762H42.587l-.325-2.853H44.95ZM39.921,56.8l-.373-2.438h2.48l.309,2.438ZM44.583,42.6l.266,3.108H42.13L41.778,42.6ZM41.922,53.492H39.415l-.4-2.629h2.576ZM37.749,42.6h2.81l.389,3.108H38.223Zm.66,4.306H41.1l.357,2.853H38.846Zm1.98,12.96L40.043,57.6h2.395l.282,2.267Zm2.32-9.005h2.581l.224,2.629H43.008Zm.4,3.5h2.48L45.8,56.8H43.386Zm.623,5.508L43.476,57.6h2.39l.2,2.267Zm2.39-12.96h2.688l.128,2.853H46.329Zm.287,3.954H48.99l.117,2.629h-2.5Zm.261,3.5h2.48l.112,2.438H46.845Zm.4,5.508L46.9,57.6H49.3l.1,2.267ZM49.831,42.6h2.8l.021,3.108H49.932Zm.144,4.306h2.688l.016,2.853H50.07Zm.133,3.954h2.581l.016,2.629H50.2Zm.117,3.5H52.71l.011,2.438H50.31Zm.186,5.508L50.336,57.6h2.39l.016,2.267Zm5.668,0H53.753l.011-2.267h2.395Zm.106-3.071H53.769l.016-2.438h2.48Zm.112-3.305H53.79l.016-2.629h2.576Zm.122-3.731H53.812l.016-2.853h2.688Zm.138-4.05h-2.72l.016-3.108h2.81Zm2.863,14.157H57.09L57.2,57.6h2.39Zm.224-3.071H57.234l.112-2.438h2.48Zm.245-3.305H57.383l.122-2.629h2.576Zm.271-3.731H57.553l.133-2.853h2.688Zm2.6,10.107H60.433l.192-2.267h2.395ZM63.11,56.8H60.693l.213-2.438h2.48Zm-2.134-3.305.229-2.629H63.78l-.3,2.629ZM66.1,59.868H63.775l.282-2.267h2.39Zm.468-3.071H64.158l.3-2.438h2.48Zm.506-3.305h-2.5l.325-2.629h2.581Zm.575-3.731H65.036l.362-2.853h2.688Zm.617-4.05h-2.72l.389-3.108h2.8Z" fill="#2d3a57"/>
    <circle id="Ellipse_2620" data-name="Ellipse 2620" cx="4.109" cy="4.109" r="4.109" transform="translate(40.428 70.488) rotate(-67.5)" fill="#2d3a57"/>
    <circle id="Ellipse_2621" data-name="Ellipse 2621" cx="2.236" cy="2.236" r="2.236" transform="translate(42.875 69.474) rotate(-67.5)" fill="#2d3a57"/>
    <g id="Group_11351" data-name="Group 11351" transform="translate(53.845 62.896)">
      <circle id="Ellipse_2622" data-name="Ellipse 2622" cx="4.109" cy="4.109" r="4.109" transform="translate(0 7.592) rotate(-67.5)" fill="#2d3a57"/>
      <circle id="Ellipse_2623" data-name="Ellipse 2623" cx="2.236" cy="2.236" r="2.236" transform="translate(2.447 6.578) rotate(-67.5)" fill="#2d3a57"/>
    </g>
  </g>
</svg>
