<svg xmlns="http://www.w3.org/2000/svg" xmlns:xlink="http://www.w3.org/1999/xlink" width="166" height="166" viewBox="0 0 166 166">
  <defs>
    <filter id="Path_13119" x="0" y="0" width="166" height="166" filterUnits="userSpaceOnUse">
      <feOffset dy="6" input="SourceAlpha"/>
      <feGaussianBlur stdDeviation="15" result="blur"/>
      <feFlood flood-color="#18274b" flood-opacity="0.133"/>
      <feComposite operator="in" in2="blur"/>
      <feComposite in="SourceGraphic"/>
    </filter>
    <filter id="chat_4_" x="56.383" y="56.12" width="52.236" height="46.769" filterUnits="userSpaceOnUse">
      <feOffset dy="3" input="SourceAlpha"/>
      <feGaussianBlur stdDeviation="3" result="blur-2"/>
      <feFlood flood-opacity="0.161"/>
      <feComposite operator="in" in2="blur-2"/>
      <feComposite in="SourceGraphic"/>
    </filter>
  </defs>
  <g id="Group_4384" data-name="Group 4384" transform="translate(-1757 -906)">
    <g transform="matrix(1, 0, 0, 1, 1757, 906)" filter="url(#Path_13119)">
      <path id="Path_13119-2" data-name="Path 13119" d="M38,0A38,38,0,1,1,0,38,38,38,0,0,1,38,0Z" transform="translate(45 39)" fill="#fff"/>
    </g>
    <g transform="matrix(1, 0, 0, 1, 1757, 906)" filter="url(#chat_4_)">
      <path id="chat_4_2" data-name="chat (4)" d="M20.618,5.5C11.183,5.5,3.5,11.95,3.5,19.878a12.981,12.981,0,0,0,3.547,8.778,25.457,25.457,0,0,1-3.341,4.437.644.644,0,0,0-.151.739.685.685,0,0,0,.63.424,15.857,15.857,0,0,0,8.052-1.835,19.582,19.582,0,0,0,8.38,1.835c9.435,0,17.117-6.45,17.117-14.378S30.052,5.5,20.618,5.5ZM15.14,21.247a1.369,1.369,0,1,1,1.369-1.369A1.369,1.369,0,0,1,15.14,21.247Zm5.477,0a1.369,1.369,0,1,1,1.369-1.369A1.369,1.369,0,0,1,20.618,21.247Zm5.477,0a1.369,1.369,0,1,1,1.369-1.369A1.369,1.369,0,0,1,26.095,21.247Z" transform="translate(61.88 56.62)" fill="#14274e"/>
    </g>
  </g>
</svg>
