<svg xmlns="http://www.w3.org/2000/svg" xmlns:xlink="http://www.w3.org/1999/xlink" width="752.103" height="870.949" viewBox="0 0 752.103 870.949"><defs><clipPath id="a"><rect width="10.527" height="10.541" fill="#0d1c3e"/></clipPath></defs><g transform="translate(-30.219 -2501.273)"><g transform="translate(-116.556 3075.727) rotate(-65)"><path d="M13.126,188.311s-38.051,98.268,15.423,197.218,163.616,151.223,251.77,195.921,179.694,22.929,223.191-50.28S487.349,405.7,487.268,301.306s15.627-132.034-40.945-220.229S251.07-26.649,146.2,38.767,13.126,188.311,13.126,188.311Z" transform="matrix(0.819, 0.574, -0.574, 0.819, 347.3, 0)" fill="#abc7ff" opacity="0.7"/><path d="M132.348,514.067c32.21,34.012,111.288,21.551,145.545,0C389.127,444.119,584,327.672,592.828,158.979c3.753-71.695-59.479-109.35-85.889-120.392C443.529,12.055,373.923,4.1,305.2,1.027,233.454-2.18,156.437.317,91.867,35.325c-24.485,13.253-47.578,30.3-63.383,53.5C12.434,112.411,3.194,140.5.737,168.846c-3.944,45.722,8.353,91.566,26.955,133.521s43.4,80.8,66.167,120.651C108.723,448.991,105.27,485.419,132.348,514.067Z" transform="translate(0 166.41)" fill="#abc7ff"/><path d="M132.348,514.067c32.21,34.012,111.288,21.551,145.545,0C389.127,444.119,584,327.672,592.828,158.979c3.753-71.695-59.479-109.35-85.889-120.392C443.529,12.055,373.923,4.1,305.2,1.027,233.454-2.18,156.437.317,91.867,35.325c-24.485,13.253-47.578,30.3-63.383,53.5C12.434,112.411,3.194,140.5.737,168.846c-3.944,45.722,8.353,91.566,26.955,133.521s43.4,80.8,66.167,120.651C108.723,448.991,105.27,485.419,132.348,514.067Z" transform="translate(0 166.41)" fill="#abc7ff" opacity="0.7"/></g><g transform="translate(148.844 2645.477)"><g transform="translate(4.079 1.435)"><path d="M90.5,307.182l-15.7.335-7.966.132c-2.655.06-5.335,0-8,.072H58.29v-.538L58.23,293.8v-.6h.6l15.836.072c5.275,0,10.55.144,15.836.2h.323v.323c0,2.273-.108,4.533-.156,6.758Zm0,0-.167-6.758c0-2.237-.144-4.438-.167-6.626l.335.323c-5.287,0-10.562.191-15.836.2l-15.836.072.6-.6-.072,13.384-.526-.538c2.608,0,5.2,0,7.823.072l7.87.132Z" transform="translate(-40.623 -9.46)" fill="#ebebeb"/><path d="M75.721,321.293l-15.7.335-7.966.132c-2.667.06-5.335,0-8,.072H43.51V307.31H44.1l15.836.072c5.275,0,10.55.143,15.836.2h.323v.323c0,2.273-.108,4.533-.155,6.758Zm0,0-.179-6.758c0-2.237-.132-4.438-.155-6.626l.335.323c-5.287.06-10.562.191-15.836.2l-15.789.072.586-.6-.108,13.384-.526-.538c2.608,0,5.2,0,7.823.072l7.87.132Z" transform="translate(-43.51 -6.692)" fill="#ebebeb"/><path d="M105.279,321.293l-15.7.335-7.966.132c-2.655.06-5.335,0-8,.072H73.08V307.31h.6l15.836.072c5.275,0,10.562.143,15.836.2h.323v.323c0,2.273-.1,4.533-.156,6.758Zm0,0-.167-6.758c0-2.237-.144-4.438-.155-6.626l.323.323c-5.275.06-10.562.191-15.836.2l-15.836.072.6-.6-.1,13.384-.526-.538c2.607,0,5.215,0,7.823.072l7.87.132Z" transform="translate(-37.711 -6.692)" fill="#ebebeb"/><path d="M446.561,321.293l-15.693.335-7.966.132c-2.667.06-5.347,0-8.014.072h-.526v-.538l-.072-13.384v-.6h.6l15.836.072c5.287,0,10.562.143,15.837.2h.335v.323c0,2.273-.108,4.533-.156,6.758Zm0,0-.167-6.758c0-2.237-.132-4.438-.155-6.626l.323.323c-5.275.06-10.55.191-15.837.2l-15.836.072.6-.6-.06,13.384-.538-.538c2.607,0,5.215,0,7.835.072l7.87.132Z" transform="translate(29.203 -6.692)" fill="#ebebeb"/><path d="M446.561,70.082l-15.693.275L422.9,70.5h-8.54v-.526L414.29,56.59v-.61h.6l15.836.072c5.287,0,10.562.132,15.837.191h.335v.323c0,2.261-.108,4.521-.156,6.758Zm0,0-.167-6.77c0-2.225-.132-4.426-.155-6.614l.323.323c-5.275,0-10.55.191-15.837.191l-15.836.072.6-.586-.06,13.384-.538-.538c2.607,0,5.215,0,7.835.06l7.87.144Z" transform="translate(29.203 -55.98)" fill="#ebebeb"/><path d="M461.291,84.184l-15.693.323-7.966.144h-8.54v-.526L429.02,70.74v-.61h.6l15.837.072c5.287,0,10.562.132,15.836.191h.335v.323c0,2.261-.108,4.521-.155,6.758Zm0,0-.167-6.77c0-2.225-.131-4.426-.155-6.614l.323.371c-5.275.06-10.55.191-15.836.191l-15.836.072.6-.586-.024,13.337-.538-.538h7.835l7.87.144Z" transform="translate(32.091 -53.205)" fill="#ebebeb"/><path d="M75.721,70.084l-15.7.335-7.966.132H43.51V56.03H44.1l15.836.072c5.275,0,10.55.132,15.836.191h.323v.323c0,2.273-.108,4.521-.155,6.758Zm0,0-.179-6.77c0-2.225-.132-4.426-.155-6.614l.335.323c-5.287,0-10.562.191-15.836.191L44.1,57.3l.586-.6-.108,13.384-.478-.538c2.608,0,5.2,0,7.823.072l7.87.132Z" transform="translate(-43.51 -55.97)" fill="#ebebeb"/><path d="M213.851,142.916l15.693-.335,7.966-.132c2.667-.06,5.347,0,8.014-.06h.526v.538l.072,13.384v.6h-.6l-15.872-.084c-5.287,0-10.562-.132-15.836-.191h-.335v-.359c0-2.273.108-4.521.155-6.758Zm0,0,.167,6.77c0,2.225.132,4.426.156,6.614l-.323-.323c5.275-.06,10.55-.191,15.836-.191l15.836-.084-.6.6V142.916l.538.538c-2.608,0-5.215,0-7.835-.072l-7.87-.132Z" transform="translate(-10.178 -39.034)" fill="#ebebeb"/><path d="M228.623,128.806l15.693-.335,7.966-.132c2.667-.06,5.347,0,8.014-.06h.526v.538l.072,13.384v.6h-.646l-15.836-.072c-5.275,0-10.562-.132-15.836-.191h-.335v-.323c0-2.273.1-4.521.156-6.758Zm0,0,.167,6.77c.06,2.225.132,4.426.155,6.614l-.323-.323c5.275,0,10.562-.191,15.836-.191l15.836-.084-.6.6.06-13.384.538.538c-2.607,0-5.215,0-7.834-.072l-7.87-.132Z" transform="translate(-7.283 -41.801)" fill="#ebebeb"/><path d="M430.372,235.41c-49.746,0-49.83,70.75,0,70.75S480.2,235.41,430.372,235.41Z" transform="translate(25.034 -20.793)" fill="#ebebeb"/><path d="M459.592,276.431c-2.655,12.176-12.751,22.726-30.262,22.726-41.349,0-41.29-58.717,0-58.717h.813c-38.862.718-38.67,56.325.754,56.325C446.974,296.777,456.542,287.471,459.592,276.431Z" transform="translate(26.075 -19.806)" fill="#dbdbdb"/><path d="M213.248,81.09c36.218,6.495,26.661,60.14-9.569,53.633S176.982,74.583,213.248,81.09Z" transform="translate(-16.584 -51.163)" fill="#dbdbdb"/><path d="M210.212,80.582c34.52,6.184,24.951,59.805-9.629,53.633S175.645,74.374,210.212,80.582Z" transform="translate(-16.945 -51.253)" fill="#ebebeb"/><path d="M182.77,107.871c.179,9.569,5.741,18.827,17.942,21,28.707,5.155,36.637-39.376,7.99-44.519l-.562-.1c26.865,5.382,19.138,47.521-8.193,42.617C188.739,124.832,183.356,116.591,182.77,107.871Z" transform="translate(-16.2 -50.434)" fill="#dbdbdb"/><rect width="248.527" height="119.706" transform="translate(12.889 213.816) rotate(5.03)" fill="#ebebeb"/><path d="M303.548,256.581l-7.488-.658L63.5,235.41l-7.512-.67-.658,7.488L46.158,346.468,45.5,353.98l7.488.658,232.583,20.477,7.476.658h0L303.56,256.521Zm-17.32,111.094L53.657,347.138,62.844,242.9l232.547,20.489Z" transform="translate(-43.12 -20.924)" fill="#dbdbdb"/><ellipse cx="40.596" cy="34.807" rx="40.596" ry="34.807" transform="translate(93.045 323.16) rotate(-84.97)" fill="#dbdbdb"/><path d="M108.263,290.149a9.33,9.33,0,1,1-2.129-6.829A9.33,9.33,0,0,1,108.263,290.149Z" transform="translate(-34.463 -12.054)" fill="#dbdbdb"/><path d="M220.294,300.013a9.33,9.33,0,1,1-8.48-10.107A9.33,9.33,0,0,1,220.294,300.013Z" transform="translate(-12.494 -10.113)" fill="#dbdbdb"/><path d="M68.91,332.887l-16.59-1.459,1.459-16.578A16.65,16.65,0,0,1,68.91,332.887Z" transform="translate(-41.782 -5.214)" fill="#dbdbdb"/><path d="M250.955,332.011,249.5,348.6l-16.566-1.459a16.626,16.626,0,0,1,18.025-15.131Z" transform="translate(-6.363 -1.861)" fill="#dbdbdb"/><path d="M240.571,257.46l16.59,1.459L255.7,275.5a16.638,16.638,0,0,1-15.131-18.037Z" transform="translate(-4.878 -16.468)" fill="#dbdbdb"/><path d="M58.77,258.14l1.471-16.59,16.578,1.459A16.638,16.638,0,0,1,58.77,258.14Z" transform="translate(-40.517 -19.588)" fill="#dbdbdb"/><path d="M159.465,269.421a1.7,1.7,0,0,1,1.519,1.818l-.239,2.787a22.822,22.822,0,0,1,11.961,5.98,1.938,1.938,0,0,1,.837,1.687,1.794,1.794,0,0,1-1.938,1.579,1.759,1.759,0,0,1-1.2-.6,19.856,19.856,0,0,0-10.059-5.454l-1.71,19.521c10.394,3.17,14.509,7.535,13.911,14.353-.658,7.392-7.32,12.069-16.064,11.578l-.478,5.442a1.687,1.687,0,1,1-3.349-.287l.49-5.514a26.23,26.23,0,0,1-15.095-8.146,1.794,1.794,0,0,1-.634-1.531,1.818,1.818,0,0,1,1.89-1.591,1.794,1.794,0,0,1,1.2.6,22.594,22.594,0,0,0,13.038,7.547l1.746-19.879c-10.251-3.218-14.246-7.44-13.624-14.353s7.177-11.877,15.753-11.339l.227-2.643A1.71,1.71,0,0,1,159.465,269.421Zm-3.875,26.314,1.675-19.042c-6.77-.454-11.59,3.206-12.033,8.217-.419,4.8,1.555,7.93,10.358,10.873Zm2.691,4.521L156.595,319.5c6.985.478,11.865-3.17,12.332-8.468.431-4.76-1.758-7.906-10.645-10.729Z" transform="translate(-25.095 -14.124)" fill="#ebebeb"/><rect width="248.527" height="119.706" transform="translate(185.251 98.082) rotate(0.81)" fill="#ebebeb"/><path d="M447.138,141.519l-7.524-.108L206.182,138.1l-7.536-.108-.108,7.523-1.471,104.635-.108,7.535,7.524.108,233.444,3.313,7.512.108h0l1.71-119.694Zm-9.1,112.063-233.444-3.325,1.483-104.635,233.444,3.325Z" transform="translate(-13.417 -39.897)" fill="#dbdbdb"/><ellipse cx="40.596" cy="34.807" rx="40.596" ry="34.807" transform="translate(273.224 201.247) rotate(-89.19)" fill="#dbdbdb"/><path d="M256.189,189.391a9.318,9.318,0,1,1-2.631-6.635A9.33,9.33,0,0,1,256.189,189.391Z" transform="translate(-5.461 -31.673)" fill="#dbdbdb"/><path d="M368.639,190.991a9.33,9.33,0,1,1-9.2-9.461,9.33,9.33,0,0,1,9.2,9.461Z" transform="translate(16.591 -31.359)" fill="#dbdbdb"/><path d="M219.99,234.817l-16.65-.239.239-16.638a16.65,16.65,0,0,1,16.411,16.877Z" transform="translate(-12.166 -24.219)" fill="#dbdbdb"/><path d="M401.465,220.7l-.227,16.662-16.638-.239A16.65,16.65,0,0,1,401.465,220.7Z" transform="translate(23.38 -23.678)" fill="#dbdbdb"/><path d="M385.82,146.94l16.662.239-.239,16.638A16.65,16.65,0,0,1,385.82,146.94Z" transform="translate(23.619 -38.142)" fill="#dbdbdb"/><path d="M204.38,161.022l.239-16.662,16.638.239A16.65,16.65,0,0,1,204.38,161.022Z" transform="translate(-11.962 -38.648)" fill="#dbdbdb"/><path d="M305.288,165.1a1.71,1.71,0,0,1,1.663,1.71v2.8a22.833,22.833,0,0,1,12.38,5.071,1.95,1.95,0,0,1,.957,1.627,1.794,1.794,0,0,1-1.842,1.722,1.734,1.734,0,0,1-1.256-.5,19.8,19.8,0,0,0-10.43-4.7l-.275,19.592c10.6,2.392,15.023,6.447,14.928,13.3-.108,7.428-6.411,12.583-15.167,12.739l-.072,5.466a1.687,1.687,0,0,1-3.361,0l.084-5.538a26.315,26.315,0,0,1-15.657-7.009,1.77,1.77,0,1,1,2.285-2.7,22.5,22.5,0,0,0,13.516,6.543l.287-19.951c-10.466-2.452-14.748-6.363-14.652-13.36s6.339-12.368,14.88-12.463v-2.655a1.71,1.71,0,0,1,1.734-1.687Zm-1.914,26.577.275-19.138c-6.794,0-11.327,4.043-11.4,9.09C292.179,186.415,294.38,189.381,303.374,191.678ZM306.4,196l-.275,19.317c7,0,11.6-4.043,11.674-9.354.072-4.832-2.332-7.811-11.4-9.964Z" transform="translate(4.157 -34.581)" fill="#ebebeb"/></g><g transform="translate(3 422.255)"><ellipse cx="161.139" cy="47.33" rx="161.139" ry="47.33" transform="translate(0)" fill="#0a1531"/></g><g transform="translate(0.001 388.651)"><path d="M40.1,380.308l62.76-.3,62.772-.1,125.531-.2,125.532.2,62.772.1,62.76.3-62.76.287-62.772.108-125.532.2-125.531-.2L102.86,380.6Z" transform="translate(-40.1 -379.71)" fill="#263238"/></g><g transform="translate(7.706 49.814)"><path d="M102.14,196.86S116.864,332.738,117,336.8c.777,22.523,1.1,87.2,1.1,87.2l49.04-.132s1.28-74.589-.8-93.99c-2.6-24.724-18.683-132.852-18.683-132.852Z" transform="translate(-35.639 -76.731)" fill="#d69890"/><path d="M198.707,449.034c-2.631.885-77.843.861-80.713-.957-1.076-.67-1.71-11.638-2.105-24.891-.1-2.859-.155-5.813-.2-8.827-.072-3.588-.132-7.177-.156-10.645-.132-15.7,0-13.174,0-13.174l48.957-.12v23.82l-.239,8.827s28.79,12.894,31.721,15.214S201.326,448.161,198.707,449.034Z" transform="translate(-33.024 -48.705)" fill="#0a1633"/><path d="M198.7,438.572c-2.631.885-77.843.861-80.713-.957-1.076-.67-1.71-11.638-2.105-24.891-.1-2.859-.155-5.813-.2-8.827-.072-3.588-.132-7.177-.156-10.645l49.04-.132v10.657l-.239,8.827s28.79,12.894,31.721,15.215S201.317,437.7,198.7,438.572Z" transform="translate(-33.015 -38.243)" fill="#ebebeb"/><path d="M198.954,436.946c-1.71.574-33.742.765-57.066.347-5.406-.1-10.334-.239-14.353-.395-5.49-.239-9.174-.526-9.772-.909-1.328-.849-2-16.937-2.392-33.9l49.2-.132-.227,8.875s28.946,12.954,31.9,15.3S201.585,436.061,198.954,436.946Z" transform="translate(-33.044 -36.509)" fill="#ffc727"/><path d="M196.877,428.73c-12.679-.323-63.836-.395-76.383.251-.108,0-.108.084,0,.084,12.547.586,63.7.251,76.383-.132C197.14,428.921,197.14,428.73,196.877,428.73Z" transform="translate(-32.055 -31.307)" fill="#263238"/><path d="M160.333,407.06c-4.988-.933-11.088-.167-14.9,3.385-.144.144,0,.347.215.3a69.494,69.494,0,0,1,14.664-3.05.323.323,0,0,0,.024-.634Z" transform="translate(-27.161 -35.581)" fill="#263238"/><path d="M163.343,408.9c-4.988-.933-11.088-.167-14.9,3.385-.144.132,0,.347.215.287a70.238,70.238,0,0,1,14.664-3.038.323.323,0,0,0,.024-.634Z" transform="translate(-26.57 -35.22)" fill="#263238"/><path d="M166.353,410.71c-4.988-.933-11.088-.167-14.9,3.385-.144.143,0,.347.215.3a69.492,69.492,0,0,1,14.664-3.05.323.323,0,0,0,.024-.634Z" transform="translate(-25.98 -34.865)" fill="#263238"/><path d="M169.363,412.53c-4.988-.933-11.088-.167-14.9,3.385-.144.132,0,.347.215.287a70.239,70.239,0,0,1,14.664-3.038.323.323,0,0,0,.024-.634Z" transform="translate(-25.39 -34.508)" fill="#263238"/><path d="M127.355,451.08c-2.715.586-77.46-7.7-80.139-9.82-1-.789-.431-11.758.634-24.975.227-2.847,11.961-48.765,11.961-48.765l50.4,5.251L96.1,421.5s27.2,15.968,29.9,18.611S130.046,450.506,127.355,451.08Z" transform="translate(-46.512 -43.263)" fill="#0a1633"/><path d="M47.236,436.552c2.643,2.105,77.4,10.394,80.139,9.82s1.2-8.373-1.435-10.98-29.9-18.623-29.9-18.623l5.287-18.157L52.558,391.59c-2.129,8.564-4.641,18.9-4.784,19.975C46.8,424.794,46.243,435.762,47.236,436.552Z" transform="translate(-46.508 -38.543)" fill="#ebebeb"/><path d="M127.588,444.7c-1.758.371-33.623-2.954-56.755-5.98-5.359-.694-10.239-1.376-14.186-1.974-5.43-.837-9.055-1.531-9.569-1.974-.993-.8-.55-12.057.861-25.058a51.075,51.075,0,0,1,2-8.9l48.442,6.411-2.249,7.715S123.485,431,126.153,433.643,130.3,444.1,127.588,444.7Z" transform="translate(-46.542 -36.735)" fill="#ffc727"/><path d="M126.146,436.214c-12.559-1.7-63.394-7.4-75.953-8.134-.108,0-.108.06,0,.084,12.416,1.962,63.31,7.248,75.941,8.265C126.4,436.441,126.409,436.249,126.146,436.214Z" transform="translate(-45.842 -31.387)" fill="#263238"/><path d="M92.26,410.591c-4.856-1.471-11-1.376-15.179,1.734-.167.12,0,.347.167.311a70.241,70.241,0,0,1,14.927-1.376.337.337,0,1,0,.084-.67Z" transform="translate(-40.566 -34.997)" fill="#263238"/><path d="M95.05,412.732c-4.856-1.471-11-1.387-15.179,1.722-.167.12,0,.347.179.323a70.056,70.056,0,0,1,14.915-1.423.323.323,0,0,0,.084-.622Z" transform="translate(-40.019 -34.578)" fill="#263238"/><path d="M97.84,414.861c-4.856-1.471-11-1.376-15.179,1.734-.167.12,0,.347.179.311a70.057,70.057,0,0,1,14.915-1.411.323.323,0,0,0,.084-.634Z" transform="translate(-39.472 -34.16)" fill="#263238"/><path d="M100.641,417c-4.856-1.471-11-1.387-15.191,1.722-.155.12,0,.347.179.323a70.066,70.066,0,0,1,14.915-1.423.323.323,0,0,0,.1-.622Z" transform="translate(-38.924 -33.741)" fill="#263238"/><path d="M155.536,197.033s-.466,16.746-8.086,26.314c-1.818,2.3-10.5,13.372-13.4,15.549,0,0-7.308,84.134-8.588,99.277-1.746,20.764-22.726,89.385-22.726,89.385l-49.16-7S70.5,356.845,75.23,336.834c1.088-4.617,10.765-95.844,10.059-97.746-7.846-19.712,6.662-42.258,6.662-42.258Z" transform="translate(-45.162 -76.737)" fill="#d69890"/><path d="M154.892,197.039s19.616,127.792,20.334,134.108c0,0-15.884,7.535-39.95,11.471S65.22,330.333,65.22,330.333s15.825-86.491,15.825-86.993-5.466-23.814,8.636-46.54Z" transform="translate(-42.879 -76.743)" fill="#0a1633"/><path d="M133.865,248.89c-2.5,7.811-4.976,15.657-7.3,23.527s-4.641,15.549-6.387,23.48c-.993,4.5-1.77,9.019-2.572,13.552a.156.156,0,0,0,.3.072c1.124-3.947,2.392-7.858,3.421-11.83s2.069-7.942,3.062-11.961c1.974-7.858,3.816-15.753,5.885-23.6,1.2-4.438,2.464-8.839,3.744-13.241C134.057,248.83,133.9,248.794,133.865,248.89Z" transform="translate(-32.605 -66.539)" fill="#37474f"/><path d="M133.818,239.574q-2.548,4.324-4.784,8.827c-.706,1.471-1.387,2.942-2.057,4.426-.347.789-.682,1.591-1,2.392a10.562,10.562,0,0,0-.8,2.2c0,.084.1.167.155.084a10.428,10.428,0,0,0,1.029-1.9c.383-.765.777-1.531,1.2-2.308q1.088-2.261,2.225-4.485c1.5-3,3-5.981,4.533-8.959a.281.281,0,0,0-.49-.275Z" transform="translate(-31.122 -68.383)" fill="#37474f"/><path d="M143.764,97.89s-15.382-5.574-23.575,5.036c-9.222,11.961-4.952,21.41-6.555,35.883s-13.038,19.724-10.849,29.759,15.25,8.54,15.25,8.54,2.392,11.53,13.5,12.6a19.138,19.138,0,0,0,17.009-7.512s8.253,4.868,14.7.849c5.287-3.3,3.588-12.583,3.588-12.583s7.882,1.938,10.586-5.048c2.823-7.248-9.114-12.2-12.619-21.638-3.182-8.54-4.641-31.326-9.377-38.778S143.764,97.89,143.764,97.89Z" transform="translate(-35.566 -96.427)" fill="#263238"/><path d="M118.209,173.2c-4.784.969-10.609.742-14.186-3.062-3.313-3.529-2.8-8.935-.993-13.061,1.974-4.5,5.239-8.277,7.476-12.631a39.376,39.376,0,0,0,4.079-13.815c.61-5.789-.742-11.806.861-17.487,0-.084-.1-.108-.108,0-1.591,5.179-.622,10.645-1.088,15.956a39.579,39.579,0,0,1-4.593,15.214c-2.392,4.473-5.981,8.373-7.8,13.157-1.615,4.162-1.806,9.306,1.28,12.858a11.685,11.685,0,0,0,6.244,3.588,20.477,20.477,0,0,0,8.887-.407C118.376,173.354,118.328,173.174,118.209,173.2Z" transform="translate(-35.919 -93.163)" fill="#263238"/><path d="M169.4,154.825a22.727,22.727,0,0,0-4.1-4.461,33.922,33.922,0,0,1-4.39-4.689c-5.287-7.069-7.272-15.872-9.186-24.317a102.615,102.615,0,0,0-4.449-15.549c0-.12-.227,0-.179,0,3.481,8.528,4.127,17.834,6.65,26.625a44.984,44.984,0,0,0,4.725,11.291,29.361,29.361,0,0,0,3.588,4.784c1.4,1.5,3.026,2.763,4.509,4.186a12.392,12.392,0,0,1,3.708,5.729A9.4,9.4,0,0,1,169.2,165.6s0,.06.06,0A10.311,10.311,0,0,0,169.4,154.825Z" transform="translate(-26.825 -94.597)" fill="#263238"/><path d="M158.916,156.257c0-.108-.215,0-.155.1,2.021,3.923,3.4,8.947.443,12.774a10.765,10.765,0,0,1-10.765,3.816,15.059,15.059,0,0,1-6.674-3.194c-.155-.12-.371.1-.215.227,3.421,2.895,8.181,4.677,12.655,3.373a9.94,9.94,0,0,0,7.332-8.827C161.715,161.532,160.208,158.841,158.916,156.257Z" transform="translate(-27.921 -84.702)" fill="#263238"/><path d="M129.827,149.758c7.332,23.48,20.717,49.256,28.79,52.306,8.624,3.265,42.043-1.2,53.645-4.127,3.792-.957-7.679-27.51-11.495-29.281s-30.154,5.406-32.642,4.784c-1.328-.335-17.355-19.5-28.778-30.824C129.145,132.5,127.435,142.079,129.827,149.758Z" transform="translate(-30.397 -88.226)" fill="#d69890"/><path d="M198.365,196.246c3.935-.718,21.673-5.586,26.314-8.038s17.463-10.5,15.944-14.246-5.466-1.687-5.466-1.687,4.88-4.258,3-7.882-7.906-.227-7.906-.227,4.689-4.784,2.56-8.217-7.619.945-7.619.945,4.5-4.127,1.531-6.256c-3.588-2.572-10.98,5.981-16.3,8.313-1.2.526-25.262,8.983-25.262,8.983Z" transform="translate(-19.358 -85.889)" fill="#d3766a"/><path d="M221.772,155.5c-5.478,6.28-8.947,8.074-16.805,10.418-.156,0-.12.287,0,.251,7.894-1.6,12.583-3.229,17.08-10.418C222.346,155.408,222.071,155.2,221.772,155.5Z" transform="translate(-15.494 -84.87)" fill="#263238"/><path d="M226.189,161.467c-6.256,5.981-10.011,7.99-18.061,11.052a.12.12,0,0,0,.072.215c8.134-2.392,12.774-4.079,18.241-10.909C226.68,161.515,226.464,161.192,226.189,161.467Z" transform="translate(-14.863 -83.692)" fill="#263238"/><path d="M229.692,168.8c-6.471,5.383-10.5,7.739-18.683,9.712a.156.156,0,0,0,0,.3c8.552-1.2,13.588-4.091,18.779-9.8C230.158,168.621,230.158,168.454,229.692,168.8Z" transform="translate(-14.311 -82.271)" fill="#263238"/><path d="M181,167.464s6.734-7.966,10.466-10.765,21.53-8.373,22.929-4.557c1.818,4.868-7.835,10.071-12.894,11.961,0,0,4.2,11.279-1.914,16.506S181,167.464,181,167.464Z" transform="translate(-20.174 -85.754)" fill="#d3766a"/><path d="M211.316,153.14c-1.555,5.646-8.373,7.751-13.157,9.988a.478.478,0,0,0-.167.766c1.447,4.844,2.081,12.1-1.2,16.279a.123.123,0,1,0,.179.167c4.174-3.995,4.139-11.172,2.213-16.375,4.928-2.225,11.662-4.629,12.212-10.765Z" transform="translate(-17.082 -85.305)" fill="#263238"/><path d="M159.209,159.991l-20.119,17.451s-9.748-19.245-10.9-31.1,4.545-10.765,11.351-5.227S159.209,159.991,159.209,159.991Z" transform="translate(-30.558 -88.448)" fill="#ffc727"/><path d="M139.693,153.169a1.041,1.041,0,1,1-1.041-1.041A1.041,1.041,0,0,1,139.693,153.169ZM152,152.26a1.029,1.029,0,1,0,1.387,1.4Zm-20.25-10.37a1.041,1.041,0,1,0,1.041,1.041A1.041,1.041,0,0,0,131.751,141.89Zm6.9,31a1.041,1.041,0,1,0,1.041,1.041,1.041,1.041,0,0,0-1.041-1.041Zm6.914-10.239a1.041,1.041,0,1,0,1.041,1.041,1.041,1.041,0,0,0-1.041-1.041Z" transform="translate(-30.036 -87.511)" fill="#fff"/><path d="M153.145,154.562c.132-.12.251-.072.132,0a178.121,178.121,0,0,1-16.961,14.581s-.084,0,0-.072C138.732,166.379,151.722,155.842,153.145,154.562Z" transform="translate(-28.944 -85.04)" fill="#263238"/><path d="M152.4,165.563l-13.313,11.542s-9.748-19.245-10.9-31.1c-.323-3.361-.108-5.682.538-7.177Z" transform="translate(-30.558 -88.111)" opacity="0.1"/><path d="M151.569,190.62l-.682,18.444-65.248-.239s14.712-54.531,34.161-68.991c9.736-7.236,19.138-4.784,23.922,2.476,1.2,1.842,14.437,24.747,14.6,34.328C158.519,185.058,151.569,190.62,151.569,190.62Z" transform="translate(-38.874 -88.768)" fill="#ffc727"/><path d="M120.827,153.169a1.041,1.041,0,1,1-1.041-1.041A1.041,1.041,0,0,1,120.827,153.169Zm12.774-1.041a1.041,1.041,0,1,0,1.041,1.041,1.041,1.041,0,0,0-1.041-1.041Zm13.815,0a1.041,1.041,0,1,0,1.041,1.041,1.041,1.041,0,0,0-1.041-1.041ZM126.664,141.89a1.041,1.041,0,1,0,1.041,1.041A1.041,1.041,0,0,0,126.664,141.89Zm13.815,0a1.023,1.023,0,1,0,.036,0Zm-34.508,31a1.041,1.041,0,1,0,1.041,1.041A1.041,1.041,0,0,0,105.971,172.893Zm13.815,0a1.041,1.041,0,1,0,1.041,1.041A1.041,1.041,0,0,0,119.786,172.893Zm13.815,0a1.041,1.041,0,1,0,1.041,1.041A1.041,1.041,0,0,0,133.6,172.893Zm13.815,0a1.041,1.041,0,1,0,1.041,1.041A1.041,1.041,0,0,0,147.416,172.893Zm-34.532-10.239a1.041,1.041,0,1,0,1.041,1.041A1.041,1.041,0,0,0,112.885,162.654Zm13.815,0a1.087,1.087,0,1,1-.036,0Zm13.815,0a1.041,1.041,0,1,0,1.041,1.041A1.041,1.041,0,0,0,140.515,162.654Zm14.258.108h0a1.088,1.088,0,0,0-.443-.1,1.041,1.041,0,1,0,0,2.081,1.029,1.029,0,0,0,.969-.67C155.131,163.635,154.952,163.2,154.772,162.762Zm-62.616,30.9a1.041,1.041,0,1,0,1.017.993A1.041,1.041,0,0,0,92.156,193.658Zm13.815,0a1.041,1.041,0,1,0,1.041,1.041,1.041,1.041,0,0,0-1.041-1.041Zm13.815,0a1.041,1.041,0,1,0,1.041,1.041A1.041,1.041,0,0,0,119.786,193.658Zm13.815,0a1.041,1.041,0,1,0,1.041,1.041A1.041,1.041,0,0,0,133.6,193.658Zm13.815,0a1.041,1.041,0,1,0,1.041,1.041A1.041,1.041,0,0,0,147.416,193.658ZM99.07,183.419a1.041,1.041,0,1,0,1.041,1.041A1.041,1.041,0,0,0,99.07,183.419Zm13.815,0a1.041,1.041,0,1,0,1.041,1.041,1.041,1.041,0,0,0-1.041-1.041Zm13.815,0a1.087,1.087,0,1,1-.036,0Zm13.815,0a1.041,1.041,0,1,0,1.041,1.041A1.041,1.041,0,0,0,140.515,183.419Zm13.815,0a1.041,1.041,0,1,0,1.041,1.041A1.041,1.041,0,0,0,154.33,183.419ZM86.271,205.044c-.084.323-.167.61-.251.873a1,1,0,0,0,.275-.694.466.466,0,0,0-.024-.179Zm12.8-.861a1.022,1.022,0,1,1,0,.036Zm13.815,0a1.022,1.022,0,1,1,0,.036Zm13.779.036a1.041,1.041,0,1,0,1.041,1.041A1.041,1.041,0,0,0,126.664,204.219Zm13.815,0a1.023,1.023,0,1,0,.036,0Z" transform="translate(-38.8 -87.511)" fill="#fff"/><path d="M123.646,179.5a59.127,59.127,0,0,1,8.612-.144c1.423.108,2.835.263,4.258.466.706.1,1.4.167,2.117.239a9.219,9.219,0,0,0,2.225,0v.1a15.1,15.1,0,0,1-2.081.335,12.972,12.972,0,0,1-2.045,0c-1.447-.084-2.883-.239-4.33-.347-2.919-.215-5.837-.419-8.768-.419C123.515,179.738,123.515,179.511,123.646,179.5Z" transform="translate(-31.441 -80.182)" fill="#263238"/><path d="M118.2,182.963a61.9,61.9,0,0,1,6.925-1.615c1.2-.191,2.392-.323,3.588-.419l1.687-.12h1.878a.054.054,0,1,1,0,.108,10.442,10.442,0,0,0-1.746.3l-1.746.275-3.5.55c-2.392.335-4.677.706-7.009,1.2C118.107,183.178,118.083,182.987,118.2,182.963Z" transform="translate(-32.503 -79.878)" fill="#263238"/><path d="M122.7,141.737c.167,1.2,5.167,9.569,10.693,9.868,1.806.084,2.7-9.724,2.7-9.724l.227-.706,3.253-9.928-11.184-8.791-1.627-1.2s-.706,2.775-1.555,6.232a2.443,2.443,0,0,1-.12.49c-.036.167-.108.383-.144.562-.132.514-.275,1.041-.395,1.579s-.191.789-.275,1.2L124,132.587a67.471,67.471,0,0,0-1.3,9.15Z" transform="translate(-31.607 -91.557)" fill="#d69890"/><path d="M124.8,127.516a20.992,20.992,0,0,0,11.112,13.66l3.253-9.928-11.184-8.791-1.627-1.2S125.649,124.059,124.8,127.516Z" transform="translate(-31.195 -91.557)" fill="#263238"/><path d="M156.523,120.984c.407,18.324-10.514,20.633-14.473,20.717-3.588.072-15.8-.12-18.1-18.3s6.1-24.161,14.353-24.771S156.128,102.671,156.523,120.984Z" transform="translate(-31.436 -96.005)" fill="#d69890"/><path d="M148.211,113.309a11.212,11.212,0,0,1-1.256-.144,1.961,1.961,0,0,1-1.2-.383.67.67,0,0,1-.084-.789,1.663,1.663,0,0,1,1.555-.538,2.392,2.392,0,0,1,1.567.694.694.694,0,0,1-.586,1.16Z" transform="translate(-27.119 -93.485)" fill="#263238"/><path d="M137.357,113.781a10.949,10.949,0,0,0,1.2-.263,2.046,2.046,0,0,0,1.2-.514.646.646,0,0,0,0-.789,1.639,1.639,0,0,0-1.591-.383,2.392,2.392,0,0,0-1.5.849.694.694,0,0,0,.694,1.1Z" transform="translate(-28.896 -93.419)" fill="#263238"/><path d="M139.8,117.36s-.1.072-.1.12c.072,1.2,0,2.679-1.2,3.122v.072C139.921,120.446,140.065,118.532,139.8,117.36Z" transform="translate(-28.506 -92.321)" fill="#263238"/><path d="M138.885,116.3c-2.009-.108-2.069,3.923-.2,4.019S140.524,116.384,138.885,116.3Z" transform="translate(-28.738 -92.53)" fill="#263238"/><path d="M138.394,116.494c-.359.215-.706.61-1.136.646s-.849-.383-1.2-.789h-.072c0,.765.263,1.567,1.088,1.687s1.3-.55,1.507-1.328C138.621,116.613,138.5,116.4,138.394,116.494Z" transform="translate(-29 -92.52)" fill="#263238"/><path d="M145.647,117.21s.1.06.1.108c-.072,1.2,0,2.691,1.2,3.122v.072C145.54,120.284,145.384,118.382,145.647,117.21Z" transform="translate(-27.127 -92.351)" fill="#263238"/><path d="M146.78,116.14c2.009-.108,2.081,3.923.215,4.019S145.106,116.224,146.78,116.14Z" transform="translate(-27.124 -92.561)" fill="#263238"/><path d="M147.324,116.389c.323.2.646.586,1.029.61s.754-.419,1.029-.849h.06c0,.766-.2,1.579-.945,1.734s-1.2-.5-1.375-1.268C147.085,116.521,147.193,116.305,147.324,116.389Z" transform="translate(-26.819 -92.559)" fill="#263238"/><path d="M139.5,125.854c.239.347.455.8.885.933a3.337,3.337,0,0,0,1.376,0s.072,0,0,.072a1.663,1.663,0,0,1-1.639.371,1.328,1.328,0,0,1-.73-1.28C139.367,125.818,139.462,125.806,139.5,125.854Z" transform="translate(-28.334 -90.661)" fill="#263238"/><path d="M144.9,123.984s.251,1.866.251,2.751c0,.072-.215.12-.514.132h0a4.174,4.174,0,0,1-4.055-1.567c-.06-.084,0-.179.132-.12a6.328,6.328,0,0,0,3.816,1.1c.06-.239-.538-3.182-.395-3.194a7.775,7.775,0,0,1,1.986.467c-.407-3.9-1.447-7.7-1.794-11.59a.12.12,0,0,1,.227,0,63.393,63.393,0,0,1,2.464,12.4C147.067,124.762,145.249,124.1,144.9,123.984Z" transform="translate(-28.104 -93.396)" fill="#263238"/><path d="M144.578,124.483a5.167,5.167,0,0,1-2.021,1.627,2.272,2.272,0,0,1-1.388.12c-1.017-.251-1.065-1.2-.9-1.974a5.694,5.694,0,0,1,.431-1.2A6.627,6.627,0,0,0,144.578,124.483Z" transform="translate(-28.175 -91.204)" fill="#263238"/><path d="M142.557,125.914a2.273,2.273,0,0,1-1.387.12c-1.017-.251-1.065-1.2-.9-1.974A2.392,2.392,0,0,1,142.557,125.914Z" transform="translate(-28.175 -91.008)" fill="#ff9bbc"/><path d="M127.574,121.252s-3.588-5.981-6.3-4.713-.215,9.724,2.751,11.052a3.1,3.1,0,0,0,4.246-1.387Z" transform="translate(-32.115 -92.517)" fill="#d69890"/><path d="M121.72,118.53v.072c2.081,1,3.074,3.05,3.732,5.155a1.722,1.722,0,0,0-2.524-.634v.12a1.89,1.89,0,0,1,2.045.8,8.7,8.7,0,0,1,.9,1.758c.084.191.443.12.383-.108C126.492,122.932,124.627,118.985,121.72,118.53Z" transform="translate(-31.799 -92.092)" fill="#263238"/><path d="M125.247,123.247c1.986-.072,7.26-5.418,7.631-14.987,0,0-.921,8.576-1.6,9.82s2.954-3,3.361-10.765a31.362,31.362,0,0,0,7.835,4.27c3.588,1.1,5.849,1.112,6.112.861s-5.06-2.069-6.471-3.768c0,0,9.569,4.713,14.054,5.155.526,0,1.364-10.574-5.442-15.238s-17.87,0-20.872,2.763c0,0-3.469.419-7.332,5.442S123.106,123.39,125.247,123.247Z" transform="translate(-31.941 -96.39)" fill="#263238"/><path d="M113.691,144.734c-14.353,18.6-28.312,50.87-26.793,60.14,2.141,13.157,37.857,36.194,48.311,41.254,3.923,1.9,15.789-32.355,11.626-34.436-6.626-3.313-30.106-17.942-30.441-20.549-.215-1.6,5.909-23.731,9.078-38.275C129.731,133.431,118.572,138.395,113.691,144.734Z" transform="translate(-38.65 -88.059)" fill="#d69890"/><path d="M180.39,216.176a8.133,8.133,0,0,1-3.5,4.306,8.05,8.05,0,0,1,1.423,5.275c-.431,3.277-5.753,4.031-5.753,4.031a9.88,9.88,0,0,1,.61,5.8c-.718,3.086-5.981,4.617-5.981,4.617a8.612,8.612,0,0,1-2.667,5.442c-4.186,3.66-12.344,1.2-17.535-.335s-18.54-10.693-21.243-12.188l9.437-33.4s25.226.191,31.1,2.847C171.192,204.837,181.814,211.942,180.39,216.176Z" transform="translate(-31.01 -76.168)" fill="#d69890"/><path d="M171.042,218.4c-4.677-3.588-10.215-6.148-15.549-8.5a.1.1,0,0,0-.084.179c5.371,2.285,10.251,6.064,15.549,8.564a.144.144,0,0,0,.084-.239Z" transform="translate(-25.203 -74.177)" fill="#263238"/><path d="M167.518,225.413a15.455,15.455,0,0,0-3.66-1.7c-1.34-.514-2.679-.993-4.043-1.459-2.7-.933-5.43-1.806-8.181-2.6-.12,0-.2.144-.084.179,2.7.945,5.382,1.914,8.038,2.966,1.328.514,2.655,1.053,3.971,1.6a19.006,19.006,0,0,0,3.8,1.364.2.2,0,0,0,.155-.359Z" transform="translate(-25.96 -72.26)" fill="#263238"/><path d="M162.69,234.379a10.465,10.465,0,0,0-3.385-1.352l-3.72-1.2c-2.476-.825-4.952-1.651-7.392-2.572-.12,0-.2.144-.084.191,2.488.933,4.952,1.914,7.44,2.835l3.672,1.328a9.94,9.94,0,0,0,3.433.909.074.074,0,0,0,.036-.144Z" transform="translate(-26.635 -70.377)" fill="#263238"/><path d="M120.187,174.824,94.65,167.277s10.956-18.588,20.334-25.932,11.483-1.95,10.538,6.746S120.187,174.824,120.187,174.824Z" transform="translate(-37.107 -88.294)" fill="#ffc727"/><path d="M105.049,153.181a1.041,1.041,0,0,1-2.009.359l1.041-1.387a1.029,1.029,0,0,1,.969,1.029Zm12.774-1.053a1.041,1.041,0,1,0,1.041,1.041,1.041,1.041,0,0,0-1.041-1.041Zm-6.818-8.169a1.029,1.029,0,0,0,.945-.945C111.639,143.325,111.316,143.636,111.005,143.959Zm14.353-1.818a1.029,1.029,0,0,0-.67-.251,1.041,1.041,0,1,0,0,2.081.969.969,0,0,0,.742-.323,8.976,8.976,0,0,0-.024-1.507Zm-7.583,30.752a1,1,0,0,0-.73.311l1.746.514a1.041,1.041,0,0,0-.969-.825ZM97.059,162.654a1.113,1.113,0,0,0-.347.06h0c-.251.371-.466.73-.682,1.053a1.029,1.029,0,0,0,1.029.957,1.041,1.041,0,1,0,0-2.081Zm13.815,0a1.017,1.017,0,1,0,.048,0Z" transform="translate(-36.837 -87.511)" fill="#fff"/><path d="M118.97,165.777c.167,0,.179.167,0,.132a180.228,180.228,0,0,1-21.41-6.423s0-.1,0-.1C101.244,160,117.116,165.263,118.97,165.777Z" transform="translate(-36.537 -84.079)" fill="#263238"/><path d="M120.689,152.081c-1.28,6.734-2.835,13.779-4.282,20.334,0,.12-1.065-.395-1.5-.562-.167-.072,0-.227.108-.179a5.143,5.143,0,0,0,.969.191c1.471-6.614,2.954-13.229,4.629-19.8C120.629,152,120.7,152,120.689,152.081Z" transform="translate(-33.148 -85.525)" fill="#263238"/></g><g transform="translate(156.272 92.363)"><rect width="256.732" height="123.654" transform="translate(6.772 29.871) rotate(-6.66)" fill="#ffc727"/><rect width="256.732" height="123.654" transform="translate(6.772 29.871) rotate(-6.66)" opacity="0.1"/><path d="M431.418,132l-7.715.909L184.159,160.958l-7.739.9.909,7.727,12.547,107.363.909,7.739,7.715-.909,239.556-28,7.715-.9h0L431.442,132Zm5.741,116.022L197.6,276.035,185.068,168.673,424.6,140.7Z" transform="translate(-169.638 -132)" opacity="0.1"/><ellipse cx="35.955" cy="41.936" rx="35.955" ry="41.936" transform="translate(101.052 40.41) rotate(-6.66)" opacity="0.1"/><path d="M242.357,202.045a9.629,9.629,0,1,1-10.681-8.444,9.629,9.629,0,0,1,10.681,8.444Z" transform="translate(-160.471 -119.933)" opacity="0.1"/><path d="M357.747,188.567a9.629,9.629,0,1,1-10.693-8.457,9.629,9.629,0,0,1,10.693,8.457Z" transform="translate(-137.843 -122.578)" opacity="0.1"/><path d="M211.55,253.252l-17.092,1.986-2-17.068A17.2,17.2,0,0,1,211.55,253.252Z" transform="translate(-166.493 -111.203)" opacity="0.1"/><path d="M395.22,214.74l2,17.056-17.068,2A17.2,17.2,0,0,1,395.22,214.74Z" transform="translate(-129.708 -115.774)" opacity="0.1"/><path d="M369.63,141.257l17.08-2,2,17.068a17.188,17.188,0,0,1-19.078-15.071Z" transform="translate(-131.748 -130.576)" opacity="0.1"/><path d="M185.638,180.066l-2-17.092L200.708,161A17.2,17.2,0,0,1,185.638,180.066Z" transform="translate(-168.222 -126.313)" opacity="0.1"/><path d="M288.87,170.772a1.746,1.746,0,0,1,1.926,1.519l.335,2.871A23.54,23.54,0,0,1,304.5,178.69a2.022,2.022,0,0,1,1.2,1.543,1.842,1.842,0,0,1-1.651,2.009,1.77,1.77,0,0,1-1.352-.347,20.525,20.525,0,0,0-11.327-3.409l2.392,20.107c11.184,1.017,16.255,4.581,17.08,11.614.885,7.619-4.868,13.755-13.815,15.083l.646,5.61a1.734,1.734,0,0,1-3.445.395l-.658-5.67a27.1,27.1,0,0,1-16.973-5.083,1.854,1.854,0,0,1-.969-1.411,1.89,1.89,0,0,1,1.591-2.009,1.854,1.854,0,0,1,1.352.359,23.288,23.288,0,0,0,14.76,4.892l-2.392-20.465c-11.052-1.112-15.956-4.545-16.805-11.722s4.784-13.528,13.564-14.76l-.311-2.739a1.746,1.746,0,0,1,1.483-1.914Zm1.6,27.51-2.285-19.616c-6.949.969-11.064,5.67-10.454,10.837.574,4.844,3.218,7.6,12.739,8.744Zm3.684,4.007,2.308,19.819c7.177-.981,11.351-5.693,10.705-11.148-.574-4.988-3.445-7.715-13.014-8.708Z" transform="translate(-150.492 -124.399)" fill="#ffc727"/><rect width="94.756" height="48.083" transform="translate(249.699 203.266)" fill="#ffc727"/><ellipse cx="10.753" cy="10.753" rx="10.753" ry="10.753" transform="matrix(0.229, -0.973, 0.973, 0.229, 310.199, 235.307)" fill="#ebebeb"/><ellipse cx="5.885" cy="5.885" rx="5.885" ry="5.885" transform="translate(317.255 221.423)" fill="#dbdbdb"/><rect width="286.803" height="214.139" transform="translate(0.371 118.331)" fill="#ffc727"/><rect width="286.803" height="214.139" transform="translate(0.371 118.331)" opacity="0.1"/><path d="M405.692,142.152l28.611,129.3a13.408,13.408,0,0,1-10.179,15.968L219.039,332.871a13.384,13.384,0,0,1-15.968-10.2L174.448,193.321a12.475,12.475,0,0,1,9.485-14.868L390.86,132.667a12.487,12.487,0,0,1,14.832,9.485Z" transform="translate(-170.083 -131.925)" fill="#0a1633"/><path d="M364.4,241.175a12.32,12.32,0,1,1-14.7-9.378A12.32,12.32,0,0,1,364.4,241.175Z" transform="translate(-137.549 -112.486)" fill="#a6a6a6"/><path d="M376.793,238.426a12.32,12.32,0,1,1-14.7-9.377A12.32,12.32,0,0,1,376.793,238.426Z" transform="translate(-135.12 -113.026)" fill="#ffc727"/><rect width="44.459" height="30.728" rx="4.2" transform="matrix(0.976, -0.216, 0.216, 0.976, 26.021, 67.116)" fill="#ffc727"/><path d="M202.16,236.58l-1.543,1.435a.443.443,0,0,1-.2.12.466.466,0,0,1-.431-.132.431.431,0,0,1,0-.634l2.105-2.009a.466.466,0,0,1,.622,0,.514.514,0,0,1,.132.311l2.56,11.566a.442.442,0,0,1-.335.526.466.466,0,0,1-.538-.335Z" transform="translate(-165.045 -111.754)" fill="#f8f8f8"/><path d="M207.33,246.528l4.7-6.6a3.32,3.32,0,0,0-5.418-3.839l-.478.694a.448.448,0,0,1-.742-.5l.49-.718a4.317,4.317,0,0,1,2.548-1.675,4.218,4.218,0,0,1,4.342,6.555l-4.031,5.658,5.981-1.316a.454.454,0,0,1,.526.359.443.443,0,0,1-.335.526l-6.985,1.531h-.072a.419.419,0,0,1-.359-.06A.478.478,0,0,1,207.33,246.528Z" transform="translate(-163.972 -112.038)" fill="#f8f8f8"/><path d="M221.334,231.971l-2.512,4.067a4.367,4.367,0,0,1,3.732,6.722,4.4,4.4,0,0,1-2.751,1.926,4.258,4.258,0,0,1-3.277-.6.442.442,0,0,1-.144-.622.455.455,0,0,1,.634-.144,3.493,3.493,0,0,0,4.785-1.053,3.421,3.421,0,0,0,.466-2.619,3.457,3.457,0,0,0-4.115-2.608.478.478,0,0,1-.395-.108h0a.455.455,0,0,1-.144-.646l2.392-3.911-4.784,1.065a.46.46,0,1,1-.2-.9l5.885-1.3a.466.466,0,0,1,.55.359.382.382,0,0,1,0,.2.691.691,0,0,1-.12.168Z" transform="translate(-162.139 -112.54)" fill="#f8f8f8"/><path d="M231.986,239.232l-6.818,1.507h0a.371.371,0,0,1-.3,0,.419.419,0,0,1-.179-.6l5.275-10.681h0a.431.431,0,0,1,.6-.191.587.587,0,0,1,.191.191s0,0,0,.06v.06l1.914,8.636.837-.191a.455.455,0,0,1,.55.335.443.443,0,0,1-.359.526l-.837.191.478,2.165a.455.455,0,0,1-.885.191Zm-.191-.861L230.168,231l-4.33,8.72Z" transform="translate(-160.184 -112.936)" fill="#f8f8f8"/><path d="M244.521,237.9a.431.431,0,0,1-.132-.622.454.454,0,0,1,.646-.144,3.453,3.453,0,0,0,5.2-3.672,3.385,3.385,0,0,0-4.091-2.619,3.421,3.421,0,0,0-2.177,1.519.443.443,0,0,1-.622.143.346.346,0,0,1-.143-.12h0a.408.408,0,0,1,0-.144.251.251,0,0,0,0-.1l-.514-5.2a.419.419,0,0,1,.108-.359.407.407,0,0,1,.263-.179l5.873-1.292a.459.459,0,1,1,.191.9l-5.478,1.2.371,3.851a4.366,4.366,0,0,1,6.638,5.562,4.521,4.521,0,0,1-2.751,1.914A4.39,4.39,0,0,1,244.521,237.9Z" transform="translate(-156.643 -113.742)" fill="#f8f8f8"/><path d="M252.725,227a5.227,5.227,0,0,1,3.792-3.708.454.454,0,0,1,.55.323.49.49,0,0,1-.335.562,4.342,4.342,0,0,0-3.158,3.1,8.373,8.373,0,0,0-.347,2.715,4.234,4.234,0,1,1-.407,3.11,5.969,5.969,0,0,1-.215-.825A10.514,10.514,0,0,1,252.725,227Zm.957,5.825a.816.816,0,0,0,.1.227.263.263,0,0,1,0,.132,3.4,3.4,0,1,0-.12-.431Z" transform="translate(-154.752 -114.1)" fill="#f8f8f8"/><path d="M264.876,234.079l2.2-12.069-6.064,1.376a.443.443,0,0,1-.191-.861l6.662-1.471a.49.49,0,0,1,.263,0,.515.515,0,0,1,.3.215c0,.06.06.084.072.144a.455.455,0,0,1,0,.251l-2.308,12.655a.467.467,0,0,1-.335.359.347.347,0,0,1-.191,0,.49.49,0,0,1-.407-.6Z" transform="translate(-153.148 -114.54)" fill="#f8f8f8"/><path d="M272.728,219.631a2.679,2.679,0,0,1,2.6,4.39,4.174,4.174,0,1,1-3.122.694,2.739,2.739,0,0,1-1.507-1.89,2.667,2.667,0,0,1,2.033-3.194Zm2.6,11.734a3.277,3.277,0,1,0-2.493-.433,3.3,3.3,0,0,0,2.493.433ZM273.7,224.02a1.818,1.818,0,0,0,1.364-2.165,1.795,1.795,0,1,0-3.5.777,1.818,1.818,0,0,0,2.141,1.387Z" transform="translate(-151.203 -114.828)" fill="#f8f8f8"/><path d="M291.612,215.5a4.246,4.246,0,0,1,4.952,2.763s0,0,0,.072c.1.347.191.694.275,1.076a10.694,10.694,0,0,1-.1,5.287,5.3,5.3,0,0,1-3.8,3.708h0a.419.419,0,0,1-.538-.311.455.455,0,0,1,.323-.562,4.378,4.378,0,0,0,3.17-3.1,8.182,8.182,0,0,0,.335-2.715,4.258,4.258,0,1,1-4.653-6.22Zm4.21,3.409a3.361,3.361,0,1,0-.454,2.537,3.361,3.361,0,0,0,.454-2.537Z" transform="translate(-147.708 -115.646)" fill="#f8f8f8"/><path d="M298.418,220.584a8.216,8.216,0,0,1,.227-4.665,3.66,3.66,0,0,1,6.3-1.4,8.469,8.469,0,0,1,2.2,4.139,8.3,8.3,0,0,1-.263,4.665,3.588,3.588,0,0,1-6.292,1.387A8.061,8.061,0,0,1,298.418,220.584Zm.885-.191a7.381,7.381,0,0,0,1.926,3.672A2.739,2.739,0,0,0,306.014,223a7.763,7.763,0,0,0-1.734-7.811,2.739,2.739,0,0,0-4.784,1.065,7.3,7.3,0,0,0-.191,4.139Z" transform="translate(-145.759 -116.068)" fill="#f8f8f8"/><path d="M309.989,212.721l-1.543,1.435a.442.442,0,0,1-.2.12.467.467,0,0,1-.431-.132.443.443,0,0,1,0-.634l2.105-2.009a.443.443,0,0,1,.622,0,.514.514,0,0,1,.131.311l2.56,11.566a.442.442,0,0,1-.335.526.454.454,0,0,1-.526-.335Z" transform="translate(-143.898 -116.434)" fill="#f8f8f8"/><path d="M315.2,222.668l4.7-6.614a3.3,3.3,0,0,0,.55-2.643,3.321,3.321,0,0,0-3.947-2.5,3.313,3.313,0,0,0-2.009,1.3l-.49.694a.44.44,0,1,1-.73-.49l.478-.718a4.318,4.318,0,0,1,2.548-1.675,4.217,4.217,0,0,1,4.342,6.555l-4.031,5.658,5.98-1.316a.454.454,0,0,1,.526.359.443.443,0,0,1-.335.526l-7.009,1.555H315.7a.419.419,0,0,1-.359,0,.478.478,0,0,1-.144-.694Z" transform="translate(-142.817 -116.717)" fill="#f8f8f8"/><path d="M338.19,206.122l-2.512,4.067a4.375,4.375,0,0,1,.969,8.648,4.258,4.258,0,0,1-3.277-.6.442.442,0,0,1-.143-.622.454.454,0,0,1,.634-.144,3.457,3.457,0,1,0,1.112-6.28.467.467,0,0,1-.395-.108h0a.478.478,0,0,1-.144-.646l2.392-3.923-4.784,1.077a.466.466,0,0,1-.55-.359.454.454,0,0,1,.347-.55l5.885-1.292a.455.455,0,0,1,.55.347.382.382,0,0,1,0,.2.7.7,0,0,1-.084.179Z" transform="translate(-139.23 -117.61)" fill="#f8f8f8"/><path d="M348.845,213.381l-6.818,1.507h-.06a.406.406,0,0,1-.287,0,.431.431,0,0,1-.191-.6l5.287-10.681h0a.431.431,0,0,1,.6-.179.551.551,0,0,1,.191.179.391.391,0,0,0,0,.072h0l1.914,8.636.837-.191a.447.447,0,0,1,.191.873l-.837.179.467,2.165a.443.443,0,0,1-.347.526.431.431,0,0,1-.526-.335Zm-.191-.873-1.639-7.368-4.318,8.7Z" transform="translate(-137.278 -118.003)" fill="#f8f8f8"/><path d="M352.351,214.038a.455.455,0,0,1-.132-.634.478.478,0,0,1,.646-.144,3.433,3.433,0,0,0,2.584.454,3.469,3.469,0,0,0,2.619-4.115,3.433,3.433,0,0,0-6.256-1.1.455.455,0,0,1-.634.144.478.478,0,0,1-.143-.12h0a.4.4,0,0,1,0-.144.252.252,0,0,0,0-.1l-.514-5.2a.495.495,0,0,1,.371-.538l5.873-1.292a.459.459,0,0,1,.191.9l-5.478,1.2.371,3.84a4.366,4.366,0,0,1,2.021-1.041,4.234,4.234,0,0,1,3.277.574,4.186,4.186,0,0,1,1.9,2.751,4.318,4.318,0,0,1-.562,3.289,4.521,4.521,0,0,1-2.751,1.914,4.39,4.39,0,0,1-3.385-.634Z" transform="translate(-135.497 -118.421)" fill="#f8f8f8"/><path d="M360.555,203.14a5.239,5.239,0,0,1,3.8-3.708.442.442,0,0,1,.538.311.49.49,0,0,1-.335.574A4.342,4.342,0,0,0,361.4,203.4a8.493,8.493,0,0,0-.347,2.727,4.21,4.21,0,0,1,2.8-2.117,4.258,4.258,0,1,1-3.206,5.227,6,6,0,0,1-.215-.825A10.657,10.657,0,0,1,360.555,203.14Zm.969,5.825a.644.644,0,0,0,.084.227.264.264,0,0,1,0,.132,3.4,3.4,0,1,0-.12-.431Z" transform="translate(-133.605 -118.779)" fill="#f8f8f8"/><rect width="112.47" height="5.526" transform="matrix(0.976, -0.216, 0.216, 0.976, 45.995, 157.38)" fill="#a6a6a6"/><rect width="79.625" height="5.526" transform="matrix(0.976, -0.216, 0.216, 0.976, 48.645, 169.358)" fill="#a6a6a6"/><rect width="56.085" height="5.526" transform="matrix(0.976, -0.216, 0.216, 0.976, 172.494, 52.443)" fill="#a6a6a6"/><rect width="250.369" height="73.285" transform="translate(18.587 144.693)" fill="#ffc727"/><rect width="250.369" height="73.285" transform="translate(18.587 144.693)" opacity="0.3"/><path d="M428.639,253.487l.347,132.433a13.42,13.42,0,0,1-13.361,13.444l-210.048.538a13.384,13.384,0,0,1-13.42-13.372l-.347-132.373a12.463,12.463,0,0,1,12.44-12.5L416.128,241a12.475,12.475,0,0,1,12.511,12.487Z" transform="translate(-166.62 -110.624)" fill="#dbdbdb"/><path d="M365.564,348.646a12.332,12.332,0,1,1-12.368-12.3,12.332,12.332,0,0,1,12.368,12.3Z" transform="translate(-137.382 -91.926)" fill="#a6a6a6"/><path d="M378.254,348.606a12.332,12.332,0,1,1-12.368-12.3,12.332,12.332,0,0,1,12.368,12.3Z" transform="translate(-134.894 -91.933)" fill="#ffc727"/><rect width="44.459" height="30.728" rx="4.2" transform="translate(45.12 153.692) rotate(-0.15)" fill="#ffc727"/><path d="M371.683,276.927l-20.119.06a8.373,8.373,0,0,1-8.445-8.373h0a8.373,8.373,0,0,1,8.373-8.445l20.118-.06a8.373,8.373,0,0,1,8.445,8.373h0a8.373,8.373,0,0,1-8.373,8.444Z" transform="translate(-136.947 -106.877)" fill="#fff"/><path d="M207.639,309.8l-1.818,1.077a.467.467,0,0,1-.215.072.442.442,0,0,1-.395-.215.431.431,0,0,1,.167-.61l2.488-1.519a.454.454,0,0,1,.6.167.466.466,0,0,1,.06.335v11.841a.443.443,0,0,1-.443.443.455.455,0,0,1-.443-.443Z" transform="translate(-164.005 -97.376)" fill="#f8f8f8"/><path d="M210.662,320.6l5.981-5.454a3.319,3.319,0,0,0-4.473-4.9l-.622.574a.431.431,0,0,1-.634,0,.419.419,0,0,1,0-.622l.622-.586a4.282,4.282,0,0,1,2.847-1.1,4.115,4.115,0,0,1,3.1,1.376,4.066,4.066,0,0,1,1.112,2.823,4.235,4.235,0,0,1-1.364,3.134l-5.155,4.665h6.2a.455.455,0,0,1,0,.909H211.02a.407.407,0,0,1-.335-.132.479.479,0,0,1-.024-.682Z" transform="translate(-162.949 -97.385)" fill="#f8f8f8"/><path d="M227.448,309.275l-3.325,3.421a4.368,4.368,0,0,1,2.213,7.368,4.39,4.39,0,0,1-3.1,1.292,4.306,4.306,0,0,1-3.074-1.28.431.431,0,0,1,0-.646.455.455,0,0,1,.646,0,3.468,3.468,0,0,0,2.392.993,3.588,3.588,0,0,0,2.392-1,3.451,3.451,0,0,0-2.452-5.885.514.514,0,0,1-.371-.191h0a.455.455,0,0,1,0-.658l3.194-3.313h-4.94a.467.467,0,0,1,0-.921h5.981a.455.455,0,0,1,.455.455.347.347,0,0,1,0,.2.491.491,0,0,1-.012.167Z" transform="translate(-161.088 -97.397)" fill="#f8f8f8"/><path d="M236.518,318.671h-6.985a.383.383,0,0,1-.275-.1.419.419,0,0,1-.06-.622l7.44-9.306h0a.431.431,0,0,1,.622-.06.551.551,0,0,1,.155.227v8.971h.873a.443.443,0,0,1,0,.885h-.873v2.213a.455.455,0,0,1-.9,0Zm0-.885v-7.547l-6.076,7.559Z" transform="translate(-159.31 -97.391)" fill="#f8f8f8"/><path d="M248.841,320.006a.454.454,0,0,1,0-.646.478.478,0,0,1,.67,0,3.469,3.469,0,0,0,2.392.993,3.409,3.409,0,0,0,2.392-1.029,3.337,3.337,0,0,0,1-2.392,3.433,3.433,0,0,0-5.873-2.392.454.454,0,0,1-.646,0,.334.334,0,0,1-.12-.144h0a.322.322,0,0,1,0-.156.371.371,0,0,0,0-.084l.61-5.2a.4.4,0,0,1,.179-.335.454.454,0,0,1,.3-.108h5.981a.467.467,0,1,1,0,.921h-5.466l-.455,3.827a4.336,4.336,0,0,1,6.543,3.768,4.294,4.294,0,0,1-1.2,3.1,4.557,4.557,0,0,1-3.1,1.28,4.366,4.366,0,0,1-3.218-1.4Z" transform="translate(-155.473 -97.386)" fill="#f8f8f8"/><path d="M259.258,311.191a5.251,5.251,0,0,1,4.509-2.811.455.455,0,0,1,.467.419.49.49,0,0,1-.443.49,4.342,4.342,0,0,0-3.756,2.392,8.29,8.29,0,0,0-.909,2.584,4.234,4.234,0,1,1-1.065,2.942,6.452,6.452,0,0,1,0-.837,10.7,10.7,0,0,1,1.2-5.179Zm-.3,5.9a1.264,1.264,0,0,0,0,.239.407.407,0,0,1,0,.132,3.4,3.4,0,1,0,0-.443Z" transform="translate(-153.63 -97.411)" fill="#f8f8f8"/><path d="M269.428,320.616l4.784-11.327h-6.22a.455.455,0,0,1-.443-.443.443.443,0,0,1,.431-.443H274.8a.431.431,0,0,1,.275,0,.514.514,0,0,1,.251.275.732.732,0,0,1,0,.155.43.43,0,0,1-.072.239l-4.964,11.877a.455.455,0,0,1-.407.275.323.323,0,0,1-.179,0A.49.49,0,0,1,269.428,320.616Z" transform="translate(-151.767 -97.41)" fill="#f8f8f8"/><path d="M280.423,308.32a2.691,2.691,0,0,1,2.7,2.667,2.739,2.739,0,0,1-1.1,2.177,4.174,4.174,0,1,1-3.182,0,2.727,2.727,0,0,1-1.077-2.177,2.655,2.655,0,0,1,2.655-2.667Zm0,11.961a2.428,2.428,0,1,0,.036.048Zm0-7.512a1.842,1.842,0,0,0,1.806-1.83,1.794,1.794,0,1,0-1.806,1.83Z" transform="translate(-150.059 -97.422)" fill="#f8f8f8"/><path d="M299.608,308.278a4.246,4.246,0,0,1,4.246,3.744.225.225,0,0,0,0,.1v1.112a10.622,10.622,0,0,1-1.2,5.143,5.335,5.335,0,0,1-4.509,2.811h0a.442.442,0,0,1-.466-.431.478.478,0,0,1,.442-.478,4.366,4.366,0,0,0,3.756-2.392,7.909,7.909,0,0,0,.909-2.584,4.2,4.2,0,0,1-3.194,1.423,4.246,4.246,0,1,1,0-8.492Zm3.385,4.234a3.349,3.349,0,1,0-.985,2.384A3.373,3.373,0,0,0,302.993,312.512Z" transform="translate(-146.315 -97.44)" fill="#f8f8f8"/><path d="M305.231,314.707a8.252,8.252,0,0,1,1.2-4.521,3.66,3.66,0,0,1,6.447,0,8.708,8.708,0,0,1,0,9.007,3.588,3.588,0,0,1-6.447,0A8.109,8.109,0,0,1,305.231,314.707Zm.909,0a7.333,7.333,0,0,0,1.089,4,2.739,2.739,0,0,0,4.94,0,7.727,7.727,0,0,0,0-7.99,2.739,2.739,0,0,0-4.928,0,7.176,7.176,0,0,0-1.088,3.983Z" transform="translate(-144.378 -97.434)" fill="#f8f8f8"/><path d="M318.08,309.527l-1.818,1.065a.477.477,0,0,1-.215.084.455.455,0,0,1-.395-.227.419.419,0,0,1,.167-.61l2.476-1.519a.466.466,0,0,1,.61.168.478.478,0,0,1,.06.335v11.841a.443.443,0,0,1-.885,0Z" transform="translate(-142.348 -97.433)" fill="#f8f8f8"/><path d="M321.109,320.313l5.98-5.442a3.313,3.313,0,0,0-2.225-5.765,3.4,3.4,0,0,0-2.249.849l-.622.574a.431.431,0,0,1-.634,0,.419.419,0,0,1,0-.622l.622-.6a4.306,4.306,0,0,1,2.847-1.088,4.216,4.216,0,0,1,2.847,7.32l-5.155,4.677h6.1a.455.455,0,0,1,0,.909h-7.248a.406.406,0,0,1-.335-.132A.49.49,0,0,1,321.109,320.313Z" transform="translate(-141.298 -97.442)" fill="#f8f8f8"/><path d="M347.116,308.965l-3.325,3.433A4.368,4.368,0,0,1,346,319.766a4.342,4.342,0,0,1-6.172,0,.454.454,0,0,1,0-.646.443.443,0,0,1,.646,0,3.433,3.433,0,0,0,2.392.981,3.516,3.516,0,0,0,2.392-.993,3.469,3.469,0,0,0-2.392-5.9.43.43,0,0,1-.371-.179h0a.466.466,0,0,1,0-.658l3.194-3.313h-4.928a.461.461,0,1,1-.012-.921h5.98a.455.455,0,0,1,.467.455.348.348,0,0,1,0,.2A.263.263,0,0,1,347.116,308.965Z" transform="translate(-137.618 -97.458)" fill="#f8f8f8"/><path d="M356.226,318.36h-7.033a.335.335,0,0,1-.275-.084.419.419,0,0,1-.06-.622l7.44-9.306h0a.419.419,0,0,1,.622-.06.659.659,0,0,1,.143.227v8.971h.861a.443.443,0,0,1,0,.885h-.861v2.213a.442.442,0,0,1-.454.443.454.454,0,0,1-.443-.443Zm0-.885v-7.547l-6.136,7.607Z" transform="translate(-135.844 -97.451)" fill="#f8f8f8"/><path d="M359.272,319.723a.455.455,0,0,1,0-.646.478.478,0,0,1,.67,0,3.433,3.433,0,0,0,4.856,0,3.4,3.4,0,1,0-4.82-4.808.431.431,0,0,1-.646,0,.275.275,0,0,1-.12-.144h0a.132.132,0,0,1,0-.06.276.276,0,0,1,0-.144v-.1l.61-5.2A.383.383,0,0,1,360,308.3a.4.4,0,0,1,.3-.12h5.981a.466.466,0,1,1,0,.921h-5.61l-.455,3.84a4.342,4.342,0,0,1,6.543,3.756,4.294,4.294,0,0,1-1.256,3.1,4.449,4.449,0,0,1-3.1,1.28,4.366,4.366,0,0,1-3.134-1.352Z" transform="translate(-133.806 -97.451)" fill="#f8f8f8"/><path d="M369.7,310.913a5.239,5.239,0,0,1,4.509-2.823.455.455,0,0,1,.455.431.466.466,0,0,1-.431.478,4.366,4.366,0,0,0-3.756,2.392,8.612,8.612,0,0,0-.921,2.584,4.246,4.246,0,1,1-1.053,2.954,6.567,6.567,0,0,1,0-.849,10.682,10.682,0,0,1,1.2-5.167Zm-.3,5.885a1.253,1.253,0,0,0,0,.239.405.405,0,0,1,0,.132,3.4,3.4,0,1,0,0-.443Z" transform="translate(-131.972 -97.468)" fill="#f8f8f8"/><rect width="112.47" height="5.526" transform="translate(45.374 246.127) rotate(-0.15)" fill="#a6a6a6"/><rect width="79.625" height="5.526" transform="translate(45.394 258.411) rotate(-0.15)" fill="#a6a6a6"/><rect width="56.085" height="5.526" transform="translate(142.303 153.426) rotate(-0.15)" fill="#a6a6a6"/><rect width="250.369" height="122.709" transform="translate(18.587 168.185)" fill="#ffc727"/><rect width="250.369" height="122.709" transform="translate(18.587 168.185)" opacity="0.2"/><rect width="250.369" height="122.709" transform="translate(18.587 189.99)" fill="#ffc727"/><rect width="250.369" height="122.709" transform="translate(18.587 189.99)" opacity="0.3"/><rect width="250.369" height="100.234" transform="translate(18.587 212.476)" fill="#ffc727"/><rect width="250.369" height="100.234" transform="translate(18.587 212.476)" opacity="0.2"/><path d="M431.919,482.182,171.06,445.1V231l8.373,6.2a27.954,27.954,0,0,0,13.743,5.371l238.743,25.513Z" transform="translate(-170.689 -112.585)" fill="#ffb500"/><rect width="1.196" height="2.392" transform="translate(0 128.476) rotate(-51.97)" fill="#fff"/><path d="M414.27,275.546l-4.784-.538.132-1.2,4.784.538Zm-8.444-.945-4.784-.538.132-1.2,4.784.538Zm-8.445-.945-4.784-.538.132-1.2,4.784.55Zm-8.445-.945-4.784-.538.132-1.2,4.784.538Zm-8.444-.945-4.784-.538.132-1.2,4.784.538Zm-8.373-.945-4.784-.538.132-1.2,4.784.538Zm-8.445-.933-4.784-.55.132-1.2,4.784.538Zm-8.444-.945-4.784-.538.132-1.2,4.784.538ZM346.786,268,342,267.46l.132-1.2,4.784.538Zm-8.432-.945-4.784-.538.132-1.2,4.784.538Zm-8.445-.945-4.784-.538.144-1.2,4.784.538Zm-8.445-.945-4.784-.538.132-1.2,4.784.538Zm-8.445-.945-4.784-.538.132-1.2,4.784.538Zm-8.445-.933-4.784-.55.132-1.2,4.784.538Zm-8.48-.9-4.785-.538.132-1.2,4.785.538Zm-8.444-.945-4.784-.538.132-1.2,4.784.538Zm-8.445-.945-4.784-.538.132-1.2,4.784.55Zm-8.445-.945-4.784-.538.132-1.2,4.784.538Zm-8.4-.993-4.784-.538.132-1.2,4.784.538Zm-8.433-.945-4.784-.538.144-1.2,4.784.538Zm-8.444-.933-4.784-.55.132-1.2,4.784.538Zm-8.445-.945-4.784-.538.132-1.2,4.784.538Zm-8.445-.945-4.784-.538.132-1.2,4.784.538Zm-8.373-.945-4.784-.538.132-1.2,4.784.538Zm-8.445-.945L207,252.365l.144-1.2,4.784.538Zm-8.445-.945-4.784-.538.132-1.2,4.784.538Zm-8.444-.945-2.871-.311c-.67-.084-1.328-.179-1.986-.3l.215-1.2c.634.108,1.268.2,1.9.275l2.871.323Zm-8.456-1.507a29.984,29.984,0,0,1-4.569-1.914l.562-1.064a27.512,27.512,0,0,0,4.378,1.83Zm-7.8-3.863c-.395-.287-.789-.574-1.2-.873l-2.691-2.105.73-.945,2.691,2.105c.371.287.754.562,1.136.837Z" transform="translate(-169.966 -110.483)" fill="#fff"/><path d="M381.08,272.593h-1.2V270.74l-1.854-.215.132-1.184,2.918.323Z" transform="translate(-130.101 -105.067)" fill="#fff"/><path d="M380.776,457.845h-1.2V453h1.2Zm0-8.48h-1.2v-4.844h1.2Zm0-8.468h-1.2v-4.844h1.2Zm0-8.468h-1.2v-4.844h1.2Zm0-8.48h-1.2v-4.784h1.2Zm0-8.468h-1.2v-4.844h1.2Zm0-8.468h-1.2v-4.844h1.2Zm0-8.48h-1.2v-4.784h1.2Zm0-8.468h-1.2v-4.844h1.2Zm0-8.468h-1.2v-4.844h1.2Zm0-8.468h-1.2v-4.856h1.2Zm0-8.48h-1.2V359.86h1.2Zm0-8.468h-1.2v-4.844h1.2Zm0-8.468h-1.2v-4.844h1.2Zm0-8.48h-1.2v-4.784h1.2Zm0-8.468h-1.2v-4.844h1.2Zm0-8.468h-1.2v-4.844h1.2Zm0-8.48h-1.2v-4.784h1.2Zm0-8.468h-1.2V300.5h1.2Zm0-8.469h-1.2v-4.844h1.2Zm0-8.468h-1.2v-4.844h1.2Zm0-8.48h-1.2V275.14h1.2Z" transform="translate(-129.797 -103.929)" fill="#fff"/><path d="M381.082,434.006l-3.062-.455.18-1.184,1.686.251v-1.7h1.2Z" transform="translate(-130.103 -73.38)" fill="#fff"/><path d="M414.222,438.483l-4.784-.706.167-1.2,4.785.706Zm-8.373-1.2-4.784-.706.179-1.2,4.784.706Zm-8.373-1.2-4.784-.706.179-1.2,4.784.706Zm-8.373-1.2-4.784-.706.179-1.2,4.784.706Zm-8.373-1.2-4.784-.706.167-1.2,4.784.706Zm-8.373-1.2-4.784-.706.167-1.2,4.784.706Zm-8.373-1.2L359.2,430.6l.179-1.2,4.784.706Zm-8.373-1.2-4.784-.706.179-1.2,4.784.706Zm-8.373-1.2-4.784-.706.179-1.2,4.784.706Zm-8.373-1.2-4.784-.706.179-1.2,4.784.718Zm-8.373-1.2-4.784-.706.167-1.2,4.784.706Zm-8.373-1.2-4.784-.706.179-1.2,4.784.706Zm-8.373-1.2-4.785-.706.179-1.2,4.784.706Zm-8.373-1.2-4.784-.706.179-1.2,4.784.718Zm-8.373-1.2-4.784-.706.179-1.2,4.784.706Zm-8.373-1.2-4.784-.706.167-1.2,4.784.718Zm-8.373-1.2-4.784-.706.167-1.2,4.784.706Zm-8.373-1.2-4.784-.706.179-1.2,4.784.706Zm-8.373-1.2-4.784-.706.179-1.2,4.784.706Zm-8.373-1.2-4.784-.706.179-1.2,4.784.718Zm-8.373-1.2-4.784-.706.167-1.2,4.784.706Zm-8.373-1.2-4.784-.706.179-1.2,4.784.718Zm-8.373-1.2-4.784-.706.179-1.2,4.785.706Zm-8.373-1.2-4.784-.706.179-1.2,4.784.718Zm-8.373-1.2-4.784-.706.179-1.2,4.784.706Zm-8.373-1.2-4.784-.706.167-1.2,4.784.718Zm-8.373-1.2-4.784-.706.179-1.2,4.784.706Zm-8.373-1.2-4.784-.706.179-1.2,4.784.718Zm-8.373-1.2L175,404.286l.179-1.2,4.784.706Z" transform="translate(-169.917 -78.837)" fill="#fff"/><rect width="1.198" height="2.395" transform="translate(1.318 324.681) rotate(-81.384)" fill="#fff"/><ellipse cx="10.394" cy="11.841" rx="10.394" ry="11.841" transform="translate(217.201 249.424)" fill="#ebebeb"/><path d="M366.674,351.332a4.88,4.88,0,1,1-4.844-5.5,5.2,5.2,0,0,1,4.844,5.5Z" transform="translate(-134.234 -90.067)" fill="#dbdbdb"/><text transform="translate(191.199 38.031) rotate(-11)" fill="#fff" font-size="11" font-family="SegoeUI-Bold, Segoe UI" font-weight="700"><tspan x="0" y="0">qcoin</tspan></text><g transform="translate(167.12 32.718) rotate(-11)"><ellipse cx="9.049" cy="8.597" rx="9.049" ry="8.597" transform="translate(0 0)" fill="#fff"/><g transform="translate(3.295 3.218)"><g transform="translate(0 0)"><g clip-path="url(#a)"><path d="M6.613,10.166a5.185,5.185,0,1,1,3.549-3.538L6.951,3.416A2.5,2.5,0,0,0,3.416,6.951Z" transform="translate(0 0)" fill="#0d1c3e"/></g></g><path d="M4.716,4.716a1.405,1.405,0,0,0,0-1.987L2.4.412A1.405,1.405,0,0,0,.412,2.4L2.729,4.716a1.405,1.405,0,0,0,1.987,0" transform="translate(5.399 5.413)" fill="#ffb500"/></g></g></g><g transform="translate(19.788 0)"><path d="M348.461,392.883c49.591,8.9,36.493,82.352-13.157,73.441S298.8,383.972,348.461,392.883Z" transform="translate(-8.135 11.377)" fill="#ffc727"/><path d="M348.461,392.883c49.591,8.9,36.493,82.352-13.157,73.441S298.8,383.972,348.461,392.883Z" transform="translate(-8.135 11.377)" opacity="0.2"/><path d="M344.289,392.171c47.258,8.48,34.149,81.933-13.157,73.441S296.947,383.726,344.289,392.171Z" transform="translate(-8.616 11.252)" fill="#ffc727"/><path d="M344.289,392.171c47.258,8.48,34.149,81.933-13.157,73.441S296.947,383.726,344.289,392.171Z" transform="translate(-8.616 11.252)" opacity="0.1"/><path d="M306.71,429.525c.251,13.085,7.87,25.764,24.508,28.707,39.28,7.057,50.153-53.92,10.932-61-.251,0-.5-.1-.766-.12,36.78,7.356,26.231,65.056-11.219,58.334C314.891,452.789,307.523,441.5,306.71,429.525Z" transform="translate(-7.603 12.353)" opacity="0.1"/><g transform="translate(311.919 417.217)" opacity="0.1"><path d="M338.663,403.661a1.256,1.256,0,0,1,.909,1.507l-.5,2.021a17.02,17.02,0,0,1,8.1,5.765,1.435,1.435,0,0,1,.407,1.34,1.316,1.316,0,0,1-1.615.921,1.2,1.2,0,0,1-.825-.574,14.761,14.761,0,0,0-6.746-5.155l-3.528,14.1c7.26,3.529,9.772,7.177,8.54,12.141-1.34,5.347-6.77,8-13.157,6.638l-.981,3.923a1.233,1.233,0,0,1-2.392-.6l.993-3.983a19.545,19.545,0,0,1-10.119-7.715,1.316,1.316,0,1,1,2.105-1.567,16.806,16.806,0,0,0,8.684,7.045l3.588-14.353c-7.177-3.588-9.569-7.1-8.373-12.14s6.674-7.87,12.858-6.483l.478-1.914a1.2,1.2,0,0,1,1.579-.921Zm-5.885,18.875,3.433-13.755c-4.916-1.124-8.863.993-9.772,4.629-.849,3.421.227,5.945,6.339,9.126Zm1.447,3.588-3.469,13.911c5.071,1.2,9.078-.945,10.035-4.784.861-3.433-.371-5.993-6.567-9.09Z" transform="translate(-317.422 -403.592)"/></g><path d="M246.572,54.78c-49.746,0-49.83,70.75,0,70.75S296.4,54.78,246.572,54.78Z" transform="translate(-26.719 -54.78)" fill="#ffc727"/><path d="M246.572,54.78c-49.746,0-49.83,70.75,0,70.75S296.4,54.78,246.572,54.78Z" transform="translate(-26.719 -54.78)" opacity="0.1"/><path d="M275.782,95.8c-2.655,12.164-12.738,22.726-30.262,22.726-41.349,0-41.278-58.717,0-58.717h.813c-38.85.718-38.658,56.325.766,56.325C263.187,116.147,272.767,106.841,275.782,95.8Z" transform="translate(-25.679 -53.794)" opacity="0.1"/><path d="M90.868,158.34c36.218,6.507,26.649,60.152-9.569,53.645S54.59,151.833,90.868,158.34Z" transform="translate(-56.292 -34.578)" fill="#ffc727"/><path d="M90.868,158.34c36.218,6.507,26.649,60.152-9.569,53.645S54.59,151.833,90.868,158.34Z" transform="translate(-56.292 -34.578)" opacity="0.2"/><path d="M87.822,157.821c34.508,6.2,24.939,59.805-9.569,53.645S53.243,151.626,87.822,157.821Z" transform="translate(-56.643 -34.67)" fill="#ffc727"/><path d="M87.822,157.821c34.508,6.2,24.939,59.805-9.569,53.645S53.243,151.626,87.822,157.821Z" transform="translate(-56.643 -34.67)" opacity="0.1"/><path d="M60.38,185.091c.191,9.569,5.753,18.827,17.942,21,28.707,5.143,36.625-39.388,7.99-44.519l-.562-.1c26.853,5.383,19.138,47.521-8.193,42.605C66.361,202.088,60.978,193.835,60.38,185.091Z" transform="translate(-55.91 -33.855)" opacity="0.1"/><g transform="translate(14.154 131.608)" opacity="0.1"><path d="M82.714,164.834a.921.921,0,0,1,.73,1.053l-.275,1.543a12.4,12.4,0,0,1,6.148,3.851,1.041,1.041,0,0,1,.359.957.957.957,0,0,1-1.2.742.873.873,0,0,1-.622-.383,10.956,10.956,0,0,0-5.143-3.469l-1.95,10.442c5.442,2.261,7.44,4.784,6.758,8.48-.742,3.959-4.581,6.136-9.27,5.418l-.538,2.907a.913.913,0,0,1-1.794-.335l.55-2.942a14.353,14.353,0,0,1-7.715-5.191.945.945,0,0,1-.263-.849.993.993,0,0,1,1.1-.765.933.933,0,0,1,.622.383,12.272,12.272,0,0,0,6.638,4.784l1.986-10.621c-5.371-2.273-7.3-4.784-6.6-8.492s4.521-5.981,9.09-5.287l.263-1.411a.921.921,0,0,1,1.124-.813Zm-3.457,14.018,1.89-10.227c-3.588-.61-6.423,1.112-6.925,3.8S74.653,176.795,79.258,178.852Zm1.2,2.584L78.54,191.722c3.744.622,6.567-1.088,7.1-3.923.49-2.572-.526-4.39-5.179-6.363Z" transform="translate(-68.476 -164.81)"/></g></g></g></g></svg>