<svg xmlns="http://www.w3.org/2000/svg" xmlns:xlink="http://www.w3.org/1999/xlink" width="576.608" height="587.901" viewBox="0 0 576.608 587.901"><defs><clipPath id="a"><rect width="10.227" height="10.24" fill="#0d1c3e"/></clipPath></defs><g transform="translate(-1068.258 -1791.082)"><g transform="translate(1068.258 1791.083)"><path d="M71.076,212.225s-37,95.553,15,191.77,159.1,147.046,244.816,190.509,174.73,22.3,217.026-48.891-15.713-122-15.793-223.515,15.2-128.387-39.814-214.146S302.448,3.2,200.471,66.812,71.076,212.225,71.076,212.225Z" transform="translate(-27.413 -29.116)" fill="#acc8ff" opacity="0.7"/><path d="M163.722,550.784c31.32,33.072,108.214,20.955,141.525,0C413.408,482.769,602.9,369.538,611.482,205.5c3.65-69.714-57.836-106.33-83.516-117.066C466.307,62.639,398.624,54.9,331.8,51.916c-69.767-3.119-144.657-.69-207.444,33.351C100.55,98.153,78.1,114.729,62.727,137.29,47.12,160.223,38.136,187.535,35.747,215.1c-3.835,44.459,8.122,89.037,26.211,129.833S104.16,423.5,126.3,462.251C140.749,487.507,137.392,522.928,163.722,550.784Z" transform="translate(-35.03 -21.984)" fill="#acc8ff"/><path d="M163.722,550.784c31.32,33.072,108.214,20.955,141.525,0C413.408,482.769,602.9,369.538,611.482,205.5c3.65-69.714-57.836-106.33-83.516-117.066C466.307,62.639,398.624,54.9,331.8,51.916c-69.767-3.119-144.657-.69-207.444,33.351C100.55,98.153,78.1,114.729,62.727,137.29,47.12,160.223,38.136,187.535,35.747,215.1c-3.835,44.459,8.122,89.037,26.211,129.833S104.16,423.5,126.3,462.251C140.749,487.507,137.392,522.928,163.722,550.784Z" transform="translate(-35.03 -21.984)" fill="#acc8ff" opacity="0.7"/></g><g transform="translate(1152.146 1833.745)"><g transform="translate(0)"><path d="M316.142,381.1H445.848l4.172-82.309H311.97Z" transform="translate(-37.44 3.747)" fill="#ebebeb"/><path d="M436.234,336.354H322.02L320.45,307.78H438.077Zm-113.273-1.013H435.292l1.7-26.549h-115.5Z" transform="translate(-37.334 3.86)" fill="#dbdbdb"/><path d="M434.65,368.789H325.3L324,343H436.26Zm-108.443-1.013H433.7l1.478-23.764H325.013Z" transform="translate(-37.289 4.301)" fill="#dbdbdb"/><path d="M391.681,325.085h-24.22l-.891-6.885h26Zm-23.288-1.013h22.438l.628-4.86H367.765Z" transform="translate(-36.755 3.99)" fill="#dbdbdb"/><path d="M391.681,359.225h-24.22l-.891-6.9h26Zm-23.288-1.013h22.438l.628-4.87H367.765Z" transform="translate(-36.755 4.418)" fill="#dbdbdb"/><path d="M333.958,380.08l-1.256,8.971-2.531,18.013H325.21V380.08Z" transform="translate(-37.274 4.766)" fill="#ebebeb"/><path d="M333.958,380.08l-1.256,8.971H325.21V380.08Z" transform="translate(-37.274 4.766)" fill="#dbdbdb"/><path d="M426.43,380.08l1.256,8.971,2.531,18.013h4.961V380.08Z" transform="translate(-36.005 4.766)" fill="#ebebeb"/><path d="M426.43,380.08l1.256,8.971h7.493V380.08Z" transform="translate(-36.005 4.766)" fill="#dbdbdb"/><path d="M82.928,327.207l-13.285.273L62.9,327.6c-2.258,0-4.526,0-6.784.051h-.446v-.446l-.061-11.33v-.516h.506l13.406.061c4.475,0,8.941.111,13.406.162h.284v.273c0,1.914-.091,3.827-.132,5.721Zm0,0-.142-5.731c0-1.883-.111-3.746-.132-5.6l.273.273c-4.465.051-8.931.162-13.406.162l-13.406.071.506-.506v11.33l-.456-.456c2.207,0,4.415,0,6.632.051l6.663.122Z" transform="translate(-40.655 3.955)" fill="#ebebeb"/><path d="M68.158,341.316l-13.285.273-6.744.121c-2.258,0-4.526,0-6.784.051H40.9v-.446l-.061-11.31v-.516h.506l13.406.061c4.465,0,8.941.111,13.406.162h.284v.294c0,1.914-.081,3.827-.132,5.721Zm0,0-.142-5.731c-.051-1.883-.111-3.746-.132-5.6l.273.273c-4.465.051-8.941.162-13.406.162l-13.406.061.506-.5-.051,11.33-.456-.456h6.632l6.663.121Z" transform="translate(-40.84 4.132)" fill="#ebebeb"/><path d="M406.838,202.637l-13.285.284-6.743.111c-2.258.051-4.526,0-6.784.061h-.446v-.456l-.061-11.33V190.8h.506l13.406.071c4.475,0,8.941.111,13.406.162h.284v.273c0,1.924-.091,3.838-.142,5.731Zm0,0-.142-5.721c0-1.883-.111-3.757-.132-5.609l.273.284c-4.465,0-8.931.152-13.406.162l-13.426.061.506-.506v11.33l-.456-.446h6.632l6.663.111Z" transform="translate(-36.593 2.393)" fill="#ebebeb"/><path d="M392.068,216.746l-13.284.283-6.693.122c-2.258,0-4.526,0-6.784.061h-.445v-.456l-.051-11.33v-.506h.506l13.406.071c4.465,0,8.941.111,13.406.162h.213v.273c0,1.924-.081,3.838-.132,5.731Zm0,0-.142-5.721c0-1.883-.111-3.757-.132-5.609l.273.283c-4.465.051-8.941.152-13.406.162l-13.406.061.506-.506-.051,11.33-.456-.446c2.207,0,4.415,0,6.632.051l6.663.111Z" transform="translate(-36.777 2.57)" fill="#ebebeb"/><path d="M377.338,202.637l-13.295.284-6.743.111c-2.248.051-4.516,0-6.774.061h-.456V190.8h.516l13.406.071c4.465,0,8.931.111,13.406.162h.273v.273c0,1.924-.091,3.838-.132,5.731Zm0,0-.142-5.721c-.051-1.883-.121-3.757-.142-5.609l.284.284c-4.475,0-8.941.152-13.406.162l-13.406.061.506-.506-.02,11.33-.446-.446h6.622l6.663.111Z" transform="translate(-36.962 2.393)" fill="#ebebeb"/><path d="M459,341.316l-13.295.273-6.743.121c-2.248,0-4.516,0-6.774.051h-.456v-.446l-.051-11.31v-.516h.506l13.406.061c4.465,0,8.941.111,13.406.162h.273v.294c0,1.914-.081,3.827-.132,5.721Zm0,0-.142-5.731c0-1.883-.122-3.746-.132-5.6l.273.273c-4.465.051-8.941.162-13.406.162l-13.406.061.506-.5-.061,11.33-.445-.456h6.622l6.663.121Z" transform="translate(-35.939 4.132)" fill="#ebebeb"/><path d="M444.227,67.637l-13.295.273-6.743.122c-2.248,0-4.516,0-6.774.051H417V55.78h.516l13.406.061c4.465,0,8.931.111,13.406.162h.273v.273c0,1.924-.091,3.827-.132,5.721Zm0,0-.142-5.731c-.051-1.883-.121-3.746-.142-5.6l.284.273c-4.475,0-8.941.162-13.406.162l-13.406.071.506-.506-.061,11.33-.445-.456c2.207,0,4.4,0,6.622.061l6.662.111Z" transform="translate(-36.123 0.699)" fill="#ebebeb"/><path d="M459,81.747,445.7,82.02l-6.743.121c-2.248,0-4.516,0-6.774.051h-.456v-.446l-.051-11.33V69.9h.506l13.406.061c4.465,0,8.941.111,13.406.162h.273V70.4c0,1.914-.081,3.827-.132,5.721Zm0,0-.142-5.731c0-1.883-.122-3.746-.132-5.6l.273.273c-4.465,0-8.941.162-13.406.162l-13.406.071.506-.506-.061,11.33-.445-.456c2.207,0,4.415,0,6.622.061l6.663.111Z" transform="translate(-35.939 0.877)" fill="#ebebeb"/><path d="M82.928,67.637l-13.285.273-6.744.122c-2.258,0-4.526,0-6.784.051h-.446v-.456l-.061-11.32V55.79h.506l13.406.061c4.475,0,8.941.111,13.406.162h.284v.273c0,1.924-.091,3.827-.132,5.721Zm0,0-.142-5.731c0-1.883-.111-3.746-.132-5.6l.273.273c-4.465,0-8.931.162-13.406.162l-13.406.071.506-.506v11.33l-.506-.5c2.207,0,4.415,0,6.632.061l6.663.111Z" transform="translate(-40.655 0.7)" fill="#ebebeb"/><rect width="1.013" height="88.739" transform="translate(393.807)" fill="#c7c7c7"/><path d="M399.84,117.187l2.471,5.447h56.682l2.471-5.447L437.334,100.48H423.969Z" transform="translate(-36.338 1.26)" fill="#ebebeb"/><path d="M422.01,84.59l1.681,16.089h13.366l1.671-16.089Z" transform="translate(-36.06 1.061)" fill="#dbdbdb"/><path d="M399.84,116.98l2.481,5.447h56.672l2.471-5.447Z" transform="translate(-36.338 1.467)" fill="#dbdbdb"/><rect width="1.013" height="71.161" transform="translate(327.648)" fill="#c7c7c7"/><path d="M334.49,99.827l2.481,5.447h56.682l2.471-5.447L371.995,83.12H358.619Z" transform="translate(-37.158 1.042)" fill="#ebebeb"/><path d="M356.67,67.23l1.671,16.089h13.376l1.671-16.089Z" transform="translate(-36.88 0.843)" fill="#dbdbdb"/><path d="M334.5,99.62l2.471,5.447h56.682l2.471-5.447Z" transform="translate(-37.158 1.249)" fill="#dbdbdb"/><path d="M451.05,170.741l.2,78.573a7.959,7.959,0,0,1-7.928,7.979l-124.623.324a7.948,7.948,0,0,1-7.959-7.938l-.213-78.573a7.4,7.4,0,0,1,7.381-7.422l125.737-.324a7.4,7.4,0,0,1,7.4,7.381Z" transform="translate(-37.458 2.049)" fill="#dbdbdb"/><path d="M429.661,237.46a7.321,7.321,0,1,1-7.331-7.3,7.321,7.321,0,0,1,7.331,7.3Z" transform="translate(-36.148 2.886)" fill="#a6a6a6"/><path d="M438.551,237.43a7.311,7.311,0,1,1-7.331-7.29,7.31,7.31,0,0,1,7.331,7.29Z" transform="translate(-36.036 2.886)" fill="#ffc727"/><rect width="26.377" height="18.226" rx="4.2" transform="translate(284.902 179.205) rotate(-0.15)" fill="#ffc727"/><path d="M433.52,186.7H421.582a4.992,4.992,0,0,1-5.012-4.982h0a5,5,0,0,1,4.982-5.012H433.49a5,5,0,0,1,5.063,4.982h0a4.992,4.992,0,0,1-5.032,5.012Z" transform="translate(-36.128 2.216)" fill="#fff"/><path d="M321.358,211.429l-1.073.628a.243.243,0,0,1-.132.051.273.273,0,0,1-.233-.132.253.253,0,0,1,.1-.365l1.468-.9a.284.284,0,0,1,.365.1.324.324,0,0,1,0,.192v7.037a.263.263,0,1,1-.526,0Z" transform="translate(-37.341 2.642)" fill="#f8f8f8"/><path d="M323.731,217.829l3.574-3.24a2.025,2.025,0,0,0,.648-1.468,1.964,1.964,0,0,0-1.975-1.944,1.944,1.944,0,0,0-1.326.506l-.375.334a.253.253,0,0,1-.375,0,.243.243,0,0,1,0-.365l.375-.354a2.561,2.561,0,0,1,1.691-.648,2.495,2.495,0,0,1,1.681,4.344l-3.038,2.774h3.615a.273.273,0,0,1,0,.537h-4.3a.243.243,0,0,1-.2-.081.294.294,0,0,1,.01-.395Z" transform="translate(-37.294 2.642)" fill="#f8f8f8"/><path d="M334.715,211.1l-2.025,2.025a2.612,2.612,0,0,1,1.316.7,2.663,2.663,0,0,1,.759,1.833,2.592,2.592,0,0,1-4.425,1.853.273.273,0,0,1,.385-.385,2.029,2.029,0,1,0,1.438-3.463.263.263,0,0,1-.213-.111h0a.273.273,0,0,1,0-.395l1.893-1.954h-2.835a.263.263,0,0,1-.284-.263.273.273,0,0,1,.273-.284h3.574a.263.263,0,0,1,.273.263.213.213,0,0,1,0,.121A.192.192,0,0,1,334.715,211.1Z" transform="translate(-37.21 2.642)" fill="#f8f8f8"/><path d="M341.055,216.675h-4.182a.243.243,0,0,1-.162-.051.253.253,0,0,1,0-.375l4.4-5.518h0a.253.253,0,0,1,.365,0,.344.344,0,0,1,.091.132.2.2,0,0,0,0,.051v5.275h.516a.263.263,0,0,1,0,.527h-.516v1.316a.269.269,0,0,1-.537,0Zm0-.527v-4.475l-3.6,4.486Z" transform="translate(-37.131 2.642)" fill="#f8f8f8"/><path d="M350.491,217.474a.273.273,0,0,1,.385-.385,2.116,2.116,0,0,0,1.448.587,2.045,2.045,0,1,0-1.448-3.483.284.284,0,0,1-.385,0,.316.316,0,0,1-.071-.091h0a.253.253,0,0,1,0-.091.438.438,0,0,0,0-.051l.364-3.038a.243.243,0,0,1,.111-.192.223.223,0,0,1,.172-.071h3.564a.273.273,0,0,1,.273.273.263.263,0,0,1-.273.273H351.3l-.263,2.278a2.592,2.592,0,0,1,3.129,4.05,2.713,2.713,0,0,1-1.833.759A2.612,2.612,0,0,1,350.491,217.474Z" transform="translate(-36.958 2.642)" fill="#f8f8f8"/><path d="M357.679,212.231a3.119,3.119,0,0,1,2.673-1.671.263.263,0,0,1,.273.253.284.284,0,0,1-.263.284,2.6,2.6,0,0,0-2.228,1.4,5.263,5.263,0,0,0-.537,1.529,2.5,2.5,0,0,1,1.883-.871,2.531,2.531,0,1,1-2.511,2.623,2.828,2.828,0,0,1,0-.506A6.268,6.268,0,0,1,357.679,212.231Zm-.172,3.493a.525.525,0,0,0,0,.142.2.2,0,0,1,0,.081,2.025,2.025,0,1,0,0-.263Z" transform="translate(-36.876 2.64)" fill="#f8f8f8"/><path d="M364.734,217.82l2.815-6.723h-3.7a.263.263,0,0,1,0-.527h4.05a.293.293,0,0,1,.162,0,.273.273,0,0,1,.142.162.354.354,0,0,1-.051.233l-2.936,7.088a.273.273,0,0,1-.243.162.223.223,0,0,1-.111,0,.283.283,0,0,1-.132-.395Z" transform="translate(-36.793 2.64)" fill="#f8f8f8"/><path d="M372.2,210.52a1.58,1.58,0,0,1,.942,2.866,2.471,2.471,0,1,1-1.883,0,1.6,1.6,0,0,1-.638-1.286,1.57,1.57,0,0,1,1.58-1.58Zm0,7.088a.93.93,0,1,0,.01.041Zm0-4.465a1.094,1.094,0,0,0,1.073-1.083,1.068,1.068,0,1,0-1.073,1.124Z" transform="translate(-36.716 2.64)" fill="#f8f8f8"/><path d="M385.632,210.48a2.531,2.531,0,0,1,2.521,2.228h0v.658a6.4,6.4,0,0,1-.719,3.038,3.149,3.149,0,0,1-2.673,1.671h0a.263.263,0,0,1-.273-.253.284.284,0,0,1,.263-.284,2.572,2.572,0,0,0,2.228-1.387,4.982,4.982,0,0,0,.547-1.539,2.513,2.513,0,1,1-1.893-4.131Zm2.025,2.511a4.468,4.468,0,1,0-.02.041Z" transform="translate(-36.548 2.639)" fill="#f8f8f8"/><path d="M390,214.3a4.87,4.87,0,0,1,.729-2.683,2.157,2.157,0,0,1,3.817,0,5.062,5.062,0,0,1,.759,2.683,4.931,4.931,0,0,1-.739,2.663,2.157,2.157,0,0,1-3.827,0A4.759,4.759,0,0,1,390,214.3Zm.537,0a4.3,4.3,0,0,0,.648,2.369,1.843,1.843,0,0,0,1.468.911,1.812,1.812,0,0,0,1.458-.921,4.313,4.313,0,0,0,.658-2.369,4.4,4.4,0,0,0-.668-2.369,1.62,1.62,0,0,0-2.926,0,4.364,4.364,0,0,0-.608,2.379Z" transform="translate(-36.462 2.639)" fill="#f8f8f8"/><path d="M398.768,211.23l-1.083.628a.193.193,0,0,1-.132,0,.273.273,0,0,1-.223-.132.253.253,0,0,1,.091-.365l1.478-.9a.239.239,0,0,1,.354.294v7.037a.243.243,0,0,1-.253.253.253.253,0,0,1-.263-.253Z" transform="translate(-36.37 2.639)" fill="#f8f8f8"/><path d="M401.141,217.629l3.564-3.24a1.954,1.954,0,0,0,.648-1.468,1.924,1.924,0,0,0-.516-1.306,1.883,1.883,0,0,0-1.448-.638,2.025,2.025,0,0,0-1.337.506l-.375.334a.243.243,0,0,1-.364,0,.253.253,0,0,1,0-.375l.364-.344a2.592,2.592,0,0,1,1.7-.648,2.43,2.43,0,0,1,1.833.81,2.46,2.46,0,0,1,.658,1.671,2.521,2.521,0,0,1-.81,1.863l-3.038,2.774h3.625a.273.273,0,0,1,.263.273.263.263,0,0,1-.263.263h-4.313a.223.223,0,0,1-.192-.081.273.273,0,0,1,0-.395Z" transform="translate(-36.323 2.639)" fill="#f8f8f8"/><path d="M418.6,210.875,416.57,212.9a2.592,2.592,0,0,1,1.316.689,2.683,2.683,0,0,1,.759,1.833,2.633,2.633,0,0,1-2.6,2.612,2.532,2.532,0,0,1-1.823-.759.263.263,0,0,1,0-.385.253.253,0,0,1,.375,0,2.048,2.048,0,0,0,2.947-2.845,2.025,2.025,0,0,0-1.448-.6.273.273,0,0,1-.213-.1h0a.294.294,0,0,1,0-.395l1.9-1.964h-2.936a.273.273,0,0,1,0-.547h3.574a.273.273,0,0,1,.243.395A.223.223,0,0,1,418.6,210.875Z" transform="translate(-36.159 2.639)" fill="#f8f8f8"/><path d="M424.945,216.454h-4.172a.243.243,0,0,1-.162,0,.253.253,0,0,1,0-.375l4.4-5.518h0a.253.253,0,0,1,.375,0,.3.3,0,0,1,.091.132h0v5.275H426a.263.263,0,0,1,0,.526h-.516v1.316a.273.273,0,0,1-.537,0Zm0-.516v-4.486l-3.6,4.486Z" transform="translate(-36.079 2.639)" fill="#f8f8f8"/><path d="M427.891,217.274a.263.263,0,0,1,0-.385.273.273,0,0,1,.395,0,2.1,2.1,0,0,0,1.448.587,2.045,2.045,0,1,0-1.458-3.483.273.273,0,0,1-.375,0,.183.183,0,0,1-.071-.091h0a.253.253,0,0,1,0-.091l.365-3.088a.317.317,0,0,1,.284-.263h3.574a.273.273,0,0,1,.273.273.263.263,0,0,1-.273.273h-3.331l-.273,2.278a2.593,2.593,0,0,1,3.139,4.07,2.724,2.724,0,0,1-1.833.759,2.633,2.633,0,0,1-1.863-.84Z" transform="translate(-35.987 2.639)" fill="#f8f8f8"/><path d="M435.089,212.021a3.038,3.038,0,0,1,2.673-1.671.263.263,0,0,1,.273.253.283.283,0,0,1-.263.284,2.572,2.572,0,0,0-2.228,1.387,5.156,5.156,0,0,0-.547,1.539,2.521,2.521,0,1,1-.628,1.752,4.227,4.227,0,0,1,0-.506,6.269,6.269,0,0,1,.719-3.038Zm-.182,3.493a.525.525,0,0,0,0,.142.192.192,0,0,1,0,.081,2.182,2.182,0,1,0,0-.3Z" transform="translate(-35.905 2.638)" fill="#f8f8f8"/><rect width="66.726" height="3.281" transform="translate(285.056 234.054) rotate(-0.15)" fill="#a6a6a6"/><rect width="47.245" height="3.281" transform="translate(285.065 241.344) rotate(-0.15)" fill="#a6a6a6"/><rect width="33.282" height="3.281" transform="translate(342.097 180.07)" fill="#a6a6a6"/><rect width="57.381" height="57.381" transform="translate(16.747 72.032)" fill="#ebebeb"/><path d="M86.815,80.24a1.934,1.934,0,0,1,1.944,1.944V83.2a16.444,16.444,0,0,1,7.088,2.491A2.45,2.45,0,0,1,97.2,87.864a2.5,2.5,0,0,1-2.541,2.5,2.693,2.693,0,0,1-1.357-.405,16.272,16.272,0,0,0-4.678-2.025v8.718c6.9,1.721,9.842,4.486,9.842,9.336s-3.9,8.3-9.66,8.85v2.724a1.934,1.934,0,0,1-1.995,1.924,2.025,2.025,0,0,1-2.025-1.944v-2.815a19.674,19.674,0,0,1-9.3-3.534,2.518,2.518,0,1,1,2.764-4.2,16.068,16.068,0,0,0,6.713,3.038v-8.941c-6.622-1.721-9.7-4.222-9.7-9.346,0-4.85,3.848-8.212,9.518-8.657V82.073a2.025,2.025,0,0,1,2.025-1.833ZM84.993,95.7V87.682c-2.9.263-4.354,1.812-4.354,3.807s.861,3.088,4.354,4.212Zm3.584,6.308v8.262c2.906-.324,4.5-1.772,4.5-3.949C93.073,104.3,92.07,103.1,88.577,102.01Z" transform="translate(-40.421 1.006)" fill="#fff"/><rect width="51.316" height="51.316" transform="translate(55.092 149.248)" fill="#ebebeb"/><path d="M121.569,155.54a1.731,1.731,0,0,1,1.752,1.742v.891a14.843,14.843,0,0,1,6.288,2.238,2.167,2.167,0,0,1,1.215,1.944,2.228,2.228,0,0,1-2.278,2.228,2.37,2.37,0,0,1-1.215-.365,14.714,14.714,0,0,0-4.172-1.782v7.746c6.166,1.549,8.8,4.05,8.8,8.364s-3.483,7.422-8.637,7.908v2.43a1.731,1.731,0,0,1-1.752,1.752,1.762,1.762,0,0,1-1.782-1.752v-2.5a17.466,17.466,0,0,1-8.313-3.169,2.239,2.239,0,1,1,2.471-3.726,14.388,14.388,0,0,0,6,2.714v-7.969c-5.923-1.539-8.677-3.777-8.677-8.353,0-4.344,3.443-7.351,8.515-7.756v-.851A1.762,1.762,0,0,1,121.569,155.54Zm-1.62,13.831v-7.179c-2.592.243-3.888,1.62-3.888,3.412S116.83,168.359,119.949,169.371Zm3.21,5.64v7.381c2.592-.283,4.05-1.58,4.05-3.524S126.277,175.983,123.158,175.011Z" transform="translate(-39.968 1.95)" fill="#fff"/></g><g transform="translate(10.986 433.985)"><path d="M453.284,449.256c0,11.421-89.893,20.676-200.8,20.676s-200.8-9.224-200.8-20.676,89.893-20.646,200.8-20.646S453.284,437.865,453.284,449.256Z" transform="translate(-51.69 -428.61)" fill="#ebebeb"/></g><g transform="translate(0.658 411.041)"><path d="M41.49,406.446l52.784-.243,52.784-.091,105.557-.162,105.557.162,52.784.091,52.784.243-52.784.253-52.784.091-105.557.162-105.557-.162L94.274,406.7Z" transform="translate(-41.49 -405.95)" fill="#263238"/></g><g transform="translate(108.868 53.351)"><path d="M336.854,52.69H165.674A17.476,17.476,0,0,0,148.36,70.328V422.692a17.487,17.487,0,0,0,17.314,17.638h171.18a17.507,17.507,0,0,0,17.335-17.638V70.328A17.5,17.5,0,0,0,336.854,52.69Zm6.5,359.118c0,9.275-6.946,16.778-15.512,16.778H174.706c-8.586,0-15.532-7.5-15.532-16.778V83.684c0-18.894,6.946-19.815,15.532-19.815h30.68c1.782,0,3.24,2.025,3.24,4.536v1.083c0,5.883,3.22,5.9,7.169,5.9h70.918c3.989,0,7.189,0,7.189-5.9V68.4c0-2.511,1.438-4.536,3.25-4.536h30.67c8.566,0,15.512,2.511,15.512,19.815Z" transform="translate(-148.359 -52.69)" fill="#263238"/><path d="M343.221,83.545V411.669c0,9.275-6.946,16.778-15.512,16.778H174.572c-8.586,0-15.532-7.5-15.532-16.778V83.545c0-18.894,6.946-19.815,15.532-19.815h30.68c1.782,0,3.24,2.025,3.24,4.536V69.35c0,5.883,3.22,5.9,7.169,5.9H286.58c3.989,0,7.189,0,7.189-5.9V68.266c0-2.511,1.438-4.536,3.25-4.536h30.67C336.275,63.73,343.221,66.241,343.221,83.545Z" transform="translate(-148.225 -52.552)" fill="#fff"/><path d="M343.222,83.545v36.948H159V83.545c0-18.894,6.946-19.815,15.532-19.815h30.68c1.782,0,3.24,2.025,3.24,4.536V69.35c0,5.883,3.22,5.9,7.169,5.9H286.58c3.989,0,7.189,0,7.189-5.9V68.266c0-2.511,1.438-4.536,3.25-4.536h30.67C336.275,63.73,343.222,66.241,343.222,83.545Z" transform="translate(-148.226 -52.552)" fill="#0a1633"/><g transform="translate(45.099 17.157)"><path d="M199.532,71.017l-.294.294c-.061,0-.111.111-.172.172a4.05,4.05,0,0,0-5.711,0l-.162-.172-.294-.294h0l.375-.324a4.11,4.11,0,0,1,.871-.557,4.233,4.233,0,0,1,1.144-.385,1.426,1.426,0,0,0,.577-.081,1,1,0,0,1,.506,0h.385a4.567,4.567,0,0,1,1.013.253,4.636,4.636,0,0,1,.719.334,5.415,5.415,0,0,1,.678.476l.314.284Z" transform="translate(-192.9 -69.634)" fill="#fff"/><path d="M194.276,72.408c-.152-.162-.3-.314-.466-.466a3.362,3.362,0,0,1,4.769,0l-.466.466a2.643,2.643,0,0,0-1.914-.79A2.693,2.693,0,0,0,194.276,72.408Z" transform="translate(-192.889 -69.618)" fill="#fff"/><path d="M197.636,72.858l-.466.466a1.4,1.4,0,0,0-1.964,0l-.466-.466a2.025,2.025,0,0,1,2.9,0Z" transform="translate(-192.877 -69.602)" fill="#fff"/><path d="M196.591,73.735a.415.415,0,0,1-.415.415.425.425,0,1,1,0-.84.415.415,0,0,1,.415.425Z" transform="translate(-192.865 -69.588)" fill="#fff"/></g><path d="M170.9,71.905a1.225,1.225,0,1,1,1.225,1.225,1.225,1.225,0,0,1-1.225-1.225Z" transform="translate(-148.077 -52.464)" fill="#fff"/><path d="M174.7,71.905a1.225,1.225,0,1,1,1.225,1.225A1.225,1.225,0,0,1,174.7,71.905Z" transform="translate(-148.029 -52.464)" fill="#fff"/><path d="M178.5,71.905a1.215,1.215,0,1,1,.352.866,1.225,1.225,0,0,1-.352-.866Z" transform="translate(-147.981 -52.464)" fill="#fff"/><path d="M182.3,71.905a1.215,1.215,0,1,1,.352.866,1.225,1.225,0,0,1-.352-.866Z" transform="translate(-147.934 -52.464)" fill="#fff"/><path d="M186.09,71.905a1.225,1.225,0,1,1,1.225,1.225A1.225,1.225,0,0,1,186.09,71.905Z" transform="translate(-147.886 -52.464)" fill="#fff"/><path d="M327.423,74.577H317.48V70h9.943Zm-9.417-.527h8.931V70.486h-8.931Z" transform="translate(-146.239 -52.473)" fill="#fff"/><rect width="6.409" height="3.038" transform="translate(172.072 18.286)" fill="#fff"/><rect width="0.881" height="2.46" transform="translate(181.185 18.58)" fill="#fff"/><path d="M175.687,109.676l-5.437-5.1,5.437-5.1.851.9-4.486,4.2,4.486,4.2Z" transform="translate(-148.085 -52.103)" fill="#fff"/><path d="M324.391,99.47l5.437,5.1-5.437,5.1-.851-.9,4.486-4.2-4.486-4.2Z" transform="translate(-146.162 -52.103)" fill="#fff"/><path d="M259.8,67.88h-19.35a1.2,1.2,0,0,1-1.195-1.195h0a1.2,1.2,0,0,1,1.195-1.195H259.8A1.2,1.2,0,0,1,261,66.685h0A1.2,1.2,0,0,1,259.8,67.88Z" transform="translate(-147.219 -52.529)" fill="#fff"/><path d="M184.43,179.417v-4.192a.375.375,0,0,1,.385-.385h2.319a.405.405,0,0,1,.395.385.415.415,0,0,1-.395.405H185.21v1.3h1.661a.4.4,0,0,1,.385.385.385.385,0,0,1-.385.395H185.21v1.347h1.924a.415.415,0,0,1,.395.4.4.4,0,0,1-.395.385h-2.3a.375.375,0,0,1-.4-.425Z" transform="translate(-143.307 -35.825)" fill="#263238"/><path d="M191.466,177.71v1.7a.38.38,0,0,1-.759,0v-1.7a.729.729,0,0,0-1.448,0v1.681h0a.415.415,0,0,1-.354.223h-.071a.375.375,0,0,1-.3-.365v-1.681h0v-1.094a.379.379,0,0,1,.719-.172,1.5,1.5,0,0,1,.759-.213,1.478,1.478,0,0,1,1.114.486,1.448,1.448,0,0,1,1.114-.486,1.478,1.478,0,0,1,1.468,1.488v1.681a.38.38,0,0,1-.759,0v-1.681a.719.719,0,0,0-.709-.729.729.729,0,0,0-.769.861Z" transform="translate(-143.255 -35.809)" fill="#263238"/><path d="M198.162,178.022v1.387a.385.385,0,0,1-.375.375.4.4,0,0,1-.375-.3,1.59,1.59,0,0,1-.942.3,1.67,1.67,0,0,1-1.2-.516,1.883,1.883,0,0,1,0-2.5,1.64,1.64,0,0,1,1.2-.527,1.589,1.589,0,0,1,.942.314.4.4,0,0,1,.375-.314.385.385,0,0,1,.375.385Zm-.749,0a1.012,1.012,0,0,0-.284-.729.881.881,0,0,0-1.316,0,1.141,1.141,0,0,0,0,1.458.931.931,0,0,0,1.316,0A1.073,1.073,0,0,0,197.412,178.022Z" transform="translate(-143.177 -35.807)" fill="#263238"/><path d="M200.259,175.367a.385.385,0,1,1-.759,0v-.142a.385.385,0,1,1,.759,0Zm0,1.286v2.764a.385.385,0,1,1-.759,0v-2.764a.385.385,0,1,1,.759,0Z" transform="translate(-143.118 -35.826)" fill="#263238"/><path d="M201.745,174.84a.4.4,0,0,1,.405.385v4.192a.4.4,0,0,1-.4.385.385.385,0,0,1-.385-.385v-4.192A.385.385,0,0,1,201.745,174.84Z" transform="translate(-143.095 -35.825)" fill="#263238"/><rect width="134.243" height="11.887" transform="translate(40.384 149.029)" fill="#ebebeb"/><path d="M187.1,191.182a1.762,1.762,0,0,1,1.731-1.772,1.7,1.7,0,0,1,1.711,1.61h0v.061a.334.334,0,0,1-.365.284H187.91a.942.942,0,0,0,.243.466,1.1,1.1,0,0,0,.678.324,1.124,1.124,0,0,0,.739-.182.415.415,0,0,1,.537,0,.334.334,0,0,1,0,.466,1.833,1.833,0,0,1-1.276.466A1.762,1.762,0,0,1,187.1,191.182Zm.78-.344H189.9a1.175,1.175,0,0,0-1.013-.759,1.013,1.013,0,0,0-1.013.759Z" transform="translate(-143.273 -35.642)" fill="#c7c7c7"/><path d="M194.576,190.879v1.7a.38.38,0,0,1-.759,0v-1.7a.729.729,0,0,0-1.448,0v1.681a.445.445,0,0,0,0,.051h0a.415.415,0,0,1-.354.223h-.071a.385.385,0,0,1-.3-.365v-1.681h0v-1.094a.379.379,0,0,1,.719-.172,1.5,1.5,0,0,1,.759-.213,1.479,1.479,0,0,1,1.114.486,1.468,1.468,0,0,1,1.114-.486,1.488,1.488,0,0,1,1.478,1.488v1.681a.385.385,0,0,1-.759,0V190.8a.729.729,0,1,0-1.458,0Z" transform="translate(-143.217 -35.643)" fill="#c7c7c7"/><path d="M201.272,191.192v1.387a.375.375,0,0,1-.739.071,1.641,1.641,0,0,1-.952.3,1.691,1.691,0,0,1-1.2-.516,1.883,1.883,0,0,1,0-2.5,1.62,1.62,0,0,1,2.157-.213.375.375,0,0,1,.365-.314.385.385,0,0,1,.375.385Zm-.749,0a1.012,1.012,0,0,0-.273-.729.891.891,0,0,0-.668-.294.85.85,0,0,0-.658.294,1.013,1.013,0,0,0-.263.729,1.1,1.1,0,0,0,.263.729.911.911,0,0,0,.658.273.952.952,0,0,0,.668-.273,1.114,1.114,0,0,0,.273-.729Z" transform="translate(-143.138 -35.642)" fill="#c7c7c7"/><path d="M203.38,188.537a.385.385,0,0,1-.77,0v-.142a.385.385,0,1,1,.77,0Zm0,1.286v2.764a.385.385,0,0,1-.77,0v-2.764a.385.385,0,1,1,.77,0Z" transform="translate(-143.079 -35.66)" fill="#c7c7c7"/><path d="M204.865,188a.4.4,0,0,1,.395.385v4.192a.395.395,0,0,1-.79,0v-4.192a.4.4,0,0,1,.395-.385Z" transform="translate(-143.056 -35.66)" fill="#c7c7c7"/><path d="M209.172,191.192v1.387a.376.376,0,1,1-.749.071,1.59,1.59,0,0,1-.942.3,1.661,1.661,0,0,1-1.2-.516,1.853,1.853,0,0,1,0-2.5,1.63,1.63,0,0,1,1.2-.527,1.589,1.589,0,0,1,.942.314.376.376,0,1,1,.749.071Zm-.749,0a1.012,1.012,0,0,0-.283-.729.871.871,0,0,0-.658-.294.85.85,0,0,0-.658.294,1.109,1.109,0,0,0,0,1.458.911.911,0,0,0,.658.273.921.921,0,0,0,.658-.273A1.073,1.073,0,0,0,208.423,191.192Z" transform="translate(-143.039 -35.642)" fill="#c7c7c7"/><path d="M213.713,192.587a.385.385,0,0,1-.759.081,1.752,1.752,0,1,1-.962-3.24,1.711,1.711,0,0,1,.952.294v-1.326a.375.375,0,0,1,.385-.385.385.385,0,0,1,.385.385v2.8h0Zm-1.721-2.39a.932.932,0,0,0-.668.294,1.028,1.028,0,0,0,0,1.418.911.911,0,0,0,1.337,0,1.028,1.028,0,0,0,0-1.418.932.932,0,0,0-.638-.294Z" transform="translate(-142.983 -35.66)" fill="#c7c7c7"/><path d="M217.3,189.785a.375.375,0,0,1-.375.375.689.689,0,0,0-.425.132,1.317,1.317,0,0,0-.324.344,2.219,2.219,0,0,0-.294.6v1.347a.385.385,0,0,1-.759,0v-2.795a.385.385,0,0,1,.759,0v.051a1.015,1.015,0,0,1,.152-.142,1.479,1.479,0,0,1,.891-.273.365.365,0,0,1,.375.364Z" transform="translate(-142.922 -35.642)" fill="#c7c7c7"/><path d="M217.6,191.182a1.742,1.742,0,0,1,1.721-1.772,1.691,1.691,0,0,1,1.721,1.61v.1a.354.354,0,0,1-.375.284H218.41a1.013,1.013,0,0,0,.243.466,1.124,1.124,0,0,0,1.418.142.415.415,0,0,1,.537,0,.334.334,0,0,1,0,.466,1.833,1.833,0,0,1-1.276.466,1.752,1.752,0,0,1-1.731-1.762Zm.77-.344h2.025a1.174,1.174,0,0,0-1.013-.759,1.013,1.013,0,0,0-1.013.759Z" transform="translate(-142.891 -35.642)" fill="#c7c7c7"/><path d="M221.941,191.941a.364.364,0,0,1,.527-.061,1.256,1.256,0,0,0,.78.314.952.952,0,0,0,.486-.132.294.294,0,0,0,.122-.213v-.071c0-.071,0-.051-.091-.091a1.721,1.721,0,0,0-.567-.192h0a3.109,3.109,0,0,1-.618-.182,1.347,1.347,0,0,1-.486-.415.84.84,0,0,1-.121-.446,1.013,1.013,0,0,1,.425-.78,1.478,1.478,0,0,1,.871-.263,1.873,1.873,0,0,1,1.063.385.4.4,0,0,1,.111.527.375.375,0,0,1-.527.1,1.185,1.185,0,0,0-.648-.263.709.709,0,0,0-.425.132c-.091.061-.122.122-.122.162v.051a.142.142,0,0,0,.081.071,1.255,1.255,0,0,0,.516.172h0a2.369,2.369,0,0,1,.658.2,1.134,1.134,0,0,1,.506.425.952.952,0,0,1,.132.466,1.013,1.013,0,0,1-.446.82,1.579,1.579,0,0,1-.921.283,2.106,2.106,0,0,1-1.266-.486.385.385,0,0,1-.041-.516Z" transform="translate(-142.838 -35.642)" fill="#c7c7c7"/><path d="M225.311,191.941a.375.375,0,0,1,.537-.061,1.225,1.225,0,0,0,.78.314.941.941,0,0,0,.476-.132.313.313,0,0,0,.132-.213.122.122,0,0,0,0-.071.364.364,0,0,0-.091-.091,1.721,1.721,0,0,0-.567-.192h0a2.756,2.756,0,0,1-.618-.182,1.205,1.205,0,0,1-.486-.415.84.84,0,0,1-.121-.446,1.013,1.013,0,0,1,.415-.78,1.5,1.5,0,0,1,.871-.263,1.843,1.843,0,0,1,1.013.385.385.385,0,0,1,.111.527.365.365,0,0,1-.516.1,1.215,1.215,0,0,0-.658-.263.729.729,0,0,0-.425.132.2.2,0,0,0-.111.162.071.071,0,0,0,0,.051.142.142,0,0,0,.081.071,1.256,1.256,0,0,0,.516.172h0a2.441,2.441,0,0,1,.668.2,1.013,1.013,0,0,1,.5.425.871.871,0,0,1,.142.466,1.013,1.013,0,0,1-.446.82,1.6,1.6,0,0,1-.921.284,2.106,2.106,0,0,1-1.266-.486.375.375,0,0,1-.01-.516Z" transform="translate(-142.795 -35.642)" fill="#c7c7c7"/><path d="M233.6,190.48a2.309,2.309,0,0,1-.283,1.144h0a2.581,2.581,0,0,1-.172.243,1.225,1.225,0,0,1-.557.344h-.182a.638.638,0,0,1-.537-.263.537.537,0,0,1-.111-.213,1.367,1.367,0,0,1-1.62-.273,1.478,1.478,0,0,1,0-2.025,1.377,1.377,0,0,1,1.012-.425,1.4,1.4,0,0,1,1.013.425,1.468,1.468,0,0,1,.385,1.013v.932h.051a.752.752,0,0,0,.1-.111,1.792,1.792,0,0,0,.172-.78,1.691,1.691,0,1,0-1.691,1.7,2.025,2.025,0,0,0,.425,0,.395.395,0,0,1,.192.759,2.521,2.521,0,0,1-.618.081,2.481,2.481,0,1,1,2.481-2.491Zm-1.893,0a.688.688,0,0,0-.182-.466.607.607,0,0,0-.4-.182.587.587,0,0,0-.405.182.7.7,0,0,0,0,.942.547.547,0,0,0,.405.182.557.557,0,0,0,.405-.182A.688.688,0,0,0,231.707,190.48Z" transform="translate(-142.752 -35.659)" fill="#c7c7c7"/><path d="M238.746,190.879v1.7a.38.38,0,0,1-.759,0v-1.7a.729.729,0,0,0-1.448,0v1.681a.452.452,0,0,0,0,.051h0a.415.415,0,0,1-.354.223h-.071a.375.375,0,0,1-.3-.364v-1.681h0v-1.094a.379.379,0,0,1,.719-.172,1.5,1.5,0,0,1,.759-.213,2.314,2.314,0,0,0,2.751.11,1.488,1.488,0,0,1,.945,1.389v1.681a.375.375,0,0,1-.375.375.385.385,0,0,1-.385-.375v-1.681a.719.719,0,0,0-.709-.729.729.729,0,0,0-.77.8Z" transform="translate(-142.663 -35.643)" fill="#c7c7c7"/><path d="M245.442,191.192v1.387a.375.375,0,0,1-.739.071,1.641,1.641,0,0,1-.952.3,1.671,1.671,0,0,1-1.2-.516,1.883,1.883,0,0,1,0-2.5,1.62,1.62,0,0,1,2.157-.213.375.375,0,0,1,.365-.314.385.385,0,0,1,.375.385Zm-.749,0a1.012,1.012,0,0,0-.273-.729.891.891,0,0,0-.668-.294.85.85,0,0,0-.658.294,1.141,1.141,0,0,0,0,1.458.911.911,0,0,0,.658.273.952.952,0,0,0,.668-.273,1.114,1.114,0,0,0,.273-.729Z" transform="translate(-142.584 -35.642)" fill="#c7c7c7"/><path d="M247.55,188.537a.385.385,0,0,1-.77,0v-.142a.385.385,0,1,1,.77,0Zm0,1.286v2.764a.385.385,0,1,1-.77,0v-2.764a.385.385,0,1,1,.77,0Z" transform="translate(-142.525 -35.66)" fill="#c7c7c7"/><path d="M249,188a.4.4,0,0,1,.395.385v4.192a.395.395,0,1,1-.79,0v-4.192A.4.4,0,0,1,249,188Z" transform="translate(-142.502 -35.66)" fill="#c7c7c7"/><path d="M250.788,191.92a.527.527,0,1,1-.574.2A.527.527,0,0,1,250.788,191.92Z" transform="translate(-142.483 -35.611)" fill="#c7c7c7"/><path d="M251.56,191.192a1.8,1.8,0,0,1,1.8-1.782,1.863,1.863,0,0,1,1.124.385.4.4,0,0,1,.081.527.375.375,0,0,1-.537.071,1.124,1.124,0,0,0-.668-.223,1.013,1.013,0,0,0,0,2.025,1.094,1.094,0,0,0,.668-.233.385.385,0,1,1,.456.608,1.914,1.914,0,0,1-1.124.375A1.792,1.792,0,0,1,251.56,191.192Z" transform="translate(-142.465 -35.642)" fill="#c7c7c7"/><path d="M256.006,192.437a1.772,1.772,0,0,1-.486-1.245,1.843,1.843,0,0,1,.486-1.245,1.64,1.64,0,0,1,1.215-.537,1.539,1.539,0,0,1,1.185.537,1.762,1.762,0,0,1,.5,1.245,1.691,1.691,0,0,1-.5,1.245,1.539,1.539,0,0,1-1.185.537A1.641,1.641,0,0,1,256.006,192.437Zm.284-1.245a1.154,1.154,0,0,0,.253.749,1.013,1.013,0,0,0,.678.263.931.931,0,0,0,.658-.263,1.114,1.114,0,0,0,.273-.749,1.094,1.094,0,0,0-.273-.739.953.953,0,0,0-1.337,0,1.124,1.124,0,0,0-.233.739Z" transform="translate(-142.415 -35.642)" fill="#c7c7c7"/><path d="M263.036,190.879v1.7a.38.38,0,0,1-.759,0v-1.7a.729.729,0,0,0-1.448,0v1.681a.425.425,0,0,0,0,.051h0a.415.415,0,0,1-.354.223H260.4a.375.375,0,0,1-.3-.364v-1.681h0v-1.094a.379.379,0,0,1,.719-.172,1.5,1.5,0,0,1,.759-.213,2.314,2.314,0,0,0,2.751.11,1.489,1.489,0,0,1,.945,1.389v1.681a.375.375,0,0,1-.375.375.385.385,0,0,1-.385-.375v-1.681a.719.719,0,0,0-.709-.729.729.729,0,0,0-.769.8Z" transform="translate(-142.358 -35.643)" fill="#c7c7c7"/><path d="M186.08,206.218h-.871v1.539a.395.395,0,0,1-.78,0v-4.192a.385.385,0,0,1,.385-.385h1.266a1.519,1.519,0,0,1,0,3.038Zm-.871-.79h.871a.729.729,0,0,0,0-1.458h-.871Z" transform="translate(-143.307 -35.469)" fill="#263238"/><path d="M191.432,206.362v1.387a.375.375,0,0,1-.739.071,1.64,1.64,0,0,1-2.147-.213,1.782,1.782,0,0,1-.486-1.245,1.742,1.742,0,0,1,.486-1.245,1.6,1.6,0,0,1,1.2-.537,1.62,1.62,0,0,1,.942.314.375.375,0,0,1,.365-.314.385.385,0,0,1,.375.385Zm-.749,0a1.013,1.013,0,0,0-.273-.729.881.881,0,0,0-.658-.294.871.871,0,0,0-.668.294,1.013,1.013,0,0,0-.263.729,1.084,1.084,0,0,0,.263.729.932.932,0,0,0,.668.273.942.942,0,0,0,.658-.273A1.012,1.012,0,0,0,190.682,206.362Z" transform="translate(-143.261 -35.452)" fill="#263238"/><path d="M192.6,207.111a.365.365,0,0,1,.527-.061,1.255,1.255,0,0,0,.78.314,1.013,1.013,0,0,0,.486-.132.294.294,0,0,0,.121-.213v-.071a.182.182,0,0,0-.091-.081,1.691,1.691,0,0,0-.567-.2h0a3.105,3.105,0,0,1-.618-.182,1.255,1.255,0,0,1-.486-.415.82.82,0,0,1-.121-.446,1.013,1.013,0,0,1,.425-.78,1.478,1.478,0,0,1,.871-.263,1.8,1.8,0,0,1,1.063.395.385.385,0,0,1,.111.516.375.375,0,0,1-.527.1,1.266,1.266,0,0,0-.648-.263.709.709,0,0,0-.425.132.243.243,0,0,0-.122.162s0,0,0,.061a.314.314,0,0,0,.081.071,1.469,1.469,0,0,0,.516.162h0a2.765,2.765,0,0,1,.658.2,1.134,1.134,0,0,1,.506.425.952.952,0,0,1,.132.466,1.012,1.012,0,0,1-.446.82,1.579,1.579,0,0,1-.921.284,2.025,2.025,0,0,1-1.266-.486.385.385,0,0,1-.041-.516Z" transform="translate(-143.205 -35.452)" fill="#263238"/><path d="M196,207.111a.365.365,0,0,1,.527-.061,1.276,1.276,0,0,0,.78.314.952.952,0,0,0,.486-.132.283.283,0,0,0,.132-.213.122.122,0,0,0,0-.071.223.223,0,0,0-.1-.081,1.529,1.529,0,0,0-.567-.2h0a2.754,2.754,0,0,1-.618-.182,1.215,1.215,0,0,1-.5-.415.911.911,0,0,1-.111-.445,1.013,1.013,0,0,1,.415-.78,1.5,1.5,0,0,1,.871-.263,1.782,1.782,0,0,1,1.063.395.375.375,0,1,1-.415.618,1.265,1.265,0,0,0-.648-.263.729.729,0,0,0-.425.132.213.213,0,0,0-.111.162.111.111,0,0,0,0,.061.313.313,0,0,0,.081.071,1.468,1.468,0,0,0,.516.162h0a2.846,2.846,0,0,1,.668.2,1.165,1.165,0,0,1,.5.425.871.871,0,0,1,.142.466,1.012,1.012,0,0,1-.456.82,1.559,1.559,0,0,1-.921.284,2.025,2.025,0,0,1-1.256-.486A.375.375,0,0,1,196,207.111Z" transform="translate(-143.163 -35.452)" fill="#263238"/><path d="M204.051,205.146l-1.175,2.754h-.284a.061.061,0,0,0-.051,0h-.061l-.516-1.225-.506,1.225h-.294a.081.081,0,0,1-.061,0h0l-1.164-2.754a.365.365,0,0,1,.213-.486.344.344,0,0,1,.466.213l.84,1.9.5-1.185a.364.364,0,0,1,.344-.223.354.354,0,0,1,.344.223l.506,1.185.84-1.9a.344.344,0,0,1,.476-.213.365.365,0,0,1-.415.486Z" transform="translate(-143.113 -35.451)" fill="#263238"/><path d="M205.656,207.608a1.772,1.772,0,0,1-.486-1.245,1.843,1.843,0,0,1,.486-1.245,1.64,1.64,0,0,1,1.215-.537,1.539,1.539,0,0,1,1.185.537,1.762,1.762,0,0,1,.5,1.245,1.691,1.691,0,0,1-.5,1.245,1.539,1.539,0,0,1-1.185.537A1.64,1.64,0,0,1,205.656,207.608Zm.284-1.245a1.154,1.154,0,0,0,.253.749,1.013,1.013,0,0,0,.678.263.932.932,0,0,0,.658-.263,1.114,1.114,0,0,0,.273-.749,1.093,1.093,0,0,0-.273-.739,1.013,1.013,0,0,0-.658-.273,1.073,1.073,0,0,0-.678.273A1.124,1.124,0,0,0,205.94,206.362Z" transform="translate(-143.047 -35.452)" fill="#263238"/><path d="M211.747,205.005a.375.375,0,0,1-.375.375.688.688,0,0,0-.425.142,1.012,1.012,0,0,0-.324.334,2.025,2.025,0,0,0-.294.6V207.8a.4.4,0,0,1-.395.375.385.385,0,0,1-.375-.375v-2.795a.375.375,0,0,1,.375-.364.385.385,0,0,1,.395.364h0a1.008,1.008,0,0,1,.152-.142,1.549,1.549,0,0,1,.891-.273.364.364,0,0,1,.375.415Z" transform="translate(-142.992 -35.452)" fill="#263238"/><path d="M215.673,207.757a.375.375,0,0,1-.375.385.4.4,0,0,1-.385-.3,1.722,1.722,0,0,1-.962.3,1.772,1.772,0,0,1,0-3.544,1.681,1.681,0,0,1,.952.294v-1.326a.385.385,0,0,1,.395-.385.375.375,0,0,1,.375.385v2.8h0Zm-1.721-2.39a.942.942,0,0,0-.668.294,1.027,1.027,0,0,0,0,1.418.942.942,0,0,0,.668.294.931.931,0,0,0,.668-.294,1.027,1.027,0,0,0,0-1.418.932.932,0,0,0-.668-.294Z" transform="translate(-142.959 -35.469)" fill="#263238"/><rect width="134.243" height="11.887" transform="translate(40.384 177.725)" fill="#ebebeb"/><path d="M188.172,217.738l-.527.395a.374.374,0,0,1-.182.071.243.243,0,0,1-.233-.243.253.253,0,0,1,.162-.223l.628-.263-.628-.284a.243.243,0,0,1-.162-.213.233.233,0,0,1,.243-.233.273.273,0,0,1,.172.071l.527.385-.071-.628a.233.233,0,0,1,.223-.273.223.223,0,0,1,.223.263l-.071.638.527-.385a.263.263,0,0,1,.182-.071.228.228,0,0,1,.071.446l-.628.284.628.263a.263.263,0,0,1,.162.233.243.243,0,0,1-.243.233.314.314,0,0,1-.172-.071l-.527-.395.071.638a.226.226,0,1,1-.446,0Z" transform="translate(-143.272 -35.305)" fill="#c7c7c7"/><path d="M191.182,217.738l-.527.395a.374.374,0,0,1-.182.071.233.233,0,0,1-.233-.243.253.253,0,0,1,.162-.223l.628-.263-.628-.284a.243.243,0,0,1-.162-.213.233.233,0,0,1,.243-.233.273.273,0,0,1,.172.071l.527.385-.071-.628a.233.233,0,0,1,.223-.273.223.223,0,0,1,.223.263l-.071.638.527-.385a.263.263,0,0,1,.182-.071.228.228,0,0,1,.071.446l-.628.284.628.263a.263.263,0,0,1,.162.233.243.243,0,0,1-.243.233.314.314,0,0,1-.172-.071l-.527-.395.071.638a.226.226,0,1,1-.446,0Z" transform="translate(-143.234 -35.305)" fill="#c7c7c7"/><path d="M194.192,217.738l-.527.395a.374.374,0,0,1-.182.071.233.233,0,0,1-.233-.243.253.253,0,0,1,.162-.223l.628-.263-.628-.284a.243.243,0,0,1-.162-.213.233.233,0,0,1,.243-.233.273.273,0,0,1,.172.071l.527.385-.071-.628a.233.233,0,0,1,.223-.273.223.223,0,0,1,.223.263l-.071.638.527-.385a.263.263,0,0,1,.182-.071.228.228,0,0,1,.071.446l-.628.284.628.263a.263.263,0,0,1,.162.233.253.253,0,0,1-.243.233.314.314,0,0,1-.172-.071l-.527-.395.071.638a.226.226,0,1,1-.446,0Z" transform="translate(-143.196 -35.305)" fill="#c7c7c7"/><path d="M197.2,217.738l-.527.395a.374.374,0,0,1-.182.071.233.233,0,0,1-.233-.243.253.253,0,0,1,.162-.223l.628-.263-.628-.284a.243.243,0,0,1-.162-.213.233.233,0,0,1,.243-.233.273.273,0,0,1,.172.071l.527.385-.071-.628a.233.233,0,0,1,.223-.273.223.223,0,0,1,.223.263l-.071.638.527-.385a.263.263,0,0,1,.182-.071.228.228,0,0,1,.071.446l-.628.284.628.263a.263.263,0,0,1,.162.233.253.253,0,0,1-.243.233.314.314,0,0,1-.172-.071l-.527-.395.071.638a.226.226,0,1,1-.446,0Z" transform="translate(-143.159 -35.305)" fill="#c7c7c7"/><path d="M200.212,217.738l-.527.395a.374.374,0,0,1-.182.071.233.233,0,0,1-.233-.243.253.253,0,0,1,.162-.223l.628-.263-.628-.284a.243.243,0,0,1-.162-.213.233.233,0,0,1,.243-.233.273.273,0,0,1,.172.071l.527.385-.071-.628a.233.233,0,0,1,.223-.273.223.223,0,0,1,.223.263l-.071.638.527-.385a.263.263,0,0,1,.182-.071.228.228,0,0,1,.071.446l-.628.284.628.263a.263.263,0,0,1,.162.233.253.253,0,0,1-.243.233.314.314,0,0,1-.172-.071l-.527-.395.071.638a.226.226,0,1,1-.446,0Z" transform="translate(-143.121 -35.305)" fill="#c7c7c7"/><path d="M203.222,217.738l-.527.395a.375.375,0,0,1-.182.071.233.233,0,0,1-.233-.243.253.253,0,0,1,.162-.223l.628-.263-.628-.284a.243.243,0,0,1-.162-.213.233.233,0,0,1,.243-.233.273.273,0,0,1,.172.071l.527.385-.071-.628a.233.233,0,0,1,.223-.273.223.223,0,0,1,.223.263l-.071.638.527-.385a.263.263,0,0,1,.182-.071.228.228,0,0,1,.071.446l-.628.284.628.263a.263.263,0,0,1,.162.233.243.243,0,0,1-.243.233.314.314,0,0,1-.172-.071l-.527-.395.071.638a.226.226,0,1,1-.446,0Z" transform="translate(-143.083 -35.305)" fill="#c7c7c7"/><path d="M206.232,217.738l-.527.395a.374.374,0,0,1-.182.071.233.233,0,0,1-.233-.243.253.253,0,0,1,.162-.223l.628-.263-.628-.284a.243.243,0,0,1-.162-.213.233.233,0,0,1,.243-.233.273.273,0,0,1,.172.071l.527.385-.071-.628a.233.233,0,0,1,.223-.273.223.223,0,0,1,.223.263l-.071.638.527-.385a.263.263,0,0,1,.182-.071.228.228,0,0,1,.071.446l-.628.284.628.263a.263.263,0,0,1,.162.233.243.243,0,0,1-.243.233.314.314,0,0,1-.172-.071l-.527-.395.071.638a.226.226,0,1,1-.445,0Z" transform="translate(-143.045 -35.305)" fill="#c7c7c7"/><path d="M209.242,217.738l-.527.395a.374.374,0,0,1-.182.071.233.233,0,0,1-.233-.243.253.253,0,0,1,.162-.223l.628-.263-.628-.284a.243.243,0,0,1-.162-.213.233.233,0,0,1,.243-.233.273.273,0,0,1,.172.071l.527.385-.071-.628a.233.233,0,0,1,.223-.273.223.223,0,0,1,.223.263l-.071.638.527-.385a.263.263,0,0,1,.182-.071.228.228,0,0,1,.071.446l-.628.284.628.263a.263.263,0,0,1,.162.233.253.253,0,0,1-.243.233.314.314,0,0,1-.172-.071l-.527-.395.071.638a.226.226,0,1,1-.446,0Z" transform="translate(-143.008 -35.305)" fill="#c7c7c7"/><path d="M212.252,217.738l-.527.395a.374.374,0,0,1-.182.071.233.233,0,0,1-.233-.243.253.253,0,0,1,.162-.223l.628-.263-.628-.284a.243.243,0,0,1-.162-.213.233.233,0,0,1,.243-.233.273.273,0,0,1,.172.071l.527.385-.071-.628a.233.233,0,0,1,.223-.273.223.223,0,0,1,.223.263l-.071.638.527-.385a.263.263,0,0,1,.182-.071.228.228,0,0,1,.071.446l-.628.284.628.263a.263.263,0,0,1,.162.233.253.253,0,0,1-.243.233.314.314,0,0,1-.172-.071l-.527-.395.071.638a.226.226,0,1,1-.445,0Z" transform="translate(-142.97 -35.305)" fill="#c7c7c7"/><path d="M215.262,217.738l-.527.395a.374.374,0,0,1-.182.071.233.233,0,0,1-.233-.243.253.253,0,0,1,.162-.223l.628-.263-.628-.284a.243.243,0,0,1-.162-.213.233.233,0,0,1,.243-.233.273.273,0,0,1,.172.071l.527.385-.071-.628a.233.233,0,0,1,.223-.273.223.223,0,0,1,.223.263l-.081.638.537-.385a.264.264,0,0,1,.182-.071.228.228,0,0,1,.071.446l-.628.284.628.263a.263.263,0,0,1,.162.233.253.253,0,0,1-.243.233.314.314,0,0,1-.172-.071l-.537-.395.081.638a.226.226,0,1,1-.446,0Z" transform="translate(-142.932 -35.305)" fill="#c7c7c7"/><path d="M218.272,217.738l-.527.395a.374.374,0,0,1-.182.071.233.233,0,0,1-.233-.243.253.253,0,0,1,.162-.223l.628-.263-.628-.284a.243.243,0,0,1-.162-.213.233.233,0,0,1,.243-.233.274.274,0,0,1,.172.071l.526.385-.071-.628a.233.233,0,0,1,.223-.273.213.213,0,0,1,.213.263l-.061.638.527-.385a.263.263,0,0,1,.182-.071.228.228,0,0,1,.071.446l-.628.284.628.263a.263.263,0,0,1,.162.233.243.243,0,0,1-.243.233.313.313,0,0,1-.172-.071l-.527-.395.061.638a.213.213,0,0,1-.213.263.223.223,0,0,1-.223-.263Z" transform="translate(-142.894 -35.305)" fill="#c7c7c7"/><path d="M221.282,217.738l-.527.395a.374.374,0,0,1-.182.071.243.243,0,0,1-.233-.243.253.253,0,0,1,.162-.223l.628-.263-.628-.284a.243.243,0,0,1-.162-.213.233.233,0,0,1,.243-.233.274.274,0,0,1,.172.071l.526.385-.071-.628a.233.233,0,0,1,.223-.273.223.223,0,0,1,.223.263l-.071.638.527-.385a.263.263,0,0,1,.182-.071.228.228,0,0,1,.071.446l-.628.284.628.263a.263.263,0,0,1,.162.233.253.253,0,0,1-.243.233.314.314,0,0,1-.172-.071l-.527-.395.071.638a.226.226,0,1,1-.446,0Z" transform="translate(-142.857 -35.305)" fill="#c7c7c7"/><path d="M224.292,217.738l-.527.395a.375.375,0,0,1-.182.071.243.243,0,0,1-.233-.243.253.253,0,0,1,.162-.223l.628-.263-.628-.284a.243.243,0,0,1-.162-.213.233.233,0,0,1,.243-.233.273.273,0,0,1,.172.071l.527.385-.071-.628a.233.233,0,0,1,.223-.273.223.223,0,0,1,.223.263l-.071.638.527-.385a.263.263,0,0,1,.182-.071.228.228,0,0,1,.071.446l-.628.284.628.263a.263.263,0,0,1,.162.233.253.253,0,0,1-.243.233.314.314,0,0,1-.172-.071l-.527-.395.071.638a.226.226,0,1,1-.446,0Z" transform="translate(-142.819 -35.305)" fill="#c7c7c7"/><path d="M183.7,235.143l16.778-.121,16.778-.041,33.566-.091,33.566.081,16.778.051,16.778.121-16.778.121-16.778.051-33.566.081-33.566-.081-16.778-.051Z" transform="translate(-143.316 -35.072)" fill="#ebebeb"/><path d="M183.7,330.453l16.778-.122,16.778-.051,33.566-.081,33.566.081,16.778.051,16.778.122-16.778.121-16.778.051-33.566.081-33.566-.081-16.778-.051Z" transform="translate(-147.916 -49.21)" fill="#ebebeb"/><rect width="76.791" height="19.35" rx="5" transform="translate(69.575 233.769)" fill="#ffc727"/><text transform="translate(94.443 245.337)" fill="#fff" font-size="11" font-family="SegoeUI-Bold, Segoe UI" font-weight="700"><tspan x="0" y="0">Join</tspan></text></g><g transform="translate(4.87 131.033)"><path d="M340.315,129.43l-.4.1a.243.243,0,0,1,.071-.122h0Z" transform="translate(-41.96 -129.41)" fill="#263238"/><path d="M351.822,418.332h-.182V418.2Z" transform="translate(-41.813 -125.789)" fill="#f7a9a0"/><path d="M144.36,349.74l2.4,14.408,16.282,87.9h2.622l-11.837-87.9-1.752-14.408Z" transform="translate(-44.412 -126.647)" fill="#dbdbdb"/><path d="M152.076,349.74H144.36l2.4,14.408h7.068Z" transform="translate(-44.412 -126.647)" fill="#a6a6a6"/><path d="M93.87,452.047H96.5l16.272-87.9,2.41-14.408h-7.726l-1.752,14.408Z" transform="translate(-45.045 -126.647)" fill="#dbdbdb"/><path d="M107.312,349.74l-1.752,14.408h7.068l2.41-14.408Z" transform="translate(-44.899 -126.647)" fill="#a6a6a6"/><path d="M45.65,452.047h2.622l16.282-87.9,2.4-14.408H59.238l-1.752,14.408Z" transform="translate(-45.65 -126.647)" fill="#dbdbdb"/><path d="M57.34,364.148h7.068l2.4-14.408H59.092Z" transform="translate(-45.503 -126.647)" fill="#a6a6a6"/><path d="M49.76,357.386H169.047V344.821H124.394L109.388,279.36H54.316Z" transform="translate(-45.598 -127.53)" fill="#dbdbdb"/><path d="M49.76,357.386h6.511L60.5,279.36H54.316Z" transform="translate(-45.598 -127.53)" fill="#a6a6a6"/><path d="M237.618,430.11c-2.086,1.225-66.331,14.651-69.106,13.619-1.013-.385-3.554-9.629-6.257-20.889-.587-2.43-1.175-4.941-1.762-7.493-3.807-16.6-7.493-34.234-7.493-34.234L195.952,372l6.278,34.528,1.387,7.574s26.9,5.863,29.819,7.321S239.714,428.895,237.618,430.11Z" transform="translate(-44.304 -126.368)" fill="#f7a9a0"/><path d="M237.53,429.693c-2.086,1.225-66.332,14.652-69.106,13.619-1.013-.385-3.554-9.629-6.257-20.889-.587-2.43-1.175-4.941-1.762-7.493-.142-.6-.273-1.195-.4-1.792l42.02-7.878.152.81,1.387,7.574s26.9,5.863,29.819,7.321S239.626,428.478,237.53,429.693Z" transform="translate(-44.216 -125.951)" fill="#ebebeb"/><path d="M237.874,429.61c-2.116,1.235-67.1,14.722-69.865,13.669-1.073-.385-3.584-9.72-6.3-21.1a3.628,3.628,0,0,1-.081-.354l41.828-9.174.132.719s27.177,5.944,30.133,7.432S239.97,428.385,237.874,429.61Z" transform="translate(-44.196 -125.858)" fill="#ffc727"/><path d="M236.5,427.07c-11.006,2.025-55.224,11.138-65.957,13.943-.081,0-.071.091,0,.071,10.956-1.752,55.092-11.229,65.977-13.841C236.822,427.192,236.73,427,236.5,427.07Z" transform="translate(-44.085 -125.678)" fill="#263238"/><path d="M207.692,411.81c-4.475.091-9.609,1.853-12.272,5.6-.1.152.111.294.233.223a61.668,61.668,0,0,1,12.151-5.265.284.284,0,0,0-.111-.557Z" transform="translate(-43.772 -125.869)" fill="#263238"/><path d="M211.152,413c-4.486.091-9.619,1.843-12.272,5.589-.1.152.1.294.233.223a61.408,61.408,0,0,1,12.15-5.265.284.284,0,0,0-.111-.547Z" transform="translate(-43.729 -125.854)" fill="#263238"/><path d="M214.6,414.24c-4.475.091-9.609,1.843-12.262,5.6-.111.142.1.284.233.213a61.147,61.147,0,0,1,12.15-5.265.283.283,0,0,0-.121-.547Z" transform="translate(-43.685 -125.838)" fill="#263238"/><path d="M211.289,401.4c-2.177-1.974-5.113-.273-6.6,1.61A23.5,23.5,0,0,0,200.1,414.25a.122.122,0,0,0,.132.132.547.547,0,0,0,.79.405c3.281-2.025,7.088-3.848,9.609-6.855C212.149,406.18,213.344,403.274,211.289,401.4Zm-5.923,9.245c-1.59,1.013-3.23,2.025-4.779,3.129.9-2.187,1.7-4.4,2.825-6.511a26.338,26.338,0,0,1,1.772-2.936c1.013-1.428,5.609-4.961,5.822-.081.132,2.693-3.746,5.154-5.64,6.4Z" transform="translate(-43.713 -126.01)" fill="#263238"/><path d="M189.107,415.316c3.868.77,7.928-.152,11.786-.567a.557.557,0,0,0,.375-.8.121.121,0,0,0,0-.192,23.37,23.37,0,0,0-10.571-5.984c-2.329-.567-5.69-.081-6.176,2.815C184.085,413.331,186.849,414.86,189.107,415.316Zm-2.582-2.673c-2.855-3.969,2.916-4.05,4.617-3.534a25.651,25.651,0,0,1,3.22,1.215,69.961,69.961,0,0,1,6.247,3.362c-1.9.091-3.787.344-5.69.5C192.651,414.374,188.095,414.84,186.525,412.643Z" transform="translate(-43.909 -125.922)" fill="#263238"/><path d="M180.6,460.706c-2.329.648-67.84-2.744-70.291-4.445-.527-.375.071-9.184.82-17.112C111.679,433.256,126,392.37,126,392.37l43.863,2.136-18.013,42.041s24.514,12.525,26.964,14.682S182.9,460.058,180.6,460.706Z" transform="translate(-44.842 -126.113)" fill="#f7a9a0"/><path d="M180.6,460.306c-2.329.648-67.84-2.744-70.291-4.445-.527-.375.071-9.184.82-17.112.182-1.944,1.853-7.675,4.05-14.489l40.269,3.564-3.564,8.3s24.514,12.525,26.964,14.682S182.9,459.658,180.6,460.306Z" transform="translate(-44.842 -125.713)" fill="#ebebeb"/><path d="M181.435,460.8c-2.359.638-68.61-3.26-71.04-5-.84-.587-.284-7.088.557-17.638.091-1.175,1.256-5.458,1.256-5.579l40.38,2.876-.051.719s24.686,12.819,27.156,15.026S183.794,460.162,181.435,460.8Z" transform="translate(-44.843 -125.608)" fill="#ffc727"/><path d="M180.835,457.916c-11.138-.932-56.226-3.635-67.314-3.706-.091,0-.1.061,0,.071,11.037,1.164,56.125,3.5,67.314,3.817C181.017,458.108,181.027,457.936,180.835,457.916Z" transform="translate(-44.8 -125.337)" fill="#263238"/><path d="M156.926,435.827c-4.354-1.083-9.761-.729-13.3,2.207-.142.111,0,.3.172.263a62.6,62.6,0,0,1,13.082-1.924.275.275,0,0,0,.051-.547Z" transform="translate(-44.422 -125.575)" fill="#263238"/><path d="M159.946,437.9c-4.344-1.083-9.761-.729-13.3,2.207-.142.111,0,.3.172.263a62.593,62.593,0,0,1,13.082-1.924.275.275,0,0,0,.051-.547Z" transform="translate(-44.384 -125.549)" fill="#263238"/><path d="M162.965,440.007c-4.344-1.073-9.761-.719-13.3,2.217-.132.111,0,.3.172.263a62.593,62.593,0,0,1,13.082-1.924.283.283,0,0,0,.051-.557Z" transform="translate(-44.346 -125.522)" fill="#263238"/><path d="M163.175,426.709c-1.59-2.471-4.87-1.59-6.794-.162a23.461,23.461,0,0,0-7.361,9.66.121.121,0,0,0,.091.162.547.547,0,0,0,.658.587c3.716-1.134,7.817-1.873,11.067-4.111C162.689,431.549,164.633,429.048,163.175,426.709Zm-8.1,7.392c-1.812.6-3.635,1.1-5.427,1.772a68.555,68.555,0,0,1,4.425-5.549,26.082,26.082,0,0,1,2.471-2.379c1.377-1.1,6.7-3.331,5.65,1.438-.658,2.633-5.032,4-7.189,4.729Z" transform="translate(-44.354 -125.701)" fill="#263238"/><path d="M138.044,434.376c3.524,1.762,7.7,1.924,11.523,2.521a.537.537,0,0,0,.567-.668.122.122,0,0,0,.071-.182,23.409,23.409,0,0,0-8.637-8.526c-2.106-1.154-5.478-1.559-6.7,1.114S136.018,433.353,138.044,434.376Zm-1.8-3.24c-1.721-4.577,3.868-3.119,5.387-2.207a24.531,24.531,0,0,1,2.784,2.025c1.853,1.488,3.463,3.21,5.154,4.87-1.863-.4-3.736-.658-5.62-1.013-2.217-.415-6.744-1.154-7.685-3.676Z" transform="translate(-44.535 -125.683)" fill="#263238"/><path d="M78.984,334.314c13.062,14.55,56.955,3.038,59.578,8.85,2.319,5.063-27.642,87.139-27.642,87.139l47.934,5.164s41.383-90.592,26.569-116.766c-7.989-14.176-43.195-8.505-64.438-11.087-6.409-.78-9.417-13.993-9.417-13.993H73.627S64.049,317.678,78.984,334.314Z" transform="translate(-45.337 -127.351)" fill="#0a1633"/><path d="M172.117,310.59l-40.248,30.8c-13.366-.284-42.628,4.344-52.885-7.088-14.935-16.636-5.356-40.694-5.356-40.694h37.96S114.625,306.824,121,307.6C135.919,309.426,157.689,307.168,172.117,310.59Z" transform="translate(-45.337 -127.351)" fill="#263238"/><path d="M160.1,423.2c-1.316-.415-13.75-1.8-16.494-2.1-5.488-.6-22.762-2.207-25.891-2.207a.081.081,0,0,0,0,.152c2.714.567,13.74,1.853,16.484,2.136,5.488.567,24.362,2.4,25.891,2.248a.121.121,0,0,0,.01-.233Z" transform="translate(-44.747 -125.78)" fill="#263238"/><path d="M144.309,338.318c-3.088-1.529-26.448-.77-43.215-2.339-5.458-.5-10.925-1.681-15.107-5.255a25.03,25.03,0,0,1-7.462-12.292c-1.61-5.731-1.448-11.695-1.175-17.568.071-1.448.172-2.886.263-4.334,0-.081-.142-.091-.152,0-1.276,10.51-2.248,22.276,4.587,31.389a21.891,21.891,0,0,0,12.221,8.009c10.125,2.663,48.116,2.025,49.463,3.038,1.59,1.225-22.985,76.042-23.471,77.469-.091.263.385.445.5.182C123.177,410.826,146.992,339.655,144.309,338.318Z" transform="translate(-45.263 -127.315)" fill="#263238"/><path d="M185.957,321.022c-2.258-5.741-7.412-9.305-15-10.672-.132,0-.121.162,0,.192,6.622,1.934,11.351,4.6,13.953,10.186,1.215,2.6,1.843,6.268,2.157,11.138,1.569,24.5-19.805,80.112-20.251,81.074a.075.075,0,1,0,.132.071C169.979,407.979,195.293,344.706,185.957,321.022Z" transform="translate(-44.131 -127.141)" fill="#263238"/><path d="M204.5,405.3l-36.289,7.716s28.635-85.458,15.188-96.485c-3.726-3.038-11.857-4.131-21.516,0-14.429,6.268-31.136,19.016-46.86,23.623-14.743,4.344-32.239.344-38.254-6.288-12.657-13.922-3.139-40.228-3.139-40.228l49.776-1.964s.223.638,2.714,2.845c0,0,32.108-6.956,45.433,1.185C195.6,310.392,204.5,405.3,204.5,405.3Z" transform="translate(-45.342 -127.375)" fill="#0a1633"/><path d="M96.035,296.621a.091.091,0,1,0-.182,0,29.829,29.829,0,0,1-.446,5.852,10.125,10.125,0,0,1-2.633,4.86c-2.855,2.9-6.966,3.878-10.713,5.063-.2.071-.162.415.061.385,4.162-.648,8.536-1.7,11.573-4.82a10.125,10.125,0,0,0,2.693-5.245A12.444,12.444,0,0,0,96.035,296.621Z" transform="translate(-45.195 -127.314)" fill="#263238"/><path d="M181.329,314.631c-5.579-3.5-14.307-.851-18.479.749-.091,0,0,.182,0,.142,3.838-1.377,13.4-3.473,18.509.152,11.816,8.364-4,65.582-14.358,97.072-.162.5.223.365.446-.111C169.159,408.9,182.514,369.1,186,342.77,186.574,338.74,189.328,319.674,181.329,314.631Z" transform="translate(-44.181 -127.109)" fill="#263238"/><path d="M199.1,394.36c-1.094,0-10.5,2.025-12.576,2.511-4.141.932-13.75,3.422-16,4.273-.051,0,0,.152.051.142,2.147-.2,7.159-1.306,9.224-1.782,4.141-.962,18.327-4.364,19.37-4.921C199.266,394.532,199.216,394.36,199.1,394.36Z" transform="translate(-44.084 -126.088)" fill="#263238"/><path d="M180.648,313.363a20.821,20.821,0,0,0-12.393-1.873,43.106,43.106,0,0,0-12.657,3.959c-8.5,3.878-16.585,8.627-25.081,12.485s-17.476,6.845-26.792,7.088c-7.969.253-18.043-1.154-23.167-8.313-7.888-11.037-3.291-30.072-3.2-31.3,0-.091-.122-.091-.142,0-6.075,23.39,1.752,32.472,7.088,36.289,4.222,3.038,10.277,3.807,14.287,4.141,9.265.78,18.56-1.488,27.146-4.911,8.8-3.5,17.061-8.222,25.5-12.535,8.1-4.141,17.092-8.4,26.326-6.075a22.394,22.394,0,0,1,3.038,1.013C180.669,313.475,180.7,313.384,180.648,313.363Z" transform="translate(-45.282 -127.329)" fill="#263238"/><path d="M134.728,240.56a.446.446,0,0,1-.354.476l-1.833.121c-1.64-4.283-3.412-7.675-2.947-6.349a22.063,22.063,0,0,1,1.144,6.45l-3.615.182c-1.428-7.523-3.26-13.1-3.149-11.381.466,6.946.051,9.184-.425,11.563-8.728.415-20.18.83-28.473.942-.952-4.151-1.792-8.657-1.934-8.343-1.134,2.349-1.438,5.761-1.458,8.394-2.643,0-4.749,0-6.075-.1,0,0-.618-3.493-.709-4.648a24.037,24.037,0,0,1,.921-8.769A43.536,43.536,0,0,1,89.65,221v-.061h0a24.3,24.3,0,0,0,2.2-5.427h0a24.926,24.926,0,0,0,.678-4.172c.385-5.134,3.271-9.579,8.1-10.946,9.113-8.6,18.226-4.992,21.02,1.6.263.638.516,1.377.77,2.177h0c.932,2.977,1.772,6.825,2.552,9.8h0a30.439,30.439,0,0,0,1.083,3.443C128.541,222.77,133.756,225.807,134.728,240.56Z" transform="translate(-45.159 -128.583)" fill="#263238"/><path d="M98.644,201.65a9.751,9.751,0,0,0-5.6,7.827,24.848,24.848,0,0,1-1.266,6.379,22.751,22.751,0,0,1-3.645,5.63,16.586,16.586,0,0,0-4.141,9.214,28.28,28.28,0,0,0,1.083,11.634h0a29.839,29.839,0,0,1-.425-12.15c.689-4.05,2.987-6.632,5.346-9.72a17.031,17.031,0,0,0,3.5-8.333c.233-1.853.2-3.777.952-5.528a10.925,10.925,0,0,1,4.425-4.6.223.223,0,0,0-.233-.354Z" transform="translate(-45.172 -128.504)" fill="#263238"/><path d="M131.032,223.046c-2.238-2.916-4.567-5.4-5.883-9.012-1.195-3.291-1.873-6.764-3.038-10.055h-.081c1.873,5.842,2.238,11.735,6.014,16.646a40.487,40.487,0,0,1,5.447,8.333,28.351,28.351,0,0,1,2.126,10.561.091.091,0,1,0,.182,0,23.6,23.6,0,0,0-4.769-16.474Z" transform="translate(-44.692 -128.475)" fill="#263238"/><path d="M161.239,214.4l-11,27.025a1.013,1.013,0,0,0,.719,1.62l14.449,2.025a2.369,2.369,0,0,0,2.217-1.2l10.986-27.025a1.013,1.013,0,0,0-.709-1.62L163.446,213.2a2.359,2.359,0,0,0-2.207,1.2Z" transform="translate(-44.341 -128.359)" fill="#37474f"/><path d="M162.929,214.635,151.943,241.65a1.012,1.012,0,0,0,.709,1.62L167.11,245.3a2.339,2.339,0,0,0,2.207-1.2l11.037-27.045a1.013,1.013,0,0,0-.709-1.62L165.187,213.4A2.38,2.38,0,0,0,162.929,214.635Z" transform="translate(-44.32 -128.357)" fill="#455a64"/><path d="M166.56,216.448a1.241,1.241,0,1,1-1.023-1.407A1.245,1.245,0,0,1,166.56,216.448Z" transform="translate(-44.165 -128.336)" fill="#263238"/><path d="M109.226,249.991c5.569,18.611,20.524,43.944,28.1,45.18,3.6.587,9.923,2.41,15.279-1.013,11.695-7.513,22.924-23.531,26.164-33.181,1.154-3.433-14.854-13.629-17.821-11.138-6.926,5.832-15.8,17.993-16.828,17.76-3.848-.881-17.142-15.8-26.407-26.326C106.452,228.576,106.988,242.57,109.226,249.991Z" transform="translate(-44.869 -128.072)" fill="#f7a9a0"/><path d="M181.124,242.994c-.749-7.422-2.076-9.214.618-15.826,1.772-4.334-.233-7.321-3.959-4.192-6.075,5.123-7.149,14.915-6.531,18.408Z" transform="translate(-44.077 -128.253)" fill="#f7a9a0"/><path d="M176.891,264.125s4.688-9.5,4.678-17.487c0-5.528-1.367-17.557-15.593-25.921-3.372-2.025-9.589-2.42-5.255,2.825,3.038,3.716,6.156,5.154,7.554,7.645,0,0-7.969.385-9.832,3.838a73.182,73.182,0,0,0-4.2,9.386,17.009,17.009,0,0,0,1.681.942s-1.63,3.291.2,8.576Z" transform="translate(-44.288 -128.282)" fill="#f7a9a0"/><path d="M180.794,241.262c-1.914-2.187-6.075-6.733-10.7-9.285-5.184-2.835-15.937-6.9-17.983-3.038-1.509,2.815,2.46,4.729,2.46,4.729s-4.8-.739-5.6,2.106c-.729,2.592,2.43,3.888,2.43,3.888s-3.038.051-3.22,2.683c-.263,3.169,6.075,2.541,8.546,5.994C157.283,249.1,180.794,241.262,180.794,241.262Z" transform="translate(-44.364 -128.182)" fill="#f7a9a0"/><path d="M167.937,237.874a23.552,23.552,0,0,0-13.345-4.354c-.121,0-.182.091-.071.111a57.8,57.8,0,0,1,13.386,4.293Z" transform="translate(-44.286 -128.104)" fill="#263238"/><path d="M164.96,242.954a26.408,26.408,0,0,0-13.578-3.554c-.122,0-.172.1-.061.121a61.767,61.767,0,0,1,13.619,3.524S164.99,242.964,164.96,242.954Z" transform="translate(-44.326 -128.031)" fill="#263238"/><path d="M177.88,268.258S159.654,293.9,151.007,295.88s-13.426.537-16.393-.375a8.1,8.1,0,0,1-2.987-2.025c-7.351-7.088-18.975-30.113-23.207-42.7-3.169-9.457-1.478-17.335,4.941-13.75a22.943,22.943,0,0,1,5.68,4.951c10.946,12.363,23.967,24.534,24.716,24.3s9.65-10.571,9.65-10.571Z" transform="translate(-44.882 -128.072)" fill="#ffc727"/><path d="M173.076,272.484c-.861-.658-9.113-5.407-10.976-6.4s-9.244-5.123-11.209-5.994a.081.081,0,0,0-.081.132c1.772,1.215,9.244,5.407,11.077,6.45s10.125,5.569,11.138,5.944C173.1,272.646,173.127,272.534,173.076,272.484Z" transform="translate(-44.332 -127.771)" fill="#263238"/><path d="M137.82,261.19a131.628,131.628,0,0,1-19.613,11.725c-1.62-3.1-3.179-6.268-4.587-9.346a114.937,114.937,0,0,0,16.768-9.619C133.142,256.724,135.693,259.205,137.82,261.19Z" transform="translate(-44.798 -127.848)" fill="#ebebeb"/><path d="M157.133,292.214c-2.288,1.914-4.4,3.27-6.146,3.665-8.627,2.025-13.426.537-16.393-.375a8.1,8.1,0,0,1-2.987-2.025c-7.351-7.088-18.975-30.113-23.207-42.7-2.876-8.576-1.752-15.846,3.26-14.459C123.111,250.3,144.871,277.1,157.133,292.214Z" transform="translate(-44.883 -128.071)" opacity="0.1"/><path d="M125.252,277.13l2.025,16.525-57.077,3.7s13.163-47.964,23.521-58.586c6.987-7.189,14.935-6.419,19.876-1.134,1.245,1.337,14.257,17.213,15.664,24.959C130.487,269.445,125.252,277.13,125.252,277.13Z" transform="translate(-45.342 -128.104)" fill="#ffc727"/><path d="M127.617,272.179c-10.834,1.539-33.232,3.888-49.807.142,1.539-4.486,3.23-9.113,4.992-13.548a156.255,156.255,0,0,0,44.775-1.013,18.7,18.7,0,0,1,1.59,4.516C129.784,265.719,128.771,269.364,127.617,272.179Z" transform="translate(-45.247 -127.8)" fill="#ebebeb"/><path d="M125.7,286.037c-.506-3.038-.952-6.075-1.367-9.062v-.091l.061-.1a27,27,0,0,0,3.27-6.987,17.8,17.8,0,0,0,.719-3.767,11.949,11.949,0,0,0-.2-3.8,19.869,19.869,0,0,0-1.164-3.676,31.837,31.837,0,0,0-1.64-3.534,66.635,66.635,0,0,0-4.05-6.693,46.505,46.505,0,0,1,4.5,6.45,26.2,26.2,0,0,1,3.038,7.3,15.188,15.188,0,0,1-.506,7.928,24.877,24.877,0,0,1-3.524,7.088V276.9C125.188,279.952,125.471,282.989,125.7,286.037Z" transform="translate(-44.701 -127.919)" fill="#263238"/><path d="M124.17,250.49a14.054,14.054,0,0,1,1.529,2.916,11.856,11.856,0,0,1,.516,1.569,6.43,6.43,0,0,1,.243,1.64c-.395-1.013-.83-2.025-1.225-3.038A28.627,28.627,0,0,1,124.17,250.49Z" transform="translate(-44.665 -127.892)" fill="#263238"/><path d="M95.6,236.138c-20.089,10.2-43.144,33.221-41.8,40.886,1.509,8.526,30.376-5.893,30.083-7.169-.253-1.094,5.812-10.257,14.479-23.39C107.182,233.11,100.58,233.616,95.6,236.138Z" transform="translate(-45.548 -128.089)" fill="#ffc727"/><path d="M89.8,259.085c-2.663,4.121-4.6,7.23-5.488,8.991a145.706,145.706,0,0,1-20.251-8.283c2.379-2.5,5.063-5.063,7.959-7.6a117.59,117.59,0,0,0,17.78,6.9Z" transform="translate(-45.419 -127.87)" fill="#ebebeb"/><path d="M53.8,276.609c1.762,5.954,10.652,9.943,32.087,22.1,2.967,1.681,20.463-16.059,17.385-18.013C99.405,278.229,83.843,269.491,82.618,269,72.34,264.823,52.606,272.559,53.8,276.609Z" transform="translate(-45.548 -127.675)" fill="#f7a9a0"/><path d="M98.749,278s9.224,4.718,13.3,8.688a36.8,36.8,0,0,1,8.87,15.107c1.843,6.126,2.076,22.2-2.541,23.076-4.182.8-3.595-15.654-3.595-15.654s2.167,16.869-3.038,16.9-3.433-19.026-3.433-19.026,1.833,17.385-3.544,16.565c-4.05-.628-3.433-17.973-3.433-17.973s1.478,14.955-2.734,14.489c-4.648-.506-5.063-16.555-5.063-16.555-10.47-2.977-14.3-8.677-16.545-13.062C76.5,289.492,98.749,278,98.749,278Z" transform="translate(-45.257 -127.547)" fill="#f7a9a0"/><path d="M114,303c.334,1.974.678,3.969.82,5.964s.233,4.05.192,5.994a34.284,34.284,0,0,1-.881,7.766c.719-4.6.294-11.745.142-13.74S114,305.025,113.88,303Z" transform="translate(-44.794 -127.233)" fill="#263238"/><path d="M106.831,303.41c.3,2.541.709,5.063.9,7.6s.152,4.961.172,7.5c0,.2-.1.132-.111-.061-.122-2.541-.425-4.891-.577-7.422s-.2-5.063-.446-7.614C106.77,303.38,106.831,303.38,106.831,303.41Z" transform="translate(-44.884 -127.228)" fill="#263238"/><path d="M100.662,302.661a58.131,58.131,0,0,1,.486,11.715c0,.2-.142.1-.142-.1-.091-3.9-.132-6.956-.486-11.594C100.52,302.61,100.642,302.58,100.662,302.661Z" transform="translate(-44.962 -127.238)" fill="#263238"/><path d="M103.617,278.625s-24.665,18.8-24.919,18.742S54.195,283,53.8,276.61s19.684-11.189,28.8-7.655S103.617,278.625,103.617,278.625Z" transform="translate(-45.548 -127.675)" fill="#ffc727"/><path d="M95.015,275.81c-1.013.577-8.758,6.855-10.419,8.252s-8.515,7.088-10.125,8.647a.081.081,0,0,0,.1.121c1.863-1.255,8.789-6.946,10.51-8.343s9.3-7.766,10.034-8.576C95.187,275.841,95.086,275.77,95.015,275.81Z" transform="translate(-45.289 -127.574)" fill="#263238"/><path d="M71.41,268c2.116-.334,7.938-.82,12.667,1.549v.071a38.71,38.71,0,0,0-12.626-1.539S71.349,268,71.41,268Z" transform="translate(-45.327 -127.676)" fill="#263238"/><path d="M101.742,280.018l1.488-1.215v.121l-4.891-2.43c-1.63-.81-3.271-1.59-4.921-2.359-3.291-1.559-6.612-3.038-9.984-4.394l-.395-.162.2-.364c1.883-3.433,3.827-6.814,5.913-10.125a110.531,110.531,0,0,1,6.7-9.589q-3.25,4.86-6.207,9.882c-1.974,3.362-3.929,6.723-5.741,10.125l-.192-.516c3.392,1.377,6.7,2.916,9.974,4.536,1.62.82,3.24,1.671,4.85,2.531s3.179,1.772,4.759,2.683l.1.061-.091.061Z" transform="translate(-45.181 -127.904)" fill="#263238"/><path d="M90.82,256.78a20.788,20.788,0,0,1,1.893-2.2,15.19,15.19,0,0,1,2.228-1.863,15.853,15.853,0,0,1-1.863,2.228c-.354.334-.7.668-1.073,1.013A7.694,7.694,0,0,1,90.82,256.78Z" transform="translate(-45.084 -127.864)" fill="#263238"/><path d="M71.33,292.6a22.659,22.659,0,0,1,5.741,3.564,19.837,19.837,0,0,1-3.038-1.569,20.762,20.762,0,0,1-2.7-1.995Z" transform="translate(-45.328 -127.364)" fill="#263238"/><path d="M92.85,237.347s10.389,9.417,17.851,8.971,6.359-6.551,6.359-6.551-5.346-6.359-12.636-6.247A19.076,19.076,0,0,0,92.85,237.347Z" transform="translate(-45.058 -128.104)" fill="#f7a9a0"/><path d="M102,237c.263,1.5,3.817,8.3,8.384,8.1,2.349-.071,2.4-8.3,2.4-8.3l.111-.608,1.62-8.475-11.533-6.825S101.879,236.574,102,237Z" transform="translate(-44.943 -128.263)" fill="#f7a9a0"/><path d="M102.55,226.763a17.335,17.335,0,0,0,10.308,9.427l1.62-8.475-11.543-6.835S102.753,223.594,102.55,226.763Z" transform="translate(-44.936 -128.263)" fill="#263238"/><path d="M126.4,215.058c1.326,15.077-7.554,17.568-10.8,17.851-2.957.253-13.042.749-15.917-14.1s3.726-20.251,10.439-21.192S125.083,199.971,126.4,215.058Z" transform="translate(-44.981 -128.557)" fill="#f7a9a0"/><path d="M123.526,211.52a8.656,8.656,0,0,1-1.013-.192,1.65,1.65,0,0,1-1.013-.385.537.537,0,0,1,0-.658,1.337,1.337,0,0,1,1.306-.354,1.965,1.965,0,0,1,1.245.658.577.577,0,0,1-.527.932Z" transform="translate(-44.7 -128.401)" fill="#263238"/><path d="M113.948,211.841c.354-.061.668-.162,1.013-.253a1.63,1.63,0,0,0,1.013-.446.537.537,0,0,0,0-.658,1.337,1.337,0,0,0-1.326-.273,2.025,2.025,0,0,0-1.2.729.577.577,0,0,0,.506.9Z" transform="translate(-44.801 -128.398)" fill="#263238"/><path d="M116.012,215.53s-.081.051-.071.091c.081,1.013,0,2.217-.9,2.612v.051C116.215,218.031,116.3,216.492,116.012,215.53Z" transform="translate(-44.78 -128.33)" fill="#263238"/><path d="M115.1,214.51c-1.661,0-1.62,3.291-.081,3.331S116.483,214.551,115.1,214.51Z" transform="translate(-44.795 -128.343)" fill="#263238"/><path d="M114.455,214.7c-.284.192-.567.527-.911.567s-.719-.3-1.013-.638h-.061c0,.638.253,1.286.942,1.377s1.013-.5,1.215-1.134C114.677,214.792,114.576,214.62,114.455,214.7Z" transform="translate(-44.812 -128.341)" fill="#263238"/><path d="M121.641,215.28s.081.051.081.091c0,1.013.111,2.217,1.013,2.552v.061C121.621,217.832,121.448,216.252,121.641,215.28Z" transform="translate(-44.698 -128.333)" fill="#263238"/><path d="M122.552,214.21c1.661-.132,1.812,3.19.273,3.311S121.165,214.321,122.552,214.21Z" transform="translate(-44.698 -128.347)" fill="#263238"/><path d="M123.243,214.4c.263.162.537.466.861.476s.618-.365.83-.719h0c.051.638-.132,1.306-.739,1.458s-1.013-.385-1.164-1.013C123.05,214.514,123.131,214.332,123.243,214.4Z" transform="translate(-44.68 -128.347)" fill="#263238"/><path d="M115.752,223.55c.182.284.354.658.719.77a2.521,2.521,0,0,0,1.134,0s.061,0,0,.061a1.377,1.377,0,0,1-1.4.273,1.094,1.094,0,0,1-.6-1.063A.083.083,0,0,1,115.752,223.55Z" transform="translate(-44.773 -128.23)" fill="#263238"/><path d="M120.334,219.964s.253,1.539.273,2.258a3.888,3.888,0,0,1-3.838-1.073c-.061-.061,0-.152.111-.1a5.184,5.184,0,0,0,3.169.82c0-.2-.516-2.612-.405-2.622a6.2,6.2,0,0,1,1.661.334c-.425-3.21-1.367-6.328-1.752-9.528a.1.1,0,0,1,.192-.051,52.3,52.3,0,0,1,2.319,10.176C122.137,220.592,120.628,220.126,120.334,219.964Z" transform="translate(-44.758 -128.4)" fill="#263238"/><path d="M119.62,222.014a3.737,3.737,0,0,1-1.5,1.175,1.661,1.661,0,0,1-1.013.071c-.739-.192-.77-.871-.638-1.448a4.051,4.051,0,0,1,.334-.9,4.789,4.789,0,0,0,2.815,1.1Z" transform="translate(-44.763 -128.263)" fill="#263238"/><path d="M118.121,223.2a1.66,1.66,0,0,1-1.013.071c-.739-.192-.77-.871-.638-1.448a1.731,1.731,0,0,1,1.65,1.377Z" transform="translate(-44.763 -128.251)" fill="#ff9bbc"/><path d="M101.891,199.64c1.337-.385,3.129-7.533-1.377-11.351s-10.905-.344-8.8,5.792C93.021,197.96,99.1,200.45,101.891,199.64Z" transform="translate(-45.078 -128.692)" fill="#263238"/><path d="M93.913,187.34a8.181,8.181,0,0,0-3.108,4.384A4.931,4.931,0,0,0,91.9,196.5a9.983,9.983,0,0,0,4.556,2.683,15.108,15.108,0,0,0,2.693.537,7.473,7.473,0,0,0,2.764-.091,6.521,6.521,0,0,1-2.784.6,11.493,11.493,0,0,1-2.876-.263,9.579,9.579,0,0,1-5.123-2.764,5.721,5.721,0,0,1-1.377-2.724,5.782,5.782,0,0,1,.294-3.038A7.088,7.088,0,0,1,93.913,187.34Z" transform="translate(-45.098 -128.684)" fill="#263238"/><path d="M100.551,218.4c2.815.4,3.655-6.075,3.655-6.075s12.069-1.843,13.254-11.624a16.575,16.575,0,0,0,8.212,9.214s-.233-10.753-8.718-12.981c0,0-10.51-4.05-16.6,4.263S98.657,218.125,100.551,218.4Z" transform="translate(-45.003 -128.576)" fill="#263238"/><path d="M117.395,199.94a10.51,10.51,0,0,1-.608,4.465,11.138,11.138,0,0,1-2.339,3.929c-.243.294-.557.526-.83.8l-.425.385c-.142.122-.3.223-.456.334-.324.213-.628.446-.952.648l-1.013.527-.506.253-.537.192-1.013.395c-.739.182-1.478.344-2.207.476.7-.284,1.407-.5,2.086-.79l1.013-.476.5-.233c.162-.081.314-.182.476-.284s.618-.385.942-.567a7.847,7.847,0,0,0,.871-.658l.435-.324.395-.375a9.2,9.2,0,0,0,.77-.77,12.6,12.6,0,0,0,2.359-3.645,14.388,14.388,0,0,0,1.094-4.283Z" transform="translate(-44.887 -128.526)" fill="#263238"/><path d="M102.358,217.636s-3.3-4.718-5.447-3.544.344,8.029,2.865,8.961a2.562,2.562,0,0,0,3.433-1.377Z" transform="translate(-45.017 -128.35)" fill="#f7a9a0"/><path d="M97.65,216v.061a6.521,6.521,0,0,1,3.352,4.05,1.407,1.407,0,0,0-2.116-.385s0,.1,0,.091a1.58,1.58,0,0,1,1.731.547,8.475,8.475,0,0,1,.83,1.4c.081.162.365.081.3-.1h0C101.822,219.382,100.029,216.243,97.65,216Z" transform="translate(-44.998 -128.324)" fill="#263238"/><path d="M100,222.4a.658.658,0,0,0,.8.456.65.65,0,0,0-.334-1.256.658.658,0,0,0-.466.8Z" transform="translate(-44.969 -128.254)" fill="#455a64"/><path d="M100.34,222.3a.294.294,0,0,0,.375.213.283.283,0,1,0-.375-.213Z" transform="translate(-44.964 -128.249)" fill="#263238"/><path d="M98.89,221.617a.466.466,0,1,0,.324-.567A.466.466,0,0,0,98.89,221.617Z" transform="translate(-44.983 -128.261)" fill="#455a64"/></g><g transform="translate(307.947 299.672)"><path d="M400.1,324.544a50.445,50.445,0,0,1-1.013,19.39,53.035,53.035,0,0,1-2.977,8.576c-1.539,3.554-3.149,7.017-2.764,10.895.375.253-.911.213-.952-.162-10.379-5.913-23.683-7-31.672-16.656-3.777-4.567-5.69-10.368-6.592-16.2-1.013-6.308-1.256-13.3.375-19.522,1.377-5.265,4.445-10.338,9.4-12.92s11.786-2.43,17.163-.77C392.687,300.81,398.459,313.325,400.1,324.544Z" transform="translate(-344.868 -295.96)" fill="#ffc727"/><path d="M405.317,401.214q-2.126-7.088-4.283-14.176c-2.855-9.214-5.812-18.408-9.113-27.49q-2.946-8.161-6.217-16.15a96.642,96.642,0,0,1,1.245-10.034c.861-4.05,2.126-7.908,3.3-11.847.071-.243-.324-.365-.425-.142-2.329,5.427-5.366,12.363-5.447,18.793q-3.8-9.052-8.151-17.851a77.039,77.039,0,0,1,.456-14.874.182.182,0,0,0-.354-.061,53.09,53.09,0,0,0-1.013,13.163q-3.341-6.612-7.088-13.041c-.223-.385-.759,0-.557.395,3.9,7.5,7.513,15.188,10.905,22.934a49.917,49.917,0,0,0-16.271-9.417c-.253-.091-.446.283-.182.395a59.284,59.284,0,0,1,17.588,11.644q3.665,8.536,6.976,17.213c-6.49-6.369-15.37-10.551-23.967-12.8-.294-.071-.375.375-.091.456,9.943,3.038,17.669,8.637,25.233,15.411.881,2.329,1.742,4.678,2.592,7.017q4.8,13.335,9.113,26.842,2.1,6.46,4.121,12.95c1.448,4.658,2.582,9.569,4.475,14.064.172.425.952.324.851-.192C408.243,409.932,406.623,405.557,405.317,401.214Z" transform="translate(-344.759 -295.819)" fill="#263238"/><path d="M387.826,315.221a25.648,25.648,0,0,0-3.736,9.315.081.081,0,0,0,.152.051,79.159,79.159,0,0,1,4.05-9.113C388.444,315.14,388.049,315,387.826,315.221Z" transform="translate(-344.482 -295.72)" fill="#263238"/><path d="M369.617,336.609a27.41,27.41,0,0,0-9.315-3.139c-.081,0-.132.111-.051.152,1.5.618,3.038,1.013,4.587,1.64s3.038,1.286,4.546,1.823a.265.265,0,1,0,.233-.476Z" transform="translate(-344.782 -295.49)" fill="#263238"/><path d="M364.39,310.9a18.334,18.334,0,0,0-3.038-1.843.162.162,0,0,0-.172.263,18.7,18.7,0,0,0,2.957,1.914C364.36,311.348,364.573,311.025,364.39,310.9Z" transform="translate(-344.77 -295.796)" fill="#263238"/><path d="M434.468,359.7c-7.483,2.217-14.986,4.273-22.458,6.46-.648.2-13.284-24.007-8.718-36.451,4.222-11.543,13.882-20.18,25.395-24.1,5.336-1.812,11.9-3.341,17.537-2.1,5.012,1.114,8.556,5.215,10.186,9.923,2.217,6.409,1.478,14.054.263,20.6-1.114,6.075-3.341,12.039-7.351,16.8S440.291,357.97,434.468,359.7Z" transform="translate(-344.254 -295.871)" fill="#ffc727"/><path d="M445.319,336.5a99.742,99.742,0,0,1-14.662,5.771,61.876,61.876,0,0,0-9.781,3.544c3.159-7.088,6.622-13.933,10.3-20.757,4.83-1.4,9.9-3.574,13.548-7,.2-.182-.061-.466-.273-.314-3.979,2.815-8.374,4.506-12.778,6.409,1.013-1.833,2.025-3.676,3.038-5.5.283-.516-.415-1.013-.759-.526a155.7,155.7,0,0,0-10.672,17.841,81.572,81.572,0,0,1-.77-16.342.111.111,0,0,0-.223,0,54.507,54.507,0,0,0,.182,17.952c-2.612,5.235-5,10.591-7.148,16.018-.851-3.26-1.964-6.47-2.7-9.751a44.969,44.969,0,0,1-1.073-14.388.106.106,0,1,0-.213,0,50.7,50.7,0,0,0,3.139,26.417c-1.256,3.26-2.45,6.541-3.534,9.822a196.058,196.058,0,0,0-9.923,51.852.324.324,0,0,0,.638.051,256.921,256.921,0,0,1,11.138-51.245c2.167-6.511,4.668-12.839,7.4-19.046,4.415-1.306,8.809-3.038,13.163-4.577s8.566-3.159,12.151-5.944a.173.173,0,1,0-.182-.294Z" transform="translate(-344.27 -295.688)" fill="#263238"/><path d="M451.818,329.33c-4.577,1.62-8.9,3.9-13.467,5.549-.223.071-.091.415.121.365,4.83-1.013,9.619-2.491,13.517-5.66C452.173,329.462,451.97,329.269,451.818,329.33Z" transform="translate(-343.803 -295.542)" fill="#263238"/><path d="M414.813,319.593c0-.243-.3-.385-.375-.132-1.256,4.212-2.116,8.677-.9,12.991.051.162.314.172.324,0C414.084,328.109,413.841,323.866,414.813,319.593Z" transform="translate(-344.12 -295.667)" fill="#263238"/><path d="M433.465,310a11.138,11.138,0,0,0-2.025,7.159c0,.162.263.253.314.061.557-2.41,1.488-4.607,2.228-6.946a.314.314,0,0,0-.516-.273Z" transform="translate(-343.889 -295.785)" fill="#263238"/><path d="M346.286,369.726c2.2,6.956,7.4,16.565,15.644,16.636,5.346,0,10.733-.577,16.089-.658,5.731-.081,11.482-.071,17.213.273.476,0-.678-17.213-14.469-25.556-3.868-2.349-8.586-3.1-12.971-4.05a59.632,59.632,0,0,0-15.32-1.6c-3.169.122-5.8.8-6.936,4.05C344.352,362.212,345.243,366.414,346.286,369.726Z" transform="translate(-344.973 -295.223)" fill="#ffc727"/><path d="M352.135,360.981q5.027,1.306,10.125,2.926a35.071,35.071,0,0,0-2.774-2.714c-1.448-1.195-3.038-2.157-4.587-3.21-.132-.091-.051-.334.111-.273a19.025,19.025,0,0,1,8.1,6.47c4.182,1.357,8.333,2.845,12.333,4.486a46.43,46.43,0,0,1,7.9,4.162,31.787,31.787,0,0,0-2.855-4.972c-1.833-2.369-4.3-3.7-6.7-5.377A.215.215,0,1,1,374,362.1a19.583,19.583,0,0,1,10.753,11.664,46.048,46.048,0,0,1,7.827,7.088c9.113,10.368,16.3,24.149,16.332,38.223,0,.334-.537.425-.608.081-2.582-13.973-8.1-26.529-17.4-37.373q-1.013-1.134-2.025-2.187a62.4,62.4,0,0,0-7.533-.557c-2.936,0-5.852.425-8.769.668-4.82.385-10.125.445-14.479-1.974-.192-.111-.061-.446.152-.365,9.68,3.524,19.826-.942,29.536,1.154A45.4,45.4,0,0,0,373.47,369.3l-.891-.354c-6.207.739-12.768,2.359-18.813.344a.152.152,0,0,1,.081-.294c5.842,1.468,11.452-.375,17.213-.668-6.278-2.44-12.677-4.384-18.985-6.814C351.578,361.325,351.568,360.839,352.135,360.981Z" transform="translate(-344.888 -295.186)" fill="#263238"/><path d="M349.432,367a81.785,81.785,0,0,0,9.042.689.066.066,0,0,1,0,.132,18.732,18.732,0,0,1-9.113-.587C349.219,367.172,349.28,367,349.432,367Z" transform="translate(-344.919 -295.07)" fill="#263238"/><path d="M369.594,361.09a14.856,14.856,0,0,1,4.475,3.119c.162.142-.051.415-.223.294-.759-.557-1.539-1.073-2.329-1.58a23.962,23.962,0,0,1-2.177-1.377.273.273,0,0,1,.253-.456Z" transform="translate(-344.668 -295.144)" fill="#263238"/><path d="M417.68,383.484c-.1.223.223.435.354.2h0a.294.294,0,0,0,.213.142,138.62,138.62,0,0,0,16.849,2.936c4.556.405,9.811.658,13.8-2.025,5.407-3.584,8.971-13.163,6.075-19.238-3.463-7.23-13.882-3.3-19.117-.729a38.344,38.344,0,0,0-18.175,18.712Z" transform="translate(-344.061 -295.14)" fill="#ffc727"/><path d="M413.888,386.773a53.382,53.382,0,0,1,10.065-7.655,34.325,34.325,0,0,1,10.2-10.4c.2-.142.364.172.182.314a46.219,46.219,0,0,0-8.586,9.042,94.587,94.587,0,0,1,12.616-5.741,16.829,16.829,0,0,1,6.774-6.794c.061,0,.132,0,.071.1a27.856,27.856,0,0,0-6.075,6.419c2.562-.952,5.154-1.843,7.736-2.7.233-.081.324.273.1.365-4.607,1.8-9.315,3.7-13.882,5.883a53.189,53.189,0,0,0,16.808-.051c.162,0,.223.2.071.243a33.161,33.161,0,0,1-17.841.263,86.046,86.046,0,0,0-8.455,4.739,20.948,20.948,0,0,1,6.835.567,52.214,52.214,0,0,0,12.019,1.357.142.142,0,0,1,0,.273c-6.966,1.195-13.558-1.974-20.463-1.144a52.659,52.659,0,0,0-7.2,5.873,54.1,54.1,0,0,0-10.5,14.813c-2.906,5.913-4.486,12.15-6.835,18.307a.223.223,0,0,1-.425-.121C399.1,408.664,405.1,395.369,413.888,386.773Z" transform="translate(-344.319 -295.088)" fill="#263238"/><path d="M434.45,370.216a7.969,7.969,0,0,1,1.782-2.167,7.148,7.148,0,0,1,2.025-1.539.076.076,0,0,1,.061.121c-.567.648-1.367,1.124-2.025,1.742s-1.134,1.357-1.762,1.974a.1.1,0,0,1-.081-.132Z" transform="translate(-343.851 -295.076)" fill="#263238"/><path d="M445.8,373.887c1.013-.263,2.136-.243,3.179-.456a30.022,30.022,0,0,0,3.088-.921.122.122,0,0,1,.091.223,10.217,10.217,0,0,1-6.359,1.478A.17.17,0,0,1,445.8,373.887Z" transform="translate(-343.71 -295)" fill="#263238"/><path d="M385.31,405.37l.921,10.389,3.109,35.084h27.47l3.878-35.084,1.154-10.389Z" transform="translate(-344.467 -294.588)" fill="#455a64"/><path d="M385.31,405.37l.921,10.389h34.457l1.154-10.389Z" transform="translate(-344.467 -294.588)" fill="#263238"/><rect width="41.97" height="8.434" transform="translate(80.089 116.371) rotate(180)" fill="#455a64"/></g><text transform="translate(205.853 107.222)" fill="#fff" font-size="11" font-family="SegoeUI-Bold, Segoe UI" font-weight="700"><tspan x="0" y="0">qcoin</tspan></text><g transform="translate(183.825 97.527)"><ellipse cx="8.472" cy="8.896" rx="8.472" ry="8.896" transform="translate(0 0)" fill="#fff"/><g transform="translate(3.305 3.49)"><g transform="translate(0 0)"><g clip-path="url(#a)"><path d="M6.425,9.881A5.038,5.038,0,1,1,9.872,6.444l-3.12-3.12A2.428,2.428,0,0,0,3.318,6.758Z" transform="translate(0 -0.005)" fill="#0d1c3e"/></g></g><path d="M56.675,56.817a1.365,1.365,0,0,0,0-1.931l-2.251-2.251a1.365,1.365,0,0,0-1.931,1.931l2.251,2.251a1.365,1.365,0,0,0,1.931,0" transform="translate(-46.848 -46.976)" fill="#ffb500"/></g></g></g></g></svg>