<svg xmlns="http://www.w3.org/2000/svg" width="691.391" height="705.189" viewBox="0 0 691.391 705.189"><g transform="translate(-1116.35 -3567.134)"><g transform="translate(1116.35 3567.134)"><path d="M73.617,248.676S29.251,363.251,91.6,478.622s190.767,176.318,293.55,228.433,209.513,26.734,260.228-58.624-18.841-146.29-18.937-268.009S644.66,226.478,578.7,123.647,351.047-1.956,228.77,74.316,73.617,248.676,73.617,248.676Z" transform="translate(-21.262 -29.116)" fill="#acc8ff" opacity="0.7"/><path d="M189.34,650.291c37.555,39.656,129.756,25.127,169.7,0,129.692-81.555,356.9-217.326,367.2-414.013,4.376-83.592-69.35-127.5-100.142-140.37C552.16,64.973,471,55.7,390.88,52.115c-83.655-3.74-173.453-.827-248.739,39.99-28.548,15.452-55.473,35.327-73.9,62.38-18.714,27.5-29.487,60.247-32.351,93.3-4.6,53.309,9.739,106.761,31.428,155.678s50.6,94.206,77.147,140.672C161.794,574.417,157.768,616.889,189.34,650.291Z" transform="translate(-35.03 -16.224)" fill="#acc8ff"/><path d="M189.34,650.291c37.555,39.656,129.756,25.127,169.7,0,129.692-81.555,356.9-217.326,367.2-414.013,4.376-83.592-69.35-127.5-100.142-140.37C552.16,64.973,471,55.7,390.88,52.115c-83.655-3.74-173.453-.827-248.739,39.99-28.548,15.452-55.473,35.327-73.9,62.38-18.714,27.5-29.487,60.247-32.351,93.3-4.6,53.309,9.739,106.761,31.428,155.678s50.6,94.206,77.147,140.672C161.794,574.417,157.768,616.889,189.34,650.291Z" transform="translate(-35.03 -16.224)" fill="#acc8ff" opacity="0.7"/></g><g transform="translate(1125.047 3614.178)"><g transform="translate(0)"><rect width="122.925" height="170.109" transform="translate(410.383 415.987)" fill="#ebebeb"/><rect width="134.836" height="6.311" transform="translate(404.434 409.676)" fill="#dbdbdb"/><rect width="42.405" height="6.311" transform="translate(539.271 409.676)" fill="#ebebeb"/><rect width="41.653" height="170.109" transform="translate(533.308 415.987)" fill="#dbdbdb"/><path d="M437.728,370.525h-96.5V316h96.5Zm-96.122-.348h95.8V316.32h-95.83Z" transform="translate(82.373 124.212)" fill="#c7c7c7"/><rect width="18.779" height="10.796" transform="translate(458.388 456.135)" fill="#c7c7c7"/><path d="M389.187,337.4H370.06V327.89h19.127Zm-18.779-.348h18.43v-8.818h-18.43Z" transform="translate(93.706 128.886)" fill="#c7c7c7"/><path d="M437.728,419.693h-96.5V365.14h96.5Zm-96.122-.348h95.8V365.488h-95.83Z" transform="translate(82.373 143.528)" fill="#c7c7c7"/><rect width="18.779" height="10.796" transform="translate(458.388 524.619)" fill="#c7c7c7"/><path d="M389.187,386.565H370.06V377.05h19.127Zm-18.779-.348h18.43V377.4h-18.43Z" transform="translate(93.706 148.21)" fill="#c7c7c7"/><rect width="1.393" height="128.344" transform="translate(66.516)" fill="#c7c7c7"/><path d="M142.543,129.786l-3.594,7.871H56.98l-3.58-7.871L88.311,105.63h19.322Z" transform="translate(-30.766 41.521)" fill="#ebebeb"/><path d="M100.89,88.92,98.466,112.2H79.144L76.72,88.92Z" transform="translate(-21.6 34.952)" fill="#dbdbdb"/><path d="M142.529,122.97l-3.58,7.885H56.98L53.4,122.97Z" transform="translate(-30.766 48.337)" fill="#dbdbdb"/><rect width="1.393" height="102.921" transform="translate(162.192)" fill="#c7c7c7"/><path d="M211.233,111.536l-3.594,7.885H125.67l-3.58-7.885L157,87.38h19.322Z" transform="translate(-3.766 34.347)" fill="#ebebeb"/><path d="M169.58,70.67l-2.424,23.278H147.834L145.41,70.67Z" transform="translate(5.401 27.779)" fill="#dbdbdb"/><path d="M211.219,104.72l-3.58,7.885H125.67l-3.58-7.885Z" transform="translate(-3.766 41.163)" fill="#dbdbdb"/><path d="M93.544,147c-57.952,0-58.05,82.387,0,82.387S151.58,147,93.544,147Z" transform="translate(-32.085 57.782)" fill="#ebebeb"/><path d="M126.689,193.968c-3.093,14.182-14.85,26.469-35.245,26.469-48.159,0-48.089-68.386,0-68.386h.947c-45.261.822-45.038,65.586.892,65.586C111.978,217.664,123.123,206.826,126.689,193.968Z" transform="translate(-29.999 59.767)" fill="#dbdbdb"/><path d="M86.113,158.531a1.393,1.393,0,0,1,1.5,1.393v2.285a21.662,21.662,0,0,1,11.145,4.012,1.594,1.594,0,0,1,.878,1.393,1.546,1.546,0,0,1-1.63,1.393,1.616,1.616,0,0,1-1.128-.4,18.667,18.667,0,0,0-9.4-3.719v16.048c9.529,1.839,13.541,5.113,13.541,10.727,0,6.088-5.572,10.392-13.415,10.615v4.472a1.5,1.5,0,0,1-3.009,0v-4.527a24.755,24.755,0,0,1-14.1-5.572,1.477,1.477,0,0,1-.7-1.212,1.574,1.574,0,0,1,1.574-1.393,1.713,1.713,0,0,1,1.128.4,21.105,21.105,0,0,0,12.231,5.14V183.244c-9.4-1.895-13.29-5.043-13.29-10.782s5.572-10.211,13.165-10.378V159.91A1.463,1.463,0,0,1,86.113,158.531ZM84.72,180.319V164.661c-6.074.125-10.086,3.441-10.086,7.578.014,3.9,2.02,6.311,10.1,8.08Zm2.786,3.5v15.839c6.269-.111,10.351-3.441,10.351-7.8-.014-3.956-2.215-6.366-10.364-8.038Z" transform="translate(-24.32 62.313)" fill="#dbdbdb"/><path d="M293.291,262.585c-36.039,27.43,4.527,80.8,40.622,53.369S329.372,235.113,293.291,262.585Z" transform="translate(58.011 100.215)" fill="#dbdbdb"/><path d="M295.438,260.566c-34.353,26.148,6.227,79.559,40.622,53.369S329.819,234.39,295.438,260.566Z" transform="translate(59.25 99.656)" fill="#ebebeb"/><path d="M338.836,273.21c5.154,10.573,4.249,23.835-7.829,33.044-28.544,21.732-62.229-22.6-33.726-44.3l.571-.4c-26.469,20.9,5.656,62.8,32.863,42.071C341.818,295.179,343.085,283.073,338.836,273.21Z" transform="translate(60.848 102.809)" fill="#dbdbdb"/><path d="M76.739,238.09c42.182,7.564,31.038,70.058-11.214,62.466S34.487,230.511,76.739,238.09Z" transform="translate(-36.469 93.338)" fill="#dbdbdb"/><path d="M73.466,237.564c40.19,7.216,29.046,69.654-11.145,62.465S33.193,230.334,73.466,237.564Z" transform="translate(-37.153 93.153)" fill="#ebebeb"/><path d="M40.89,268.639c.223,11.145,6.7,21.913,20.9,24.448,33.434,6,42.656-45.86,9.306-51.85l-.669-.1c31.289,6.255,22.289,55.333-9.529,49.621C47.855,288.421,41.587,278.823,40.89,268.639Z" transform="translate(-35.684 94.787)" fill="#dbdbdb"/><path d="M65.566,244.486a1.087,1.087,0,0,1,.85,1.24l-.334,1.741a14.363,14.363,0,0,1,7.174,4.472,1.226,1.226,0,0,1,.418,1.114,1.128,1.128,0,0,1-1.393.878,1.184,1.184,0,0,1-.724-.446,12.538,12.538,0,0,0-5.99-4.04l-2.257,12.162c6.339,2.619,8.665,5.572,7.871,9.863-.864,4.611-5.335,7.147-10.8,6.311l-.627,3.385a1.063,1.063,0,1,1-2.09-.39l.641-3.427a16.55,16.55,0,0,1-8.985-6.032,1.1,1.1,0,0,1-.306-1,1.142,1.142,0,0,1,1.282-.878,1.114,1.114,0,0,1,.724.446,14.293,14.293,0,0,0,7.732,5.572l2.313-12.385c-6.255-2.647-8.5-5.572-7.69-9.877s5.266-6.965,10.587-6.157l.306-1.658a1.087,1.087,0,0,1,1.3-.892ZM61.54,260.813l2.215-11.855c-4.179-.7-7.481,1.309-8.066,4.43S56.177,258.431,61.54,260.813Zm1.393,3.009-2.215,12.036c4.36.71,7.648-1.282,8.261-4.583.571-3.037-.613-5.168-6.046-7.453Z" transform="translate(-32.498 96.093)" fill="#dbdbdb"/></g><g transform="translate(10.458 585.455)"><path d="M44.66,420.957l71.507-.348,71.521-.112,143.027-.237,143.027.237,71.521.112,71.507.348-71.507.334-71.521.125-143.027.237-143.027-.237-71.521-.125Z" transform="translate(-44.66 -420.26)" fill="#263238"/></g><g transform="translate(55.483 610.865)"><ellipse cx="241.03" cy="23.641" rx="241.03" ry="23.641" fill="#ebebeb"/></g><g transform="translate(228.252 43.979)"><rect width="359.121" height="269.129" transform="translate(0.502 9.933)" fill="#fff"/><path d="M560.623,307.974,201.5,308.35h-.376v-.376L201,38.845V38.33h.515l359.121.2h.32v.32Zm0,0L560.3,38.845l.32.32L201.5,39.375l.515-.529-.139,269.129-.376-.362Z" transform="translate(-201 -28.913)" fill="#ebebeb"/><path d="M227.66,125.807l142.93-.237c41.374.084,101.876,0,143.25.237-41.374.223-101.876.167-143.25.251Z" transform="translate(-190.521 5.379)" fill="#c7c7c7"/><path d="M227.66,131.271,351.8,131.02c41.374.1,120.668,0,162.043.251-41.374.209-120.668.167-162.043.251Z" transform="translate(-190.521 7.522)" fill="#c7c7c7"/><path d="M227.66,136.731,351.8,136.48c41.374.084,120.668,0,162.043.251-41.374.209-120.668.153-162.043.251Z" transform="translate(-190.521 9.668)" fill="#c7c7c7"/><path d="M227.66,142.191,351.8,141.94c41.374.084,120.668,0,162.043.251-41.374.209-120.668.153-162.043.237Z" transform="translate(-190.521 11.814)" fill="#c7c7c7"/><path d="M227.66,147.641,351.8,147.39c41.374.1,120.668,0,162.043.251-41.374.223-120.668.167-162.043.251Z" transform="translate(-190.521 13.956)" fill="#c7c7c7"/><path d="M227.66,153.071,351.8,152.82c41.374.084,120.668,0,162.043.251-41.374.209-120.668.153-162.043.251Z" transform="translate(-190.521 16.091)" fill="#c7c7c7"/><path d="M227.66,158.561,351.8,158.31c41.374.084,120.668,0,162.043.251-41.374.209-120.668.153-162.043.237Z" transform="translate(-190.521 18.249)" fill="#c7c7c7"/><path d="M227.66,164.007,351.8,163.77c41.374.084,120.668,0,162.043.237-41.374.223-120.668.167-162.043.251Z" transform="translate(-190.521 20.395)" fill="#c7c7c7"/><path d="M227.66,169.471,351.8,169.22c41.374.1,120.668,0,162.043.251-41.374.209-120.668.167-162.043.251Z" transform="translate(-190.521 22.537)" fill="#c7c7c7"/><path d="M227.66,174.931,351.8,174.68c41.374.084,120.668,0,162.043.251-41.374.209-120.668.153-162.043.237Z" transform="translate(-190.521 24.683)" fill="#c7c7c7"/><path d="M227.66,180.377,351.8,180.14c41.374.084,120.668,0,162.043.237-41.374.223-120.668.167-162.043.251Z" transform="translate(-190.521 26.83)" fill="#c7c7c7"/><path d="M227.66,185.841,351.8,185.59c41.374.1,120.668,0,162.043.251-41.374.209-120.668.167-162.043.251Z" transform="translate(-190.521 28.972)" fill="#c7c7c7"/><path d="M227.66,191.3,351.8,191.05c41.374.084,120.668,0,162.043.251-41.374.209-120.668.153-162.043.251Z" transform="translate(-190.521 31.118)" fill="#c7c7c7"/><path d="M227.66,196.761,351.8,196.51c41.374.084,120.668,0,162.043.251-41.374.209-120.668.153-162.043.237Z" transform="translate(-190.521 33.264)" fill="#c7c7c7"/><path d="M227.66,202.211,351.8,201.96c41.374.1,120.668,0,162.043.251-41.374.223-120.668.167-162.043.251Z" transform="translate(-190.521 35.406)" fill="#c7c7c7"/><rect width="12.816" height="30.494" transform="translate(55.333 216.025)" fill="#ebebeb"/><rect width="12.816" height="26.26" transform="translate(78.528 220.246)" fill="#ebebeb"/><rect width="12.816" height="36.178" transform="translate(101.722 210.341)" fill="#ebebeb"/><rect width="12.816" height="39.048" transform="translate(124.903 207.457)" fill="#ebebeb"/><rect width="12.816" height="54.511" transform="translate(148.098 192.008)" fill="#ebebeb"/><rect width="12.816" height="50.053" transform="translate(171.293 196.466)" fill="#ebebeb"/><rect width="12.816" height="59.861" transform="translate(194.488 186.645)" fill="#ebebeb"/><rect width="12.816" height="69.96" transform="translate(217.682 176.559)" fill="#ebebeb"/><rect width="12.816" height="69.542" transform="translate(240.877 176.977)" fill="#ebebeb"/><rect width="12.816" height="66.84" transform="translate(264.072 179.665)" fill="#ebebeb"/><rect width="12.816" height="80.422" transform="translate(287.253 166.097)" fill="#ebebeb"/><path d="M232.846,121.91l.515,30.16.348,30.16c.237,20.1.306,40.2.362,60.306l-1.226-.919h60.376l60.376.111,90.411.293,68.261.543-68.261.557-90.411.293-60.376.111h-61.6v-.919q0-30.153.362-60.306l.348-30.16Z" transform="translate(-188.964 3.941)" fill="#c7c7c7"/><rect width="359.121" height="9.933" transform="translate(0.502)" fill="#455a64"/><path d="M208.392,35.836a2.466,2.466,0,1,1-2.466-2.466A2.466,2.466,0,0,1,208.392,35.836Z" transform="translate(-200.033 -30.862)" fill="#c7c7c7"/><path d="M215.642,35.836a2.466,2.466,0,1,1-2.466-2.466A2.466,2.466,0,0,1,215.642,35.836Z" transform="translate(-197.183 -30.862)" fill="#fff"/><path d="M222.862,35.836A2.466,2.466,0,1,1,220.4,33.37,2.466,2.466,0,0,1,222.862,35.836Z" transform="translate(-194.345 -30.862)" fill="#ffc727"/><rect width="138.792" height="70.49" transform="translate(37.139 39.549)" fill="#ffc727"/><path d="M285.015,98.252a1.616,1.616,0,0,1-1.644,1.6h-.292v2.229a1.616,1.616,0,1,1-3.232,0V99.854h-9.236a1.393,1.393,0,0,1-1-.348,1.56,1.56,0,0,1-.265-2.257l10.81-13.5h.07a.32.32,0,0,0,.084-.125.292.292,0,0,0,.139-.084l.125-.084a.292.292,0,0,1,.167,0s.07-.1.125-.1h.167a.181.181,0,0,0,.125,0h.5a.25.25,0,0,0,.139,0h.292l.153.125.139.084h.084l.111.125a.7.7,0,0,0,.1.111l.111.153a.207.207,0,0,0,0,.111,1.4,1.4,0,0,1,0,.181v.111a.349.349,0,0,1,0,.181V96.636h.293a1.63,1.63,0,0,1,1.937,1.616Zm-5.168-8.874-5.837,7.258h5.837Z" transform="translate(-174.28 -11.213)" fill="#37474f"/><path d="M294.058,91.209a7.146,7.146,0,0,1,2.145,5.168,7.328,7.328,0,0,1-2.146,5.183,7.174,7.174,0,0,1-5.167,2.186h-.07a7.1,7.1,0,0,1-5.1-2.131,1.63,1.63,0,0,1,0-2.354,1.686,1.686,0,0,1,2.354,0,3.8,3.8,0,0,0,2.786,1.17,3.873,3.873,0,0,0,2.786-1.17,3.941,3.941,0,0,0-2.786-6.742,3.859,3.859,0,0,0-2.786,1.142,1.686,1.686,0,0,1-2.354,0l-.32-.39v-.084a.209.209,0,0,0,0-.139,1.836,1.836,0,0,0,0-.209h0a1.5,1.5,0,0,1,0-.5l.892-7.606a1.755,1.755,0,0,1,.724-1.17h.209a1.56,1.56,0,0,1,.766-.181h8.651a1.658,1.658,0,1,1,0,3.316h-7.216l-.348,2.9a7.843,7.843,0,0,1,1.964-.265,7.188,7.188,0,0,1,5.015,1.881Z" transform="translate(-168.681 -11.205)" fill="#37474f"/><path d="M295.733,88.342h0a4.959,4.959,0,0,1,4.876-5.252,4.89,4.89,0,0,1,4.806,5.2h0a4.959,4.959,0,0,1-4.876,5.252,4.9,4.9,0,0,1-4.806-5.2Zm7.077,0h0c0-1.644-.947-3-2.271-3s-2.2,1.393-2.2,2.939h0c0,1.672.947,3,2.271,3S302.809,89.93,302.809,88.342ZM299.1,102.05l13.471-18.4a1.128,1.128,0,0,1,1-.529,1.156,1.156,0,0,1,1.17,1.156,1.393,1.393,0,0,1-.265.752l-13.471,18.4a1.212,1.212,0,0,1-1.031.529,1.128,1.128,0,0,1-1.142-1.142A1.393,1.393,0,0,1,299.1,102.05Zm9.041-3.2h0a4.862,4.862,0,1,1,9.682,0h0a4.973,4.973,0,0,1-4.876,5.252,4.9,4.9,0,0,1-4.806-5.252Zm7.063,0h0c0-1.644-.933-3-2.257-3s-2.2,1.393-2.2,2.939h0c0,1.672.947,3,2.271,3s2.187-1.351,2.187-2.939Z" transform="translate(-163.766 -11.319)" fill="#37474f"/><path d="M271.781,95.925a17.455,17.455,0,1,1-2.313-8.679A17.456,17.456,0,0,1,271.781,95.925Z" transform="translate(-186.901 -13.134)" fill="#455a64"/><path d="M266.859,95.929a17.47,17.47,0,0,1-11.216,16.314L249.39,95.929V78.46a17.455,17.455,0,0,1,17.469,17.469Z" transform="translate(-181.979 -13.139)" fill="#fff"/><path d="M264.876,94.408A12.078,12.078,0,1,1,252.8,82.33,12.078,12.078,0,0,1,264.876,94.408Z" transform="translate(-185.387 -11.617)" fill="#ffc727"/><rect width="4.82" height="4.291" transform="translate(135.532 54.233)" fill="#37474f"/><path d="M296.77,71.852h9.069L301.3,67.06Z" transform="translate(-163.355 -17.62)" fill="#37474f"/><rect width="138.792" height="70.671" transform="translate(184.193 39.549)" fill="#ebebeb"/><path d="M346.171,65.36a.627.627,0,0,1,.641.641v.334a5.406,5.406,0,0,1,2.327.822.808.808,0,0,1,.446.724.822.822,0,0,1-.836.822.766.766,0,0,1-.446-.139,6.046,6.046,0,0,0-1.546-.655v2.884c2.271.571,3.246,1.477,3.246,3.093s-1.282,2.786-3.19,2.925V77.7a.641.641,0,0,1-.641.655.669.669,0,0,1-.669-.655v-.933a6.269,6.269,0,0,1-3.065-1.17.794.794,0,0,1-.418-.711.836.836,0,0,1,1.324-.669,5.307,5.307,0,0,0,2.229,1.017V72.27c-2.2-.571-3.218-1.393-3.218-3.079a3.023,3.023,0,0,1,3.148-2.87V66a.655.655,0,0,1,.669-.641Zm-.613,5.071V67.784c-.961.084-1.393.6-1.393,1.254S344.4,70.1,345.558,70.431Zm1.184,2.09v2.786c.961-.111,1.477-.585,1.477-1.309s-.32-1.073-1.477-1.435Z" transform="translate(-145.568 -18.288)" fill="#455a64"/><path d="M358.982,75.7a.822.822,0,0,1-.822.836H352.81a.822.822,0,0,1-.613-.279.836.836,0,0,1,0-1.17l4.444-4.012a1.909,1.909,0,0,0,.627-1.393,1.951,1.951,0,0,0-.488-1.3,1.9,1.9,0,0,0-1.393-.641,1.95,1.95,0,0,0-1.3.5l-.474.418a.822.822,0,0,1-1.17,0,.836.836,0,0,1,.07-1.17l.46-.418a3.482,3.482,0,0,1,2.41-.933,3.622,3.622,0,0,1,2.675,1.184,3.553,3.553,0,0,1,.933,2.41,3.622,3.622,0,0,1-1.184,2.675l-2.786,2.563h3.2A.822.822,0,0,1,358.982,75.7Z" transform="translate(-141.662 -17.981)" fill="#455a64"/><path d="M359.754,72.05a1.114,1.114,0,1,1-1.114,1.114,1.114,1.114,0,0,1,1.114-1.114Z" transform="translate(-139.035 -15.658)" fill="#455a64"/><path d="M363.634,66.833v8.874a.836.836,0,0,1-.85.836.822.822,0,0,1-.822-.836v-7.4l-.6.334a.7.7,0,0,1-.418.125.836.836,0,0,1-.711-.418.808.808,0,0,1,.279-1.128l1.839-1.1h.557a.167.167,0,0,1,.1,0h.1v.084h0a.153.153,0,0,0,0,.111Z" transform="translate(-138.457 -17.991)" fill="#455a64"/><path d="M364,71.292a6.492,6.492,0,0,1,1.017-3.594A3.357,3.357,0,0,1,367.8,66.04,3.413,3.413,0,0,1,370.59,67.7a6.965,6.965,0,0,1,0,7.174,3.469,3.469,0,0,1-2.786,1.672,3.413,3.413,0,0,1-2.786-1.672A6.476,6.476,0,0,1,364,71.292Zm5.921,0a4.862,4.862,0,0,0-.724-2.675A1.741,1.741,0,0,0,367.8,67.7a1.811,1.811,0,0,0-1.393.919,4.987,4.987,0,0,0-.724,2.675,4.917,4.917,0,0,0,.724,2.647,1.811,1.811,0,0,0,1.393.933,1.727,1.727,0,0,0,1.393-.933,4.807,4.807,0,0,0,.738-2.647Z" transform="translate(-136.929 -18.021)" fill="#455a64"/><path d="M378.4,75.7a.822.822,0,0,1-.822.836H372.24a.822.822,0,0,1-.613-.279.836.836,0,0,1,0-1.17l4.444-4.012a1.909,1.909,0,0,0,.627-1.393,1.951,1.951,0,0,0-.488-1.3,1.9,1.9,0,0,0-1.393-.641,1.95,1.95,0,0,0-1.3.5l-.474.418a.822.822,0,0,1-1.17,0,.836.836,0,0,1,0-1.17l.46-.418a3.483,3.483,0,0,1,2.41-.933,3.622,3.622,0,0,1,2.675,1.184,3.552,3.552,0,0,1,.933,2.41,3.622,3.622,0,0,1-1.184,2.675l-2.786,2.563h3.2a.822.822,0,0,1,.808.724Z" transform="translate(-134.024 -17.981)" fill="#455a64"/><path d="M378.084,75.549a1.31,1.31,0,0,0,1.017-1.393,1.114,1.114,0,0,1-.864-1.031v-.111a.975.975,0,0,1,1.031-1c.669,0,1.073.5,1.073,1.309v.167a2.939,2.939,0,0,1-.738,2.187,2.284,2.284,0,0,1-1.393.655.418.418,0,0,1-.111-.822Z" transform="translate(-131.509 -15.674)" fill="#455a64"/><path d="M387.441,72.961a3.58,3.58,0,1,1-5.572-2.981,2.409,2.409,0,0,1-.5-1.491,2.48,2.48,0,1,1,4.959,0,2.411,2.411,0,0,1-.5,1.491A3.594,3.594,0,0,1,387.441,72.961Zm-1.63,0a1.95,1.95,0,0,0-1.936-1.95,1.992,1.992,0,0,0-1.964,1.95,1.964,1.964,0,0,0,1.964,1.936A1.936,1.936,0,0,0,385.811,72.961Zm-2.786-4.472a.836.836,0,1,0,.836-.836A.836.836,0,0,0,383.024,68.49Z" transform="translate(-130.529 -18.032)" fill="#455a64"/><path d="M394.462,72.926a3.65,3.65,0,0,1-7.272.376h0v-.864a8.707,8.707,0,0,1,.529-3.065,5.323,5.323,0,0,1,1.936-2.577,4.277,4.277,0,0,1,2.243-.7.836.836,0,0,1,.878.794.864.864,0,0,1-.808.864,2.675,2.675,0,0,0-1.393.432,3.106,3.106,0,0,0-.933,1.045,2.047,2.047,0,0,0-.2.39,3.483,3.483,0,0,1,1.393-.306,3.65,3.65,0,0,1,3.622,3.608Zm-1.672,0a1.978,1.978,0,1,0-1.971,1.812,1.978,1.978,0,0,0,1.971-1.812Z" transform="translate(-127.813 -17.997)" fill="#455a64"/><path d="M346.176,91a.641.641,0,0,1,.641.641v.334a5.573,5.573,0,0,1,2.326.822.808.808,0,0,1,.446.724.822.822,0,0,1-.836.822.864.864,0,0,1-.446-.125,5.658,5.658,0,0,0-1.546-.669v2.884c2.271.571,3.246,1.491,3.246,3.093s-1.282,2.786-3.19,2.925v.892a.641.641,0,0,1-.641.655.669.669,0,0,1-.669-.655v-.919a6.562,6.562,0,0,1-3.065-1.17.822.822,0,0,1,.418-1.546.738.738,0,0,1,.488.167,5.46,5.46,0,0,0,2.229,1V97.965c-2.2-.571-3.218-1.393-3.218-3.093A3.023,3.023,0,0,1,345.508,92v-.32a.669.669,0,0,1,.669-.683Zm-.6,5.113V93.466c-.961.084-1.393.6-1.393,1.254s.223,1,1.379,1.379Zm1.184,2.09v2.786c.961-.1,1.477-.585,1.477-1.31s-.334-1.128-1.491-1.491Z" transform="translate(-145.573 -8.209)" fill="#455a64"/><path d="M355.324,92.458v8.86a.836.836,0,0,1-.836.822.822.822,0,0,1-.836-.822V93.934l-.6.348a.752.752,0,0,1-.418.111.85.85,0,0,1-.432-1.546l1.839-1.087h.738a.153.153,0,0,1,.07,0,.151.151,0,0,1,0,.07h0a.125.125,0,0,1,0,.084h0a.631.631,0,0,0,0,.07V92.1Z" transform="translate(-141.709 -7.912)" fill="#455a64"/><path d="M357,97.68a1.142,1.142,0,0,1,1.128,1.128,1.114,1.114,0,0,1-1.128,1.1,1.1,1.1,0,0,1-1.114-1.1A1.128,1.128,0,0,1,357,97.68Z" transform="translate(-140.116 -5.584)" fill="#455a64"/><path d="M366.313,99.321a.822.822,0,0,1-.836.822h-.153v1.142a.836.836,0,0,1-1.658,0v-1.142h-4.723a.683.683,0,0,1-.5-.181.794.794,0,0,1-.139-1.156l5.572-6.965h.738l.07.07h.07v.1h0a.182.182,0,0,1,0,.1h0v6.1h.153a.9.9,0,0,1,1.407,1.114ZM363.6,94.849l-2.981,3.706H363.6Z" transform="translate(-139.242 -7.879)" fill="#455a64"/><path d="M370.871,95.725a3.734,3.734,0,0,1,0,5.266,3.678,3.678,0,0,1-2.633,1.1h0a3.594,3.594,0,0,1-2.605-1.1.822.822,0,0,1,0-1.2.836.836,0,0,1,1.2,0,1.95,1.95,0,0,0,1.393.6,1.992,1.992,0,0,0,1.393-.6,2.048,2.048,0,0,0,.6-1.393,1.978,1.978,0,0,0-.6-1.393,1.95,1.95,0,0,0-1.393-.585,2.006,2.006,0,0,0-1.393.585.836.836,0,0,1-1.2,0,1.124,1.124,0,0,1-.167-.2h0V96.7h0a.75.75,0,0,1,0-.251l.46-3.887a.891.891,0,0,1,.376-.6h0a.891.891,0,0,1,.39-.084h4.43a.85.85,0,0,1,0,1.7H367.43l-.2,1.254a4.178,4.178,0,0,1,1-.125,3.664,3.664,0,0,1,2.633,1.017Z" transform="translate(-136.388 -7.864)" fill="#455a64"/><path d="M371.86,96.92a6.408,6.408,0,0,1,1.017-3.58,3.162,3.162,0,0,1,5.572,0,6.408,6.408,0,0,1,1,3.58,6.477,6.477,0,0,1-1,3.58,3.162,3.162,0,0,1-5.572,0A6.478,6.478,0,0,1,371.86,96.92Zm5.935,0a5.014,5.014,0,0,0-.724-2.675,1.7,1.7,0,0,0-1.393-.906,1.783,1.783,0,0,0-1.393.906,5.363,5.363,0,0,0,0,5.335,1.839,1.839,0,0,0,1.393.919,1.755,1.755,0,0,0,1.393-.919A5,5,0,0,0,377.795,96.92Z" transform="translate(-133.839 -7.945)" fill="#455a64"/><path d="M379.514,101.179a1.31,1.31,0,0,0,1.017-1.393,1.114,1.114,0,0,1-.864-1.017v-.125a.975.975,0,0,1,1.031-1c.669,0,1.073.5,1.073,1.393v.153a2.967,2.967,0,0,1-.738,2.2,2.271,2.271,0,0,1-1.393.641.418.418,0,0,1-.111-.822Z" transform="translate(-130.947 -5.6)" fill="#455a64"/><path d="M388.622,101.32a.808.808,0,0,1-.822.822h-5.335a.864.864,0,0,1-.627-.265.85.85,0,0,1,0-1.184l4.5-4.012a1.867,1.867,0,0,0,.641-1.393,1.954,1.954,0,0,0-3.246-1.435l-.46.418a.808.808,0,0,1-1.17,0,.822.822,0,0,1,0-1.17l.46-.418a3.581,3.581,0,0,1,2.424-.933,3.622,3.622,0,0,1,2.675,1.184,3.553,3.553,0,0,1,.919,2.41,3.609,3.609,0,0,1-1.184,2.675l-2.786,2.563h3.19a.836.836,0,0,1,.822.738Z" transform="translate(-130.011 -7.915)" fill="#455a64"/><path d="M393.661,95.725a3.733,3.733,0,0,1,0,5.266,3.678,3.678,0,0,1-2.633,1.1h0a3.594,3.594,0,0,1-2.6-1.1.822.822,0,0,1,0-1.2.836.836,0,0,1,1.2,0,1.95,1.95,0,0,0,1.393.6,1.992,1.992,0,0,0,1.393-.6,2.1,2.1,0,0,0,.6-1.393,1.978,1.978,0,0,0-.6-1.393,1.95,1.95,0,0,0-1.393-.585,2.006,2.006,0,0,0-1.393.585.836.836,0,0,1-1.2,0,1.127,1.127,0,0,1-.167-.2h0V96.7h0a.751.751,0,0,1,0-.251l.46-3.887a.891.891,0,0,1,.376-.6h0a.891.891,0,0,1,.39-.084h4.43a.85.85,0,0,1,0,1.7H390.22l-.195,1.254a4.178,4.178,0,0,1,1-.125,3.664,3.664,0,0,1,2.633,1.017Z" transform="translate(-127.43 -7.864)" fill="#455a64"/><path d="M363.47,79.013a2.8,2.8,0,0,1,4.514-2.118.46.46,0,0,1,.084.6.446.446,0,0,1-.613.084,1.853,1.853,0,0,0-1.2-.4,1.992,1.992,0,0,0-1.393.529,1.839,1.839,0,0,0-.557,1.309,1.8,1.8,0,0,0,.557,1.309,1.936,1.936,0,0,0,1.393.543,1.825,1.825,0,0,0,1.2-.418.474.474,0,0,1,.613.084.446.446,0,0,1-.084.6,2.786,2.786,0,0,1-4.486-2.117Z" transform="translate(-137.137 -13.984)" fill="#a6a6a6"/><path d="M369.244,81.251a1.574,1.574,0,0,1-1.574-1.56v-1.8a.4.4,0,1,1,.808,0v1.8a.752.752,0,0,0,.766.766.766.766,0,0,0,.78-.766v-1.8a.39.39,0,0,1,.39-.39.418.418,0,0,1,.4.39v1.8a1.574,1.574,0,0,1-1.574,1.56Z" transform="translate(-135.486 -13.52)" fill="#a6a6a6"/><path d="M373.343,77.906a.4.4,0,0,1-.39.4.724.724,0,0,0-.46.139,1.392,1.392,0,0,0-.348.362,2.451,2.451,0,0,0-.307.627v1.393a.4.4,0,1,1-.808,0V77.906a.4.4,0,1,1,.808,0h0l.167-.153a1.658,1.658,0,0,1,.947-.293.39.39,0,0,1,.39.446Z" transform="translate(-134.165 -13.532)" fill="#a6a6a6"/><path d="M375.712,77.906a.418.418,0,0,1-.4.4.711.711,0,0,0-.446.139,1.226,1.226,0,0,0-.348.362,2.449,2.449,0,0,0-.306.627v1.393a.418.418,0,0,1-.418.39.4.4,0,0,1-.39-.39V77.906a.4.4,0,0,1,.39-.39.418.418,0,0,1,.418.39h0a.792.792,0,0,1,.153-.153,1.7,1.7,0,0,1,.947-.293.4.4,0,0,1,.4.446Z" transform="translate(-133.233 -13.532)" fill="#a6a6a6"/><path d="M375.3,79.381a1.867,1.867,0,0,1,1.839-1.881,1.8,1.8,0,0,1,1.811,1.741h0a.362.362,0,0,1-.39.306h-2.382a.963.963,0,0,0,.251.5,1.17,1.17,0,0,0,.724.334,1.24,1.24,0,0,0,.78-.2.418.418,0,0,1,.557,0,.334.334,0,0,1,0,.488,1.914,1.914,0,0,1-3.19-1.3Zm.822-.376h2.131a1.254,1.254,0,0,0-1.114-.794,1.045,1.045,0,0,0-1.017.794Z" transform="translate(-132.487 -13.516)" fill="#a6a6a6"/><path d="M381.881,79.06v1.8a.39.39,0,0,1-.39.39.4.4,0,0,1-.39-.39v-1.8a.794.794,0,0,0-.794-.766.766.766,0,0,0-.752.766v1.8a.39.39,0,0,1-.39.32.4.4,0,0,1-.4-.39v-2.9a.4.4,0,0,1,.4-.39.39.39,0,0,1,.362.237,1.393,1.393,0,0,1,.794-.237A1.574,1.574,0,0,1,381.881,79.06Z" transform="translate(-131.127 -13.516)" fill="#a6a6a6"/><path d="M383.9,78.329a.418.418,0,0,1-.418.418h-.2v2.1a.418.418,0,1,1,0,.822.836.836,0,0,1-.836-.822v-2.1h-.209a.418.418,0,1,1,0-.822h.209V76.838a.418.418,0,0,1,.432-.418.4.4,0,0,1,.4.418v1.087h.209a.418.418,0,0,1,.4.4Z" transform="translate(-129.953 -13.941)" fill="#a6a6a6"/><path d="M387.665,79.64h-.933v1.63a.418.418,0,0,1-.822,0V76.84a.4.4,0,0,1,.4-.418h1.393a1.616,1.616,0,1,1,0,3.218Zm-.933-.836h.933a.78.78,0,1,0,0-1.546h-.933Z" transform="translate(-128.316 -13.942)" fill="#a6a6a6"/><path d="M388.74,79.381a1.867,1.867,0,0,1,1.839-1.881,1.8,1.8,0,0,1,1.811,1.741v.1a.376.376,0,0,1-.4.306H389.6a1.142,1.142,0,0,0,1.755.641.446.446,0,0,1,.571,0,.348.348,0,0,1,0,.488,1.95,1.95,0,0,1-1.393.488A1.867,1.867,0,0,1,388.74,79.381Zm.822-.376h2.131a1.24,1.24,0,0,0-1.114-.794A1.059,1.059,0,0,0,389.562,79Z" transform="translate(-127.204 -13.516)" fill="#a6a6a6"/><path d="M394.413,77.906a.4.4,0,0,1-.39.4.724.724,0,0,0-.46.139,1.391,1.391,0,0,0-.348.362,2.453,2.453,0,0,0-.306.627v1.393a.4.4,0,0,1-.808,0V77.906a.4.4,0,0,1,.808,0h0l.167-.153a1.658,1.658,0,0,1,.947-.293.39.39,0,0,1,.39.446Z" transform="translate(-125.883 -13.532)" fill="#a6a6a6"/><path d="M395.278,76.977a.4.4,0,1,1-.808,0v-.153a.4.4,0,0,1,.4-.4.39.39,0,0,1,.4.4Zm0,1.393V81.3a.39.39,0,0,1-.4.4.4.4,0,0,1-.4-.4V78.343a.4.4,0,1,1,.808,0Z" transform="translate(-124.951 -13.941)" fill="#a6a6a6"/><path d="M396.376,80.724a1.894,1.894,0,0,1-.515-1.393,1.936,1.936,0,0,1,.515-1.309,1.7,1.7,0,0,1,1.3-.571,1.644,1.644,0,0,1,1.254.571,1.866,1.866,0,0,1,.516,1.309,1.825,1.825,0,0,1-.515,1.393,1.686,1.686,0,0,1-1.254.571,1.755,1.755,0,0,1-1.3-.571Zm.293-1.393a1.17,1.17,0,0,0,.279.794,1,1,0,0,0,.724.279.975.975,0,0,0,.683-.279,1.212,1.212,0,0,0,0-1.574,1.03,1.03,0,0,0-.683-.279,1.059,1.059,0,0,0-.724.279,1.157,1.157,0,0,0-.279.85Z" transform="translate(-124.406 -13.536)" fill="#a6a6a6"/><path d="M402.79,81.246a.406.406,0,0,1-.808.084,1.8,1.8,0,0,1-1.017.32,1.881,1.881,0,0,1,0-3.747,1.783,1.783,0,0,1,1,.306V76.816a.418.418,0,0,1,.822,0V79.8h0Zm-1.825-2.521a.975.975,0,0,0-.71.306,1.073,1.073,0,0,0-.293.752,1.1,1.1,0,0,0,.293.752.975.975,0,0,0,1.393,0,1.1,1.1,0,0,0,.292-.752,1.072,1.072,0,0,0-.292-.752.975.975,0,0,0-.683-.306Z" transform="translate(-123.074 -13.919)" fill="#a6a6a6"/><path d="M365.4,104.834h-.933v1.63a.4.4,0,0,1-.418.418.418.418,0,0,1-.418-.418v-4.43a.4.4,0,0,1,.418-.4h1.393a1.6,1.6,0,0,1,0,3.2Zm-.933-.836h.933a.78.78,0,0,0,.78-.766.794.794,0,0,0-.78-.78h-.933Z" transform="translate(-137.074 -4.031)" fill="#a6a6a6"/><path d="M369.033,103.126a.4.4,0,0,1-.4.39.724.724,0,0,0-.446.153.878.878,0,0,0-.348.362,2.246,2.246,0,0,0-.306.627v1.393a.418.418,0,0,1-.418.4.4.4,0,0,1-.39-.4v-2.925a.39.39,0,0,1,.39-.39.4.4,0,0,1,.418.39h0a.794.794,0,0,1,.153-.153,1.6,1.6,0,0,1,.947-.293.39.39,0,0,1,.4.446Z" transform="translate(-135.859 -3.618)" fill="#a6a6a6"/><path d="M368.62,104.581a1.867,1.867,0,0,1,1.839-1.881,1.8,1.8,0,0,1,1.811,1.741h0a.362.362,0,0,1-.39.306H369.5a.864.864,0,0,0,.251.488,1.1,1.1,0,0,0,.724.334,1.226,1.226,0,0,0,.78-.181.432.432,0,0,1,.557,0,.334.334,0,0,1,0,.488,1.839,1.839,0,0,1-1.393.5A1.881,1.881,0,0,1,368.62,104.581Zm.822-.362h2.131a1.212,1.212,0,0,0-1.114-.794A1.045,1.045,0,0,0,369.442,104.218Z" transform="translate(-135.112 -3.61)" fill="#a6a6a6"/><path d="M374.9,103.294l-1.24,2.912h-.39l-1.212-2.912a.387.387,0,1,1,.71-.306l.864,2.048.878-2.048a.376.376,0,0,1,.5-.209A.39.39,0,0,1,374.9,103.294Z" transform="translate(-133.775 -3.592)" fill="#a6a6a6"/><path d="M375.908,102.157a.4.4,0,0,1-.4.418.418.418,0,0,1-.4-.418V102a.4.4,0,1,1,.808,0Zm0,1.393v2.925a.39.39,0,0,1-.4.4.4.4,0,0,1-.4-.4V103.55a.4.4,0,0,1,.4-.418.39.39,0,0,1,.4.418Z" transform="translate(-132.565 -4.043)" fill="#a6a6a6"/><path d="M377,105.947a1.908,1.908,0,0,1-.516-1.393,1.964,1.964,0,0,1,.515-1.393,1.8,1.8,0,0,1,1.3-.571,1.658,1.658,0,0,1,1.254.571,1.853,1.853,0,0,1,.529,1.393,1.811,1.811,0,0,1-.529,1.393,1.658,1.658,0,0,1-1.254.571A1.8,1.8,0,0,1,377,105.947Zm.306-1.393a1.239,1.239,0,0,0,.265.794,1.045,1.045,0,0,0,.724.279,1,1,0,0,0,.7-.279,1.184,1.184,0,0,0,.292-.794,1.142,1.142,0,0,0-.292-.78,1.087,1.087,0,0,0-.7-.293,1.128,1.128,0,0,0-.724.293,1.2,1.2,0,0,0-.265.864Z" transform="translate(-132.023 -3.654)" fill="#a6a6a6"/><path d="M381.44,106.457a1.574,1.574,0,0,1-1.56-1.56v-1.783a.4.4,0,1,1,.808,0v1.8a.752.752,0,0,0,.752.766.766.766,0,0,0,.794-.766v-1.8a.4.4,0,0,1,.39-.4.418.418,0,0,1,.4.4v1.8a1.588,1.588,0,0,1-1.588,1.546Z" transform="translate(-130.686 -3.606)" fill="#a6a6a6"/><path d="M383.09,105.353a.39.39,0,0,1,.571,0,1.393,1.393,0,0,0,.822.32,1.129,1.129,0,0,0,.515-.139.307.307,0,0,0,.125-.223h0a.307.307,0,0,0-.1-.1,2.062,2.062,0,0,0-.6-.209h0a2.993,2.993,0,0,1-.655-.2,1.282,1.282,0,0,1-.516-.432.934.934,0,0,1-.125-.474,1.1,1.1,0,0,1,.432-.836,1.644,1.644,0,0,1,.933-.279,1.964,1.964,0,0,1,1.128.418.418.418,0,0,1,.111.557.4.4,0,0,1-.557.111,1.226,1.226,0,0,0-.683-.293.849.849,0,0,0-.46.139.223.223,0,0,0-.112.181h.084a1.393,1.393,0,0,0,.543.181h0a2.7,2.7,0,0,1,.7.209,1.212,1.212,0,0,1,.543.446,1.044,1.044,0,0,1,.139.5,1.086,1.086,0,0,1-.474.864,1.658,1.658,0,0,1-.975.307,2.257,2.257,0,0,1-1.393-.515.4.4,0,0,1,0-.543Z" transform="translate(-129.466 -3.575)" fill="#a6a6a6"/><path d="M389.275,104.834h-.919v1.63a.418.418,0,0,1-.432.418.4.4,0,0,1-.4-.418v-4.43a.39.39,0,0,1,.4-.4h1.393a1.6,1.6,0,0,1,0,3.2Zm-.919-.836h.919a.78.78,0,0,0,.78-.766.794.794,0,0,0-.78-.78h-.919Z" transform="translate(-127.683 -4.031)" fill="#a6a6a6"/><path d="M390.35,104.581a1.867,1.867,0,0,1,1.839-1.881,1.8,1.8,0,0,1,1.853,1.811h0a.376.376,0,0,1-.4.307h-2.382a1.088,1.088,0,0,0,.251.488,1.142,1.142,0,0,0,.724.334,1.212,1.212,0,0,0,.78-.181.446.446,0,0,1,.571,0,.348.348,0,0,1,0,.488,1.908,1.908,0,0,1-3.19-1.393Zm.822-.362H393.3a1.2,1.2,0,0,0-1.114-.794,1.059,1.059,0,0,0-1.017.794Z" transform="translate(-126.571 -3.611)" fill="#a6a6a6"/><path d="M396.023,103.126a.39.39,0,0,1-.39.39.766.766,0,0,0-.46.153.934.934,0,0,0-.334.362,2.4,2.4,0,0,0-.32.627v1.393a.4.4,0,1,1-.808,0v-2.925a.4.4,0,0,1,.808,0h0l.167-.153a1.6,1.6,0,0,1,.947-.293.376.376,0,0,1,.39.446Z" transform="translate(-125.25 -3.618)" fill="#a6a6a6"/><path d="M396.9,102.14a.418.418,0,1,1-.822,0v-.153a.418.418,0,0,1,.822,0Zm0,1.393v2.925a.418.418,0,0,1-.822,0v-2.925a.418.418,0,1,1,.822,0Z" transform="translate(-124.32 -4.025)" fill="#a6a6a6"/><path d="M397.986,105.947a1.908,1.908,0,0,1-.515-1.393,1.964,1.964,0,0,1,.515-1.393,1.755,1.755,0,0,1,1.3-.571,1.686,1.686,0,0,1,1.254.571,1.9,1.9,0,0,1,.515,1.393,1.853,1.853,0,0,1-.515,1.393,1.686,1.686,0,0,1-1.254.571,1.755,1.755,0,0,1-1.3-.571Zm.292-1.393a1.17,1.17,0,0,0,.279.794,1,1,0,0,0,.724.279.975.975,0,0,0,.683-.279,1.115,1.115,0,0,0,.292-.794,1.086,1.086,0,0,0-.293-.78,1.044,1.044,0,0,0-.683-.293,1.073,1.073,0,0,0-.724.293,1.143,1.143,0,0,0-.279.864Z" transform="translate(-123.773 -3.654)" fill="#a6a6a6"/><path d="M404.446,106.456a.406.406,0,0,1-.808.084,1.8,1.8,0,0,1-1.017.32,1.881,1.881,0,1,1,0-3.761,1.783,1.783,0,0,1,1,.32v-1.393a.418.418,0,0,1,.822,0v2.967h0Zm-1.825-2.535a1,1,0,0,0-.711.306,1.115,1.115,0,0,0-.292.766,1.073,1.073,0,0,0,.293.738,1,1,0,0,0,.71.306.975.975,0,0,0,.71-.307,1.072,1.072,0,0,0,.293-.738,1.114,1.114,0,0,0-.293-.766.975.975,0,0,0-.71-.306Z" transform="translate(-122.487 -4.01)" fill="#a6a6a6"/><path d="M339.5,85.418l15.157-.167,15.171-.07,30.327-.111,30.327.111,15.157.07,15.157.167-15.157.167-15.157.056-30.327.125-30.327-.125-15.171-.056Z" transform="translate(-146.559 -10.54)" fill="#c7c7c7"/><path d="M425.912,62.564a10.281,10.281,0,1,0,9.348,4.973A10.281,10.281,0,0,0,425.912,62.564Z" transform="translate(-116.844 -19.392)" fill="#dbdbdb"/><path d="M434.2,74.262a8.358,8.358,0,0,1-8.79,6.6,8.54,8.54,0,1,1,0-17.051h.2a8.191,8.191,0,1,0,.223,16.355,8.094,8.094,0,0,0,8.372-5.907Z" transform="translate(-116.339 -18.901)" fill="#fff"/><path d="M424.068,65.42a.376.376,0,0,1,.376.348v.571a5.391,5.391,0,0,1,2.786,1c.139.1.223.181.223.334a.39.39,0,0,1-.418.348.418.418,0,0,1-.279-.1,4.681,4.681,0,0,0-2.34-.933v4.012c2.368.46,3.371,1.268,3.371,2.675s-1.393,2.577-3.343,2.647v1.114a.379.379,0,0,1-.752,0V76.314a6.2,6.2,0,0,1-3.511-1.393.348.348,0,0,1-.181-.334.39.39,0,0,1,.39-.348.432.432,0,0,1,.279.1,5.266,5.266,0,0,0,3.051,1.3v-4.04c-2.354-.474-3.316-1.268-3.316-2.689s1.393-2.549,3.274-2.591v-.543A.376.376,0,0,1,424.068,65.42Zm-.334,5.433v-3.9c-1.518,0-2.521.864-2.521,1.895s.5,1.56,2.521,2.006Zm.683.878v3.942c1.56,0,2.577-.85,2.577-1.936s-.543-1.588-2.577-1.936Z" transform="translate(-114.916 -18.264)" fill="#fff"/><path d="M419.975,91.176c-13.011,2.34-9.57,21.607,3.455,19.266S432.987,88.835,419.975,91.176Z" transform="translate(-118.151 -8.218)" fill="#fff"/><path d="M420.729,91.053c-12.4,2.229-8.971,21.5,3.455,19.266S433.142,88.768,420.729,91.053Z" transform="translate(-117.679 -8.262)" fill="#dbdbdb"/><path d="M429.859,100.582a7.481,7.481,0,0,1-6.422,7.55c-10.309,1.839-13.165-14.154-2.87-15.993h.2c-9.6,1.895-6.812,17.037,2.939,15.268a7.147,7.147,0,0,0,6.158-6.826Z" transform="translate(-117.224 -7.761)" fill="#fff"/><path d="M421.572,93.644a.334.334,0,0,1,.293.362v.543a4.4,4.4,0,0,1,2.3,1.226.376.376,0,0,1,.153.334.359.359,0,0,1-.627.167,3.9,3.9,0,0,0-1.923-1.114l-.446,3.789c2.006.669,2.786,1.546,2.633,2.87a2.7,2.7,0,0,1-3.19,2.173l-.125,1.045a.348.348,0,0,1-.362.293.334.334,0,0,1-.293-.362l.125-1.073a5.084,5.084,0,0,1-2.884-1.672.32.32,0,0,1-.125-.293.376.376,0,0,1,.376-.306.334.334,0,0,1,.237.125,4.444,4.444,0,0,0,2.494,1.546l.46-3.859c-1.978-.683-2.786-1.532-2.577-2.884a2.661,2.661,0,0,1,3.051-2.117v-.515a.334.334,0,0,1,.432-.279Zm-.905,5.1.446-3.692a1.992,1.992,0,0,0-2.4,1.532C418.605,97.5,418.981,98.116,420.667,98.743Zm.474.975-.432,3.733a2.034,2.034,0,0,0,2.452-1.588C423.286,100.86,422.882,100.248,421.141,99.718Z" transform="translate(-116.057 -7.176)" fill="#fff"/><path d="M414.02,72.394c10.518,1.881,7.745,17.469-2.786,15.575S403.489,70.514,414.02,72.394Z" transform="translate(-120.973 -15.585)" fill="#fff"/><path d="M413.206,72.261c10.03,1.8,7.244,17.372-2.786,15.575S403.176,70.464,413.206,72.261Z" transform="translate(-121.147 -15.632)" fill="#dbdbdb"/><path d="M405.09,80a6.046,6.046,0,0,0,5.2,6.1c8.358,1.491,10.643-11.437,2.313-12.928h-.153c7.8,1.56,5.572,13.805-2.382,12.371A5.753,5.753,0,0,1,405.09,80Z" transform="translate(-120.777 -15.218)" fill="#fff"/><path d="M411.23,74a.293.293,0,0,1,.223.306l-.084.432a3.552,3.552,0,0,1,1.783,1.114.334.334,0,0,1,.111.279.293.293,0,0,1-.515.111,3.218,3.218,0,0,0-1.491-1.017l-.571,3.037c1.588.655,2.159,1.393,1.964,2.466a2.173,2.173,0,0,1-2.689,1.63l-.167.836a.262.262,0,1,1-.515-.1l.167-.85a4.068,4.068,0,0,1-2.243-1.5.276.276,0,0,1,.237-.474.251.251,0,0,1,.181.111,3.483,3.483,0,0,0,1.936,1.393l.571-3.079c-1.56-.669-2.117-1.393-1.922-2.466a2.159,2.159,0,0,1,2.647-1.546l.07-.4A.265.265,0,0,1,411.23,74Zm-1,4.068.557-2.953a1.588,1.588,0,0,0-2.006,1.1c-.139.724.111,1.24,1.449,1.839Zm.362.752-.557,2.981a1.63,1.63,0,0,0,2.062-1.142c.139-.752-.153-1.282-1.5-1.853Z" transform="translate(-119.98 -14.893)" fill="#fff"/><rect width="47.936" height="17.636" transform="translate(269.742 140.046)" fill="#ffc727"/><path d="M418.149,144.76H408.3l4.918,4.987Z" transform="translate(-119.515 12.922)" fill="#ffc727"/><path d="M400.237,135.64a.376.376,0,0,1,.39.39v.195a3.038,3.038,0,0,1,1.393.488.432.432,0,0,1,.265.418.474.474,0,0,1-.488.488.571.571,0,0,1-.265-.07,2.9,2.9,0,0,0-.919-.39v1.769c1.393.334,1.922.878,1.922,1.825s-.752,1.616-1.881,1.727v.529a.376.376,0,0,1-.39.376.39.39,0,0,1-.39-.376v-.543a3.914,3.914,0,0,1-1.811-.7.5.5,0,0,1,.251-.919.557.557,0,0,1,.293.1,3.022,3.022,0,0,0,1.309.6v-1.741c-1.3-.334-1.895-.822-1.895-1.825a1.783,1.783,0,0,1,1.853-1.7V136.1a.39.39,0,0,1,.362-.46Zm-.348,3.023V137.1a.751.751,0,0,0-.85.738C399.039,138.231,399.206,138.44,399.889,138.663Zm.7,1.24v1.616c.571-.07.878-.348.878-.78S401.268,140.112,400.585,139.9Z" transform="translate(-123.627 9.337)" fill="#455a64"/><path d="M405.9,141.754a.474.474,0,0,1-.488.488h-3.148a.446.446,0,0,1-.362-.167.487.487,0,0,1,0-.683l2.633-2.382a1.115,1.115,0,0,0,.376-.85,1.143,1.143,0,0,0-.292-.766,1.129,1.129,0,0,0-.864-.376,1.17,1.17,0,0,0-.766.293l-.279.251a.474.474,0,0,1-.683,0,.488.488,0,0,1,0-.683l.279-.251a2.089,2.089,0,0,1,1.393-.557,2.159,2.159,0,0,1,1.588.71,2.131,2.131,0,0,1-.153,3l-1.672,1.518h1.881a.488.488,0,0,1,.557.46Z" transform="translate(-122.086 9.507)" fill="#455a64"/><path d="M406.375,139.6a.655.655,0,1,1-.655.655A.655.655,0,0,1,406.375,139.6Z" transform="translate(-120.529 10.894)" fill="#455a64"/><path d="M408.667,136.526v5.224a.5.5,0,0,1-.5.488.488.488,0,0,1-.488-.488v-4.388l-.348.2a.446.446,0,0,1-.251.084.5.5,0,0,1-.418-.251.474.474,0,0,1,.167-.669l1.087-.641h.362Z" transform="translate(-120.189 9.511)" fill="#455a64"/><path d="M408.89,139.147a3.859,3.859,0,0,1,.6-2.117,2.006,2.006,0,0,1,1.658-.989,1.978,1.978,0,0,1,1.63.989,4.04,4.04,0,0,1,0,4.179,2.006,2.006,0,0,1-1.63.989,2.034,2.034,0,0,1-1.658-.989,3.831,3.831,0,0,1-.6-2.062Zm3.5,0a2.885,2.885,0,0,0-.418-1.574,1.031,1.031,0,0,0-.822-.543,1.059,1.059,0,0,0-.85.543,2.884,2.884,0,0,0-.418,1.574,2.926,2.926,0,0,0,.418,1.574,1.087,1.087,0,0,0,.85.543,1.073,1.073,0,0,0,.822-.543,2.925,2.925,0,0,0,.418-1.574Z" transform="translate(-119.283 9.495)" fill="#455a64"/><path d="M417.391,141.754a.474.474,0,0,1-.488.488h-3.148a.5.5,0,0,1-.376-.167.488.488,0,0,1,0-.683l2.633-2.382a1.114,1.114,0,0,0,.362-.85,1.143,1.143,0,0,0-.293-.766,1.073,1.073,0,0,0-.85-.376,1.17,1.17,0,0,0-.766.293l-.279.251a.474.474,0,0,1-.683,0,.488.488,0,0,1,0-.683l.279-.251a2.089,2.089,0,0,1,1.393-.557,2.159,2.159,0,0,1,1.588.71,2.131,2.131,0,0,1-.153,3l-1.672,1.518h1.881a.488.488,0,0,1,.571.46Z" transform="translate(-117.573 9.507)" fill="#455a64"/><path d="M417.242,141.632a.766.766,0,0,0,.6-.794.627.627,0,0,1-.5-.6h0a.571.571,0,0,1,.6-.6c.4,0,.641.306.641.78v.1a1.825,1.825,0,0,1-.432,1.3,1.393,1.393,0,0,1-.836.376.281.281,0,0,1-.07-.557Z" transform="translate(-116.087 10.91)" fill="#455a64"/><path d="M422.735,140.156a2.118,2.118,0,1,1-3.288-1.755,1.463,1.463,0,1,1,2.34,0,2.1,2.1,0,0,1,.947,1.755Zm-.961,0a1.142,1.142,0,0,0-1.142-1.142,1.149,1.149,0,1,0,1.142,1.142Zm-1.658-2.633a.5.5,0,1,0,.5-.5A.5.5,0,0,0,420.116,137.523Z" transform="translate(-115.506 9.503)" fill="#455a64"/><path d="M426.881,140.14a2.159,2.159,0,0,1-2.159,2.145,2.131,2.131,0,0,1-2.131-1.922h0v-.515a5.153,5.153,0,0,1,.306-1.811,3.135,3.135,0,0,1,1.142-1.518,2.479,2.479,0,0,1,1.323-.418.488.488,0,0,1,.516.474.5.5,0,0,1-.474.515,1.476,1.476,0,0,0-.836.251,1.7,1.7,0,0,0-.557.613,1.235,1.235,0,0,0-.112.237,1.9,1.9,0,0,1,.85-.181A2.159,2.159,0,0,1,426.881,140.14Zm-.989,0a1.184,1.184,0,0,0-1.17-1.17,1.156,1.156,0,0,0-1.156,1.17,1.142,1.142,0,0,0,1.156,1.156,1.17,1.17,0,0,0,1.226-1.156Z" transform="translate(-113.898 9.518)" fill="#455a64"/><path d="M240.436,219.065c10.2.766,20.631.975,30.968.933s20.743-.418,31.094-1.128,20.673-1.769,30.94-3.176,20.52-3.148,30.648-5.419a281.189,281.189,0,0,0,59-19.5,200.106,200.106,0,0,0,27.054-15.324,166.338,166.338,0,0,0,23.877-20.088l.153.139a167.276,167.276,0,0,1-23.473,20.659,201.39,201.39,0,0,1-26.831,16.1,282.8,282.8,0,0,1-59.011,21.021c-10.156,2.521-20.45,4.514-30.773,6.171s-20.729,2.967-31.149,3.928-20.9,1.574-31.358,1.867-20.9.32-31.511-.223Z" transform="translate(-185.646 17.089)" fill="#ffc727"/><path d="M257.86,226.5c-6.366,0-12.148-.139-17.664-.432h-.766l.557-7.467h.752c9.069.669,18.9.975,30.912.919,10.253,0,20.7-.418,31.038-1.128s20.8-1.783,30.9-3.162c11.145-1.546,21.2-3.316,30.648-5.405a282.027,282.027,0,0,0,58.844-19.433,201.114,201.114,0,0,0,26.956-15.324,168.839,168.839,0,0,0,23.682-19.949l.516-.529,1.226,1.142-.515.557a169.035,169.035,0,0,1-23.571,20.757,202.809,202.809,0,0,1-26.97,16.16,284.735,284.735,0,0,1-59.178,21.077c-9.459,2.354-19.5,4.374-30.843,6.2-10.2,1.63-20.687,2.953-31.2,3.928s-20.994,1.574-31.4,1.867C266.8,226.431,262.193,226.5,257.86,226.5Zm-16.828-1.881c9.041.432,18.82.5,30.648.181,10.365-.279,20.9-.905,31.316-1.867s20.9-2.285,31.094-3.915c11.256-1.811,21.3-3.831,30.648-6.157a283.771,283.771,0,0,0,58.858-20.9c1.839-.933,3.636-1.867,5.377-2.786-1.769.892-3.566,1.783-5.433,2.675a283.2,283.2,0,0,1-59.164,19.5c-9.4,2.1-19.5,3.887-30.648,5.419-10.142,1.393-20.576,2.466-31.01,3.19s-20.9,1.087-31.121,1.128c-11.744,0-21.384-.237-30.3-.878Z" transform="translate(-185.894 16.786)" fill="#ffc727"/><path d="M412.864,162.446,415.3,150.8l-11.312,3.72Z" transform="translate(-121.209 15.297)" fill="#ffc727"/></g><g transform="translate(63.576 157.005)"><path d="M213.46,321.1l4.068,24.351,27.5,148.544h4.43l-20-148.544L226.5,321.1Z" transform="translate(-31.427 -30.788)" fill="#c7c7c7"/><path d="M226.5,321.1H213.46l4.068,24.351h11.925Z" transform="translate(-31.427 -30.788)" fill="#a6a6a6"/><path d="M151.45,493.995h4.444l27.5-148.544,4.068-24.351H174.408l-2.953,24.351Z" transform="translate(-55.801 -30.788)" fill="#c7c7c7"/><path d="M168.763,321.1l-2.953,24.351h11.939l4.068-24.351Z" transform="translate(-50.157 -30.788)" fill="#a6a6a6"/><path d="M92.23,493.995h4.43l27.513-148.544,4.054-24.351H115.188l-2.953,24.351Z" transform="translate(-79.079 -30.788)" fill="#c7c7c7"/><path d="M106.59,345.451h11.939l4.054-24.351H109.543Z" transform="translate(-73.435 -30.788)" fill="#a6a6a6"/><path d="M102.976,397.415h201.55V376.184H229.077L189.792,156.05h-107Z" transform="translate(-82.79 -95.665)" fill="#c7c7c7"/><path d="M98.1,314.07H298.8V335.3H97.35Z" transform="translate(-77.067 -33.551)" fill="#dbdbdb"/><path d="M102.976,397.415h10.977L93.252,156.05H82.79Z" transform="translate(-82.79 -95.665)" fill="#dbdbdb"/><path d="M268.544,501.729c-3.915.376-110.638-25.076-114.009-28.5-.4-.39,1.686-10.086,4.764-23.32l.07-.251c1.922-8.358,33-76.215,33-76.215l69.18,19.28-31.428,62.939s13.025,9.389,24.184,18.319h0c6.965,5.489,12.83,10.406,14.1,12.008C271.692,490.18,272.458,501.38,268.544,501.729Z" transform="translate(-54.609 -10.214)" fill="#ad6359"/><path d="M268.544,487.992c-3.915.39-110.638-25.075-114.009-28.488-.418-.39,1.686-10.086,4.764-23.32l.07-.251c.71-3.12,5.489-14.53,11.145-27.583,11.4,3.065,52.2,14.084,67.021,18.667l-7.439,14.92s13.011,9.4,24.17,18.319h0c6.882,5.489,12.844,10.406,14.1,11.994C271.693,476.458,272.459,487.672,268.544,487.992Z" transform="translate(-54.609 3.508)" fill="#ebebeb"/><path d="M268.942,484.219c-4.026.348-110.833-25.354-114.232-28.906-1.31-1.393,1.045-18.194,6.965-36.053l68.832,16.717s35.161,27.862,38.532,32.124S272.968,483.871,268.942,484.219Z" transform="translate(-54.658 7.797)" fill="#ffc727"/><path d="M266.751,469.773c-17.8-4.75-90.021-22.22-107.977-25.563-.153,0-.167.07,0,.111,17.539,5.085,89.909,21.983,107.936,25.744C267.058,470.149,267.127,469.871,266.751,469.773Z" transform="translate(-52.97 17.604)" fill="#263238"/><path d="M237.418,450.484a14.781,14.781,0,0,0-11.758,1.783,14.349,14.349,0,0,0-6.311,8.6.112.112,0,0,0,.223,0,17.079,17.079,0,0,1,17.79-10.211.111.111,0,0,0,.056-.167Z" transform="translate(-29.111 19.87)" fill="#263238"/><path d="M218.861,433.754c-7.133-1.825-16.048-1.3-21.913,3.483-.237.2,0,.515.279.446a101.987,101.987,0,0,1,21.551-3.023.46.46,0,0,0,.084-.905Z" transform="translate(-37.956 13.112)" fill="#263238"/><path d="M222.461,436.274c-7.133-1.825-16.062-1.3-21.913,3.5-.237.181,0,.5.279.446a102,102,0,0,1,21.551-3.037.46.46,0,0,0,.084-.905Z" transform="translate(-36.54 14.103)" fill="#263238"/><path d="M226.063,438.754c-7.146-1.825-16.062-1.3-21.927,3.5-.223.181,0,.5.279.446a101.345,101.345,0,0,1,21.565-3.023.474.474,0,0,0,.084-.919Z" transform="translate(-35.128 15.078)" fill="#263238"/><path d="M229.663,441.274c-7.146-1.825-16.062-1.3-21.927,3.483-.223.2,0,.515.279.46a102.255,102.255,0,0,1,21.551-3.037.46.46,0,0,0,.1-.905Z" transform="translate(-33.712 16.068)" fill="#263238"/><path d="M167.18,432.846c-8.038-1.909-11.033,10.587-2.967,12.538S175.176,434.754,167.18,432.846Z" transform="translate(-52.655 13.059)" fill="#263238"/><path d="M227.749,421.721c-2.912-3.887-8.191-2.048-11.145.543a38.587,38.587,0,0,0-10.922,16.717.2.2,0,0,0,.167.251.9.9,0,0,0,1.156.892c5.948-2.3,12.538-4.026,17.664-8.08C227.609,429.717,230.493,425.385,227.749,421.721ZM215.211,434.83c-2.9,1.2-5.837,2.257-8.693,3.566a116.7,116.7,0,0,1,6.6-9.64,40.084,40.084,0,0,1,3.775-4.179c2.131-1.992,10.6-6.283,9.445,1.686-.585,4.36-7.606,7.133-11.061,8.567Z" transform="translate(-34.487 7.885)" fill="#263238"/><path d="M194.189,435.95c6,2.452,12.872,2.229,19.224,2.786a.906.906,0,0,0,.864-1.184c.1,0,.181-.167.084-.293a38.575,38.575,0,0,0-15.185-13.011c-3.594-1.644-9.18-1.908-10.866,2.633C186.638,431.172,190.678,434.515,194.189,435.95Zm-3.343-5.127c-3.371-7.314,5.976-5.572,8.581-4.277a40.5,40.5,0,0,1,4.806,2.967,112.491,112.491,0,0,1,9.055,7.383c-3.107-.446-6.227-.627-9.348-.961-3.72-.46-11.242-1.073-13.123-5.113Z" transform="translate(-41.466 9.328)" fill="#263238"/><path d="M247.482,496.609l-73.443-19.67s64.541-133.861,59.275-141.23c-2.605-3.678-71.451-6.784-92.793-26.023-27.736-24.978-7.55-61.3-7.55-61.3h76.981s-1.393,16.062,1.518,18.57c1.936,1.672,93.336,12.12,102.489,43.339C325.258,348.594,247.482,496.609,247.482,496.609Z" transform="translate(-65.853 -59.368)" fill="#0a1633"/><path d="M232.739,424.257a44.372,44.372,0,0,0-6.032-2.285c-2.131-.738-4.263-1.477-6.408-2.187-4.179-1.393-8.456-2.7-12.733-3.928-8.581-2.48-17.191-4.9-25.842-7.16-4.514-1.17-14.182-3.72-14.781-3.636-.293,0-.362.529-.1.627,8.358,3.037,16.842,5.642,25.34,8.289s16.954,5.224,25.549,7.453c2.382.613,4.778,1.156,7.174,1.741a54.023,54.023,0,0,0,7.606,1.672C232.767,424.856,233,424.4,232.739,424.257Z" transform="translate(-49.814 2.214)" fill="#455a64"/><path d="M244.025,328.2c-1.5-1.393-3.831-1.588-5.753-1.978l-33.141-6.575c-10.337-2.048-20.729-3.915-31.01-6.213-8.526-1.909-17.163-4.4-24.435-9.264a35.83,35.83,0,0,1-14.53-20.227c-2.34-8.233-2.271-17.009-1.2-25.438.251-2.062.7-4.11,1.142-6.144a.125.125,0,0,0-.251,0c-3.274,15.686-4.082,33.991,7.369,46.9,5.572,6.311,13.374,10.142,21.384,12.719,9.027,2.9,18.5,4.43,27.862,6.269l33.141,6.547c5.322,1.045,10.727,1.908,15.993,3.176a5.433,5.433,0,0,1,2.786,1.393,4.179,4.179,0,0,1,.348,3.873c-.613,2.591-1.393,5.168-2.215,7.7C234.8,361.36,188.01,458.583,186.742,460.867a.212.212,0,1,0,.376.2c10.727-17.859,45.637-92.918,52.937-112.31a125.361,125.361,0,0,0,4.82-15.115C245.321,331.743,245.614,329.653,244.025,328.2Z" transform="translate(-63.162 -57.855)" fill="#455a64"/><path d="M421.125,496.715c-3.664,1.463-113.229,7.063-117.422,4.681-.515-.251-1.226-10.156-1.978-23.682l-.557-12.788c-.181-4.319-56.587-67.188-56.587-67.188l78.6-4.736,48.1,70.336s15.129,5.363,28.349,10.8h0c8.163,3.316,15.254,6.38,16.912,7.55C420.9,484.748,424.775,495.294,421.125,496.715Z" transform="translate(-19.194 -2.525)" fill="#ad6359"/><path d="M274.89,431.917c8.177,9.752,14.293,17.455,14.363,18.876l.557,12.788c.752,13.555,1.477,23.459,1.978,23.682,4.179,2.382,113.759-3.218,117.423-4.667s-.223-11.98-4.541-15.059c-1.644-1.17-8.735-4.179-16.884-7.564h0c-13.22-5.419-28.349-10.782-28.349-10.782L345.505,428.88Z" transform="translate(-7.28 11.578)" fill="#ebebeb"/><path d="M405.908,477.753c-3.775,1.477-113.494,6.8-117.8,4.36-1.644-.919-4.11-17.748-3.524-36.526l70.74-3.357s41.555,16.828,45.972,20.019S409.683,476.291,405.908,477.753Z" transform="translate(-3.504 16.826)" fill="#ffc727"/><path d="M401.67,464.64c-18.416.432-92.654,3.956-110.819,5.8-.153,0-.139.111,0,.111,18.263,0,92.473-4.179,110.833-5.572C402.074,464.9,402.06,464.626,401.67,464.64Z" transform="translate(-1.049 25.634)" fill="#263238"/><path d="M367.23,454a14.725,14.725,0,0,0-10.782,5.029,14.321,14.321,0,0,0-3.636,10.016c0,.111.209.1.223,0a17.093,17.093,0,0,1,14.209-14.808.119.119,0,0,0-.014-.237Z" transform="translate(23.347 21.452)" fill="#263238"/><path d="M345.223,443.352c-7.369.265-15.783,3.274-20.06,9.515-.167.237.181.474.39.348a102.049,102.049,0,0,1,19.837-8.957.46.46,0,0,0-.167-.906Z" transform="translate(12.464 17.264)" fill="#263238"/><path d="M349.383,444.74c-7.369.265-15.784,3.274-20.06,9.515-.167.251.181.474.39.348a102.043,102.043,0,0,1,19.837-8.958.474.474,0,0,0-.167-.906Z" transform="translate(14.099 17.812)" fill="#263238"/><path d="M353.533,446.141c-7.369.251-15.77,3.26-20.06,9.5-.167.251.181.474.4.362a101.983,101.983,0,0,1,19.851-8.971.46.46,0,0,0-.2-.891Z" transform="translate(15.73 18.362)" fill="#263238"/><path d="M357.673,447.53c-7.369.251-15.784,3.26-20.06,9.515-.167.237.181.474.39.348a102.115,102.115,0,0,1,19.837-8.971.46.46,0,0,0-.167-.892Z" transform="translate(17.358 18.909)" fill="#263238"/><path d="M295.227,456.1c-8.247.418-7.606,13.262.669,12.83S303.5,455.671,295.227,456.1Z" transform="translate(-1.594 22.275)" fill="#263238"/><path d="M349.181,429.317c-3.873-2.9-8.358.348-10.56,3.664a38.782,38.782,0,0,0-5.781,19.155c0,.153.125.209.251.2a.892.892,0,0,0,1.393.529c5.057-3.887,10.963-7.4,14.683-12.719C351.3,436.993,352.858,432.1,349.181,429.317Zm-8.261,16.09c-2.452,1.964-4.973,3.8-7.341,5.865a116.183,116.183,0,0,1,3.608-11.145,42.687,42.687,0,0,1,2.452-5.085c1.477-2.522,8.358-9.013,9.529-1.045.613,4.388-5.335,9.013-8.247,11.367Z" transform="translate(15.499 11.308)" fill="#263238"/><path d="M322.151,451.551c6.464.683,12.984-1.463,19.224-2.786a.892.892,0,0,0,.488-1.393c.1-.084.139-.209,0-.306a38.659,38.659,0,0,0-18.249-8.191c-3.915-.557-9.348.752-9.751,5.572C313.612,449.085,318.376,451.161,322.151,451.551Zm-4.653-3.97c-5.28-6.074,4.179-6.965,6.965-6.52a43.975,43.975,0,0,1,5.461,1.491,115.6,115.6,0,0,1,10.755,4.555c-3.107.446-6.143,1.142-9.236,1.7C327.821,449.475,320.424,450.924,317.5,447.581Z" transform="translate(8.036 15.459)" fill="#263238"/><path d="M426.629,505.439l-87.847,10.741s-86.97-103.938-93.977-110.9c-21.774-21.453-99.786-58.509-123.064-92.918-20.9-30.94.279-64,.279-64h85.772a177.37,177.37,0,0,1-8.735,26.761s71.242,53.647,109.231,91.943C332.764,391.847,426.629,505.439,426.629,505.439Z" transform="translate(-71.102 -59.38)" fill="#0a1633"/><path d="M193.627,263.691a41.954,41.954,0,0,0-7.328,2.117c-2.494.864-4.945,1.867-7.342,2.939a141.376,141.376,0,0,0-13.791,7.272c-.139.084,0,.279.125.209,4.709-2.271,9.557-4.291,14.418-6.213l6.965-2.786a76.293,76.293,0,0,0,7.091-2.884A.342.342,0,0,0,193.627,263.691Z" transform="translate(-50.433 -53.355)" fill="#455a64"/><path d="M185.833,248.49c-1.087,3.887-2.076,7.8-3.3,11.646-.571,1.755-1.128,3.552-1.853,5.266-.613,1.393-1.518,3.079-3.218,3.343-1.95.32-2.452-1.393-2.243-2.953a54.033,54.033,0,0,1,1.142-5.322c.46-2.02,2.786-11.827,2.786-11.883a.47.47,0,0,0-.084-.293.153.153,0,0,0-.181,0,85.68,85.68,0,0,0-3.274,9.6l-1.574,5.572a8.846,8.846,0,0,0-.5,4.332,3.316,3.316,0,0,0,3,2.591c0,.125-.153.237-.223.376-.181.376-.32.78-.474,1.17s-.307.808-.432,1.212a3.008,3.008,0,0,0-.139.613q0,.334,0,.669a.334.334,0,0,0,.613.237,6.346,6.346,0,0,1,.376-.543,2.675,2.675,0,0,0,.293-.641c.153-.39.279-.78.39-1.17s.237-.794.32-1.184a6.44,6.44,0,0,0,.1-.724,4.471,4.471,0,0,0,2.285-.794,7.55,7.55,0,0,0,2.438-3.5c.641-1.616,1.156-3.288,1.658-4.945a74.152,74.152,0,0,0,2.87-12.538.389.389,0,1,0-.766-.139Z" transform="translate(-47.152 -59.455)" fill="#455a64"/><path d="M153.756,254.23c-.4,1.922-.7,3.887-1.2,5.8s-1.059,3.734-1.727,5.572a20.423,20.423,0,0,1-2.535,4.973,18.916,18.916,0,0,1-3.915,3.761,32.415,32.415,0,0,1-9.348,4.834,41.046,41.046,0,0,1-5.14,1.393,26.034,26.034,0,0,1-2.786.39,5.99,5.99,0,0,0-2.215.446.446.446,0,0,0,0,.766,8.024,8.024,0,0,0,4.068.251,28.886,28.886,0,0,0,4.36-.641,31.18,31.18,0,0,0,8.358-3.2,26.175,26.175,0,0,0,7.035-5.419,19.322,19.322,0,0,0,3.9-7.927,39.452,39.452,0,0,0,1.518-10.88.2.2,0,1,0-.376-.111Z" transform="translate(-66.327 -57.128)" fill="#455a64"/><path d="M345.343,423.625a54.98,54.98,0,0,0-7.1.279c-2.48.167-4.973.32-7.453.529q-7.328.585-14.627,1.393c-9.752,1.114-19.6,2.285-29.38,3.622-5.1.71-16.034,2.173-16.606,2.494a.334.334,0,0,0,.153.613c9.752-.5,19.5-1.393,29.324-2.382s19.5-1.881,29.255-3.232c2.689-.376,5.363-.822,8.038-1.226a64.479,64.479,0,0,0,8.47-1.463C345.622,424.154,345.678,423.639,345.343,423.625Z" transform="translate(-9.194 9.505)" fill="#455a64"/><path d="M188.487,346.7c4.555,2.925,8.957,6.074,13.374,9.194a127.438,127.438,0,0,1,12.134,8.971,66.716,66.716,0,0,1,5.349,5.7l5.238,6.06q5.252,6.032,10.406,12.175,2.925,3.455,5.823,6.965c2.006,2.41,3.859,4.945,5.879,7.355.125.153-.084.362-.209.209-3.58-4.026-7.355-7.885-10.922-11.925s-7.119-8.038-10.671-12.217-6.673-8.038-10.281-11.785a84.326,84.326,0,0,0-12.008-9.417c-4.89-3.483-9.752-6.965-14.53-10.6C187.665,347.145,188.041,346.407,188.487,346.7Z" transform="translate(-41.475 -20.752)" fill="#455a64"/><path d="M175.749,268.074c14.641,10.281,29.812,21.774,43.575,33.183s27.416,23.069,40.747,35.036q5.572,5.015,11.145,10.169c3.706,3.469,7.328,7.787,11.033,11.242.209.181-.1.474-.307.293-6.687-6-13.624-12.538-20.409-18.444s-13.513-11.7-20.3-17.511q-20.45-17.511-41.416-34.423c-7.746-6.283-16.787-12.635-24.379-19.113A.265.265,0,0,1,175.749,268.074Z" transform="translate(-46.415 -51.651)" fill="#455a64"/><path d="M122.7,257.766c.822-2.466,1.714-4.918,2.633-7.369,0-.139.279,0,.237.07-3.455,10.211-6.965,20.645-7.369,31.511a41.083,41.083,0,0,0,2.229,15.324,40.121,40.121,0,0,0,7.829,12.747c6.826,7.7,15.519,13.778,23.682,19.921,8.9,6.673,17.985,13.137,27.165,19.5s18.57,12.3,28.07,18.11,19.113,11.047,28.572,16.717a75.941,75.941,0,0,1,12.775,9.487,156.582,156.582,0,0,1,11.061,11.883q11.451,13.081,22.693,26.357,22.526,26.468,44.2,53.731c1.755,2.229,3.524,4.444,5.294,6.673.084.111-.07.265-.167.153q-22.289-27.29-45.052-54.191-11.326-13.346-22.763-26.608c-7.3-8.442-14.335-17.4-23.682-23.752-4.5-3.065-9.292-5.67-14.028-8.358s-9.835-5.684-14.711-8.609q-14.5-8.735-28.586-18.11c-9.32-6.227-18.514-12.635-27.527-19.308q-6.77-4.987-13.4-10.156a130.623,130.623,0,0,1-11.033-9.334,49.441,49.441,0,0,1-8.832-11.145,36.527,36.527,0,0,1-4.319-14.14C116.556,278.314,119.342,267.7,122.7,257.766Z" transform="translate(-69.177 -58.603)" fill="#455a64"/><path d="M156.871,180.486c14.1,12.928,68.874,50.471,84.407,45.456,11.549-3.72,13.248-17.232,6.715-27.778-5.7-9.166-61.1-24.6-76.619-28.767C156.537,165.426,143.024,167.781,156.871,180.486Z" transform="translate(-55.943 -91.111)" fill="#ad6359"/><path d="M192.913,211.08l32.25-27.527S184.109,169.413,166,166.711c-18.89-2.786-24.407,3.511-4.527,19.141C181.058,201.245,192.913,211.08,192.913,211.08Z" transform="translate(-56.782 -91.726)" fill="#ffc727"/><path d="M182.007,179.069a2.215,2.215,0,0,1-.975.488,1.936,1.936,0,0,1-1.839-.557,2.563,2.563,0,0,0-2.786-.488,2.508,2.508,0,0,0-1.045.919c-.237.362-.5.683-.71,1.073.376-.223.71-.474,1.059-.71a2.424,2.424,0,0,1,.975-.529,1.936,1.936,0,0,1,1.839.488,2.605,2.605,0,0,0,2.786.585,2.507,2.507,0,0,0,1.087-.905c.237-.362.5-.683.71-1.073C182.7,178.581,182.425,178.832,182.007,179.069Zm20.492-2.563h0a2.633,2.633,0,0,0-1.616,1.463,2.467,2.467,0,0,0-.125,1.393c.084.418.139.836.251,1.254.111-.418.167-.836.251-1.254a2.577,2.577,0,0,1,.348-1.045,2.006,2.006,0,0,1,1.7-.892,2.27,2.27,0,0,0,1.17-.32Zm-17.664,26.469c-.1-.418-.139-.85-.265-1.268-.111.418-.167.85-.251,1.268a2.423,2.423,0,0,1-.32,1.059,2.033,2.033,0,0,1-.46.515l.738.585a2.159,2.159,0,0,0,.46-.766,2.689,2.689,0,0,0,.1-1.463Zm-32.264-36.61a.6.6,0,0,0,0,.153v-.167Zm54.985,29.255a2.577,2.577,0,0,0-1.658-2.354,2.535,2.535,0,0,0-1.393-.084c-.418.084-.836.125-1.254.251.418.111.836.167,1.254.251a2.563,2.563,0,0,1,1.059.32,1.978,1.978,0,0,1,.961,1.644,2.563,2.563,0,0,0,.822,1.909l.7-.6a1.937,1.937,0,0,1-.543-1.449Z" transform="translate(-55.362 -91.616)" fill="#fff"/><path d="M178.675,198.964c.683-.738,1.491-1.393,2.243-2.062l2.326-2.09q2.361-2.09,4.764-4.179c3.2-2.786,6.394-5.572,9.64-8.205.892-.738,1.783-1.477,2.7-2.187s1.964-1.393,2.925-2.2c0,0,.111,0,0,.1-.78.7-1.491,1.477-2.257,2.187l-2.382,2.145q-2.382,2.09-4.806,4.179c-3.162,2.689-6.325,5.391-9.557,8l-2.7,2.187c-.947.766-1.867,1.588-2.884,2.271C178.7,199.075,178.62,199.006,178.675,198.964Z" transform="translate(-45.107 -87.021)" fill="#263238"/><path d="M161.47,185.183c19.573,15.324,31.442,25.215,31.442,25.215l10.309-8.79L149.754,167.77C147.261,170.751,150.493,176.546,161.47,185.183Z" transform="translate(-56.78 -91.058)" fill="#263238"/><path d="M229.064,228.587c-7.843,11.98-21.927.919-24.031-8.86-4.945-22.958-4.458-49.566-3.079-66.241.571-6.812,42.586-8.358,41.973-1.073C242.646,167.653,242.646,207.844,229.064,228.587Z" transform="translate(-36.318 -98.98)" fill="#ad6359"/><path d="M201.17,179.7c.306,1.783.543,3.566.78,5.349s.432,3.566.641,5.349l.585,5.349c.084.905.2,1.8.306,2.689s.209,1.769.334,2.675a38.545,38.545,0,0,1-1.2-5.28c-.32-1.769-.543-3.566-.752-5.349s-.376-3.58-.488-5.377S201.17,181.511,201.17,179.7Z" transform="translate(-36.258 -86.369)" fill="#263238"/><path d="M202.25,187.62a24.719,24.719,0,0,1-.125,3.065,13.721,13.721,0,0,1-.139,1.5,11.817,11.817,0,0,1-.279,1.532,8.052,8.052,0,0,1-.307-3.093,8.137,8.137,0,0,1,.251-1.546A5.14,5.14,0,0,1,202.25,187.62Z" transform="translate(-36.181 -83.256)" fill="#263238"/><path d="M244.3,135.673c2.786,8.484,1.686,28.057-.4,32.668s-35.412,3.859-38.491-.32-10.239-33.434-6.965-42S241.427,126.938,244.3,135.673Z" transform="translate(-37.662 -108.792)" fill="#ad6359"/><path d="M197.407,144.1c3.58,3.079,5.168-2.912,5.168-2.912s-.2,9.166,4.723,10.922,6.408-5.572,6.534-6.157c0,.488,0,8.916,5.168,10.17s5.74-6.325,5.753-6.812c.139.46,2.076,6.506,6.185,6.561,7.063.111,2.563-15.5,5.572-20.395,0,0,8.86,4.1,9.139,4.179,0,0-3.97-14.948-10.8-18.584a4.932,4.932,0,0,0-6.088,1.045s-.752-4.959-4.764-6.074c-2.062-.557-4.792,2.229-4.792,2.229a6.185,6.185,0,0,0-4.4-4.709c-2.884-.613-5.182,2.285-5.182,2.285s-2.494-3.455-5.656-3.12C197.56,113.353,189.731,137.481,197.407,144.1Z" transform="translate(-38.986 -112.704)" fill="#ad6359"/><path d="M206.908,115.264c0-.084,0-.139-.111,0a44.035,44.035,0,0,0-6.6,25.326.265.265,0,0,0,.529,0,90.147,90.147,0,0,1,6.185-25.326Z" transform="translate(-36.66 -111.731)" fill="#263238"/><path d="M213.894,116.628c0-.1-.111-.167-.167,0-4.611,7.55-7.383,18.235-5.475,28.084,0,.334.46.571.418.181C207.9,138.179,210.7,124.151,213.894,116.628Z" transform="translate(-33.714 -111.201)" fill="#263238"/><path d="M216.958,147.247c-1.393-9.515.279-18.542,3.385-27.541,0-.125-.125-.167-.181-.084-2.786,4-4.179,9.947-4.806,14.669a25.311,25.311,0,0,0,1.268,13C216.679,147.456,216.985,147.442,216.958,147.247Z" transform="translate(-30.815 -110.001)" fill="#263238"/><path d="M200.226,134.742a28.233,28.233,0,0,0,.85,5.21,9.751,9.751,0,0,0,2.326,4.5,3.176,3.176,0,0,0,2.09.905,4.723,4.723,0,0,0,2.285-.529A5.656,5.656,0,0,0,210.325,141l.808-3.8.571,3.845a15.869,15.869,0,0,0,1.5,4.918,5.656,5.656,0,0,0,3.413,3.134,3.218,3.218,0,0,0,3.8-1.393,9.612,9.612,0,0,0,1.212-4.764l.139-4.583,1.393,4.36a15.213,15.213,0,0,0,1.588,3.455,6.088,6.088,0,0,0,2.577,2.438,2.939,2.939,0,0,0,3.051-.4,6.464,6.464,0,0,0,1.574-3.246,52.939,52.939,0,0,0,.836-7.927c.084-1.393.167-2.689.306-4.026a9.753,9.753,0,0,1,1.059-3.9,10.475,10.475,0,0,0-.683,3.929v4.012a44.468,44.468,0,0,1-.432,8.136,7.578,7.578,0,0,1-1.769,3.956,4.179,4.179,0,0,1-4.486.78,7.648,7.648,0,0,1-3.274-2.939,16.72,16.72,0,0,1-1.825-3.831l1.5-.223a11.339,11.339,0,0,1-1.393,5.642,4.709,4.709,0,0,1-2.438,2.034,5.28,5.28,0,0,1-3.148.07,7.147,7.147,0,0,1-4.319-3.97,17.371,17.371,0,0,1-1.574-5.433h1.393a6.77,6.77,0,0,1-3.441,4.555,5.683,5.683,0,0,1-2.87.5,4.04,4.04,0,0,1-2.619-1.268,9.863,9.863,0,0,1-2.173-4.945A23.681,23.681,0,0,1,200.226,134.742Z" transform="translate(-36.637 -106.259)" fill="#263238"/><path d="M205.751,161.262s-25.006-28.447-9.1-32.765c4.723-1.3,25.674-.933,25.674,3.274,0,5.433-8.749,6.965-14.4,6.965,0,0,9.863,8.47,6.018,17.107a9.417,9.417,0,0,1-8.191,5.419Z" transform="translate(-40.114 -106.756)" fill="#ad6359"/><path d="M194.23,129.107a19.378,19.378,0,0,1,5.572-1.393,44.4,44.4,0,0,1,5.781-.293,67.56,67.56,0,0,1,11.563,1.031,10.95,10.95,0,0,1,2.925.975,3.956,3.956,0,0,1,1.393,1.114,2.452,2.452,0,0,1,.46.85,3.274,3.274,0,0,1,.153.947,4.89,4.89,0,0,1-1.226,3.148,9.194,9.194,0,0,1-2.494,1.936,17.858,17.858,0,0,1-5.726,1.727,41.254,41.254,0,0,1-5.837.4l.4-1.184a22.786,22.786,0,0,1,2.967,3.3,21.331,21.331,0,0,1,2.271,3.789,14.862,14.862,0,0,1,1.24,4.179,11.618,11.618,0,0,1-.237,4.332,12.774,12.774,0,0,0-.223-4.249,15.994,15.994,0,0,0-1.532-3.928,20.537,20.537,0,0,0-2.382-3.483,21.133,21.133,0,0,0-2.953-2.953l-1.393-1.087,1.755-.1a41.643,41.643,0,0,0,5.572-.571,17.106,17.106,0,0,0,5.21-1.63c1.518-.822,2.9-2.173,2.884-3.65s-1.881-2.034-3.636-2.424a55.622,55.622,0,0,0-5.572-.933c-1.881-.237-3.775-.46-5.684-.585a36.569,36.569,0,0,0-11.256.724Z" transform="translate(-38.986 -106.92)" fill="#263238"/><path d="M222.506,296.507C220.6,299.2,111.06,309.435,110.433,308.85c-1.658-1.56,5.349-99.661,39.215-139.377,5.976-6.965,18.11-6.8,24.1-4.374,2.967,1.212,14.182,13.708,18.514,25.27S223.69,294.794,222.506,296.507Z" transform="translate(-72.012 -92.705)" fill="#ffc727"/><path d="M176.589,196.37a2.158,2.158,0,0,1-1.031-.348,1.95,1.95,0,0,1-.906-1.686,2.522,2.522,0,0,0-3.051-2.452c-.418.084-.85.139-1.268.251.418.125.85.167,1.268.251a2.563,2.563,0,0,1,1.059.32,1.95,1.95,0,0,1,.947,1.644,2.591,2.591,0,0,0,1.574,2.4,2.382,2.382,0,0,0,1.393.139c.418-.084.836-.139,1.268-.251C177.424,196.51,177.006,196.468,176.589,196.37Zm19.336,80.8a2.327,2.327,0,0,1-1.031-.362,1.95,1.95,0,0,1-.905-1.686,2.522,2.522,0,0,0-3.051-2.452c-.418.084-.836.139-1.268.251.432.125.85.167,1.268.265a2.214,2.214,0,0,1,1.059.32,1.95,1.95,0,0,1,.961,1.63,2.549,2.549,0,0,0,1.574,2.4,2.327,2.327,0,0,0,1.393.139c.432-.084.85-.139,1.268-.251a12.75,12.75,0,0,0-1.268-.265Zm-56.183-48.34a2.577,2.577,0,0,1-1.045-.348,2.006,2.006,0,0,1-.822-1.741,2.577,2.577,0,0,0-1.658-2.354,2.787,2.787,0,0,0-1.393-.1c-.418.1-.836.139-1.254.265.418.111.836.167,1.254.251a2.494,2.494,0,0,1,1.073.32,1.922,1.922,0,0,1,.947,1.644,2.605,2.605,0,0,0,1.574,2.4,2.465,2.465,0,0,0,1.393.125c.418-.084.836-.125,1.254-.251-.488-.084-.906-.139-1.323-.223Zm45.972,71.757a2.48,2.48,0,0,0-1.393-.1c-.418.084-.836.139-1.254.251.418.111.836.167,1.254.251a2.565,2.565,0,0,1,1.059.32,1.227,1.227,0,0,1,.334.265l1.156-.139a2.452,2.452,0,0,0-1.087-.864Zm-20.9-36.527a2.328,2.328,0,0,1-1.031-.348,1.964,1.964,0,0,1-.905-1.7,2.577,2.577,0,0,0-1.658-2.354,2.535,2.535,0,0,0-1.393-.084c-.418.084-.836.125-1.254.251.418.111.836.167,1.254.251a2.563,2.563,0,0,1,1.059.32,1.978,1.978,0,0,1,.961,1.644,2.591,2.591,0,0,0,1.574,2.4,2.424,2.424,0,0,0,1.393.125,12.752,12.752,0,0,0,1.268-.251,7.894,7.894,0,0,0-1.156-.265Zm-45.052,7.425a2.576,2.576,0,0,1-1.045-.348,1.978,1.978,0,0,1-.905-1.7,2.522,2.522,0,0,0-3.051-2.452c-.418.084-.836.139-1.254.251.418.125.836.181,1.254.265a2.216,2.216,0,0,1,1.059.32,1.95,1.95,0,0,1,.961,1.63,2.605,2.605,0,0,0,1.574,2.41,2.465,2.465,0,0,0,1.393.125c.418-.084.836-.139,1.254-.251C120.573,271.611,120.155,271.569,119.765,271.485Zm66-41.667a2.507,2.507,0,0,1-1.031-.348,1.978,1.978,0,0,1-.906-1.7,2.577,2.577,0,0,0-1.658-2.354,2.688,2.688,0,0,0-1.393-.1c-.418.1-.85.139-1.268.265.418.111.85.167,1.268.251a2.369,2.369,0,0,1,1.059.32,1.922,1.922,0,0,1,.947,1.644,2.605,2.605,0,0,0,1.574,2.4,2.493,2.493,0,0,0,1.393.125c.418-.084.85-.139,1.268-.251-.39-.111-.864-.167-1.282-.251Zm-38.282-53.48a2.605,2.605,0,0,1-.975.529,1.992,1.992,0,0,1-1.839-.488,2.466,2.466,0,0,0-1.17-.669c-.209.293-.418.571-.6.864a1.8,1.8,0,0,1,1.045.557,2.535,2.535,0,0,0,3.9-.432c.237-.362.488-.7.71-1.073C148.17,175.85,147.849,176.1,147.487,176.338Zm20.9-12.468a2.661,2.661,0,0,0-.627.892,2.466,2.466,0,0,0-.125,1.393c.084.418.139.836.251,1.254.125-.418.167-.836.251-1.254a2.578,2.578,0,0,1,.348-1.045,1.978,1.978,0,0,1,1.546-.892c-.46-.167-1-.167-1.5-.348Zm-5.7,71.228c-.084-.418-.125-.836-.251-1.268-.111.432-.167.85-.251,1.268a2.563,2.563,0,0,1-.32,1.059,1.978,1.978,0,0,1-1.644.961,2.563,2.563,0,0,0-2.4,1.574,2.424,2.424,0,0,0-.125,1.393c.084.418.125.85.251,1.268.111-.418.167-.85.251-1.268a2.327,2.327,0,0,1,.348-1.031,1.964,1.964,0,0,1,1.7-.905,2.591,2.591,0,0,0,2.354-1.658A2.535,2.535,0,0,0,162.686,235.1Zm52.059,54.957a12.794,12.794,0,0,0-.265-1.268c-.111.418-.167.836-.251,1.268a2.257,2.257,0,0,1-.32,1.059,1.923,1.923,0,0,1-1.63.947,2.633,2.633,0,0,0-2.41,1.574,2.494,2.494,0,0,0-.125,1.393c.084.418.139.836.251,1.268.125-.432.167-.85.251-1.268a2.507,2.507,0,0,1,.348-1.031,1.978,1.978,0,0,1,1.7-.905,2.577,2.577,0,0,0,2.354-1.658,2.689,2.689,0,0,0,.1-1.449Zm-92.765-52.31c-.084-.432-.139-.85-.251-1.268-.125.418-.167.836-.265,1.268a2.313,2.313,0,0,1-.32,1.059,1.909,1.909,0,0,1-1.63.947,2.648,2.648,0,0,0-1.24.32c-.125.5-.237,1-.348,1.5a1.95,1.95,0,0,1,1.6-.78,2.521,2.521,0,0,0,2.452-3.051Zm23.863-41.1c-.084-.418-.125-.836-.251-1.254-.111.418-.167.836-.251,1.254a2.7,2.7,0,0,1-.32,1.073,1.922,1.922,0,0,1-1.644.947,2.521,2.521,0,0,0-2.535,2.981c.1.418.139.836.265,1.254.111-.418.167-.836.251-1.254a2.383,2.383,0,0,1,.348-1.045,1.978,1.978,0,0,1,1.7-.892,2.507,2.507,0,0,0,2.438-3.065Zm50.3,9.835a2.354,2.354,0,0,0-.836,1.045,2.493,2.493,0,0,0-.125,1.393c.084.418.139.836.251,1.268.111-.432.167-.85.251-1.268a2.507,2.507,0,0,1,.348-1.031,2.048,2.048,0,0,1,.4-.446Zm-49.83,72.245c-.084-.418-.125-.836-.251-1.254-.111.418-.167.836-.251,1.254a2.369,2.369,0,0,1-.32,1.059,1.936,1.936,0,0,1-1.644.961,2.605,2.605,0,0,0-2.4,1.574,2.466,2.466,0,0,0-.125,1.393c.084.418.125.836.251,1.254.111-.418.167-.836.251-1.254a2.382,2.382,0,0,1,.348-1.045,1.95,1.95,0,0,1,1.7-.892,2.508,2.508,0,0,0,2.438-3.065Zm17.051-67.815a2.229,2.229,0,0,1-.989.474,1.922,1.922,0,0,1-1.825-.557,2.535,2.535,0,0,0-3.9.432c-.237.362-.488.7-.71,1.073.39-.209.71-.474,1.073-.71a2.605,2.605,0,0,1,.975-.529,1.992,1.992,0,0,1,1.839.488,2.6,2.6,0,0,0,2.786.585,2.508,2.508,0,0,0,1.087-.905c.237-.348.488-.683.71-1.059a6.032,6.032,0,0,0-1.045.641Zm-23.028,45.359a2.424,2.424,0,0,1-.989.488,1.964,1.964,0,0,1-1.825-.571,2.591,2.591,0,0,0-2.786-.488,2.647,2.647,0,0,0-1.059.919c-.237.362-.488.7-.71,1.073.39-.209.71-.474,1.073-.71a2.6,2.6,0,0,1,.975-.529,1.992,1.992,0,0,1,1.839.488,2.563,2.563,0,0,0,2.786.585,2.619,2.619,0,0,0,1.1-.892c.223-.362.488-.7.71-1.073a11.92,11.92,0,0,0-1.114.641Zm9.947,47.086a2.214,2.214,0,0,1-.975.488,1.992,1.992,0,0,1-1.839-.557,2.549,2.549,0,0,0-2.786-.5,2.592,2.592,0,0,0-1.059.933c-.237.348-.5.683-.71,1.059.376-.209.71-.474,1.073-.71a2.382,2.382,0,0,1,.975-.515,1.881,1.881,0,0,1,1.825.488,2.6,2.6,0,0,0,2.786.571,2.4,2.4,0,0,0,1.087-.892c.237-.362.5-.7.71-1.073A6.6,6.6,0,0,0,150.287,303.359Zm44.578-51.795a2.382,2.382,0,0,1-.975.488,2.02,2.02,0,0,1-1.839-.557,2.577,2.577,0,0,0-2.786-.5,2.633,2.633,0,0,0-1.045.933c-.237.348-.5.683-.71,1.059.376-.209.71-.474,1.059-.71a2.425,2.425,0,0,1,.989-.515,1.909,1.909,0,0,1,1.825.474,2.591,2.591,0,0,0,2.786.585,2.4,2.4,0,0,0,1.087-.892c.237-.362.5-.7.71-1.073a7.436,7.436,0,0,0-1.114.683Zm-20.9,33.016a2.076,2.076,0,0,1-.975.488,1.95,1.95,0,0,1-1.839-.557,2.549,2.549,0,0,0-2.786-.488,2.466,2.466,0,0,0-1.059.919c-.237.362-.5.7-.71,1.073.376-.223.71-.474,1.073-.71a2.6,2.6,0,0,1,.975-.529,1.992,1.992,0,0,1,1.839.488,2.591,2.591,0,0,0,2.786.585,2.507,2.507,0,0,0,1.087-.905,11.924,11.924,0,0,0,.71-1.073,8.836,8.836,0,0,0-1.142.683Zm-47.476,6.492a2.077,2.077,0,0,1-.975.488,1.937,1.937,0,0,1-1.839-.557,2.563,2.563,0,0,0-2.786-.488,2.508,2.508,0,0,0-1.045.919c-.237.362-.5.7-.71,1.073.376-.209.71-.474,1.059-.71a2.6,2.6,0,0,1,.975-.529,1.964,1.964,0,0,1,1.839.488,2.605,2.605,0,0,0,2.786.585,2.507,2.507,0,0,0,1.087-.905,11.932,11.932,0,0,0,.71-1.073,8.829,8.829,0,0,0-1.142.683Z" transform="translate(-70.715 -92.591)" fill="#fff"/><path d="M138.59,182.647c-14.613,18.779-50.6,75.574-39.09,88.6s85.967,16.884,106.194,9.208c6.018-2.285-13.025-40.19-19.754-41.6-5.572-1.156-42.949-1.1-43.185-2.285-.376-2.076,8.47-26.468,13.931-50.624C162.69,160,148.439,170.012,138.59,182.647Z" transform="translate(-77.099 -90.292)" fill="#ad6359"/><path d="M184.77,215.768c14.237.766,17.776,3.148,30.132-2.591,8.108-3.761,13.931-.2,8.358,7.188-9.236,12.092-27.862,14.948-34.534,14.1Z" transform="translate(-42.704 -73.805)" fill="#ad6359"/><path d="M156.48,220.795s17.246-5.572,32.5-6.3c10.56-.474,33.615,1.059,50.819,27.458,4.082,6.269,5.461,18.11-4.918,10.281-7.369-5.572-10.378-11.3-15.254-13.736,0,0,0,15.24-6.464,19.085a139.991,139.991,0,0,1-17.525,8.846,30.117,30.117,0,0,1-1.95-3.134s-6.352,3.023-16.605,0Z" transform="translate(-53.824 -72.716)" fill="#ad6359"/><path d="M190.333,215.35c4.332,3.441,13.374,10.908,18.653,19.587,5.865,9.654,14.558,29.8,7.4,34.061-5.252,3.12-9.25-4.291-9.25-4.291s1.839,9.1-3.524,10.866c-4.876,1.63-7.62-4.291-7.62-4.291s.167,5.712-4.848,6.366c-6.018.794-5.377-11.3-12.175-15.77C177.447,260.834,190.333,215.35,190.333,215.35Z" transform="translate(-45.035 -72.356)" fill="#ad6359"/><path d="M192.458,232.643c3.538,3.915,9.292,14.864,9.487,25.075,0,.223-.167.348-.223.139A111.137,111.137,0,0,0,192.36,232.7S192.416,232.6,192.458,232.643Z" transform="translate(-39.721 -65.562)" fill="#263238"/><path d="M185.584,237.093c2.717,3.692,8.136,15.24,7.982,25.591,0,.237-.2.348-.223.139a119.39,119.39,0,0,0-7.843-25.674S185.556,237.051,185.584,237.093Z" transform="translate(-42.417 -63.813)" fill="#263238"/><path d="M201.864,231.682c4.179,2.215,6.756,5,10.058,8.358a61.724,61.724,0,0,0,5.1,4.82c1.644,1.393,4.068,3.385,6.325,2.215a3.775,3.775,0,0,0,1.56-3.525,18.11,18.11,0,0,0-1.491-5.572c0-.07.1-.125.125,0a26.817,26.817,0,0,1,1.825,5.1,6.24,6.24,0,0,1-.279,3.608c-1.156,2.368-4.179,2.117-6.1,1.031a20.894,20.894,0,0,1-3.218-2.41c-.975-.85-1.909-1.741-2.786-2.647-1.867-1.867-3.622-3.845-5.461-5.726a57.755,57.755,0,0,0-5.726-5.029C201.683,231.766,201.78,231.641,201.864,231.682Z" transform="translate(-36.032 -65.939)" fill="#263238"/><path d="M209.248,249.415a140.371,140.371,0,0,0-6.478-17.636c0-.084,0-.139.111-.07,2.884,4.012,6.812,13.931,7.578,17.079s1.56,6.965.947,10.072c-.919,4.723-4.179,5-5.433,5.015a6.227,6.227,0,0,1-3.887-1.393,12.537,12.537,0,0,1-2.967-4.179c0-.084,0-.153.111,0,1.268,2.173,3.622,4.541,6.255,4.695a4.374,4.374,0,0,0,3.232-1,5.684,5.684,0,0,0,1.491-3.65,26.106,26.106,0,0,0-.961-8.93Z" transform="translate(-37.063 -65.938)" fill="#263238"/><path d="M145.2,227.513,103,223.7s25.326-35.259,38.546-47.936c13.778-13.22,21.941-11.242,14.767,13C149.194,212.635,145.2,227.513,145.2,227.513Z" transform="translate(-74.846 -91.108)" fill="#ffc727"/><path d="M124.155,188.138h0l-.418.515h.306c.418-.084.836-.139,1.254-.265A8.881,8.881,0,0,0,124.155,188.138ZM139.242,225.5a2.578,2.578,0,0,1-1.045-.348,2.006,2.006,0,0,1-.822-1.727,2.577,2.577,0,0,0-1.658-2.354,2.786,2.786,0,0,0-1.393-.1c-.418.1-.836.139-1.254.265.418.111.836.167,1.254.251a2.494,2.494,0,0,1,1.073.32,1.923,1.923,0,0,1,.947,1.644,2.619,2.619,0,0,0,.808,1.881l2.786.251Zm7.746-52.477a2.6,2.6,0,0,1-.975.529,1.992,1.992,0,0,1-1.839-.488,2.605,2.605,0,0,0-2.786-.585,2.508,2.508,0,0,0-1.087.905c-.237.348-.488.683-.71,1.073.39-.223.724-.474,1.073-.71a2.117,2.117,0,0,1,.989-.488,1.922,1.922,0,0,1,1.825.557,2.535,2.535,0,0,0,3.9-.432c.237-.362.488-.7.71-1.073-.418.223-.738.474-1.1.711Zm-1.644,20.241c-.084-.418-.125-.836-.251-1.254-.111.418-.167.836-.251,1.254a2.7,2.7,0,0,1-.32,1.073,1.922,1.922,0,0,1-1.644.947,2.521,2.521,0,0,0-2.535,2.981c.1.418.139.836.265,1.254.111-.418.167-.836.251-1.254a2.382,2.382,0,0,1,.348-1.045,1.978,1.978,0,0,1,1.7-.892,2.508,2.508,0,0,0,2.438-3.065Zm-23.195,15.324a2.215,2.215,0,0,1-.975.488,1.95,1.95,0,0,1-1.839-.557,2.549,2.549,0,0,0-2.786-.488,2.466,2.466,0,0,0-1.059.919,11.927,11.927,0,0,0-.71,1.073c.376-.223.71-.488,1.073-.71a2.257,2.257,0,0,1,.975-.529,1.881,1.881,0,0,1,1.825.488,2.647,2.647,0,0,0,2.786.585,2.507,2.507,0,0,0,1.087-.905c.237-.362.5-.683.71-1.073-.39.223-.724.474-1.087.71Z" transform="translate(-70.215 -89.277)" fill="#fff"/><path d="M140.8,206.026c-.989-.209-2.02-.279-3.023-.39l-3.107-.362c-2.09-.237-4.179-.446-6.3-.641-4.179-.39-8.358-.808-12.607-1.128l-3.469-.237c-1.226,0-2.452,0-3.664-.1-.07,0-.07.111,0,.125,1.031.125,2.062.334,3.107.474s2.131.265,3.19.362c2.1.223,4.179.418,6.311.6,4.179.362,8.275.738,12.412,1l3.483.209c1.212.084,2.438.223,3.65.2Z" transform="translate(-72.652 -77.143)" fill="#263238"/><path d="M131.86,219.77h2.285l-.167.125c.585-2.786,1.3-5.572,1.95-8.358s1.393-5.572,2.215-8.358c1.56-5.572,3.2-11.033,5.154-16.438-1.114,5.656-2.521,11.145-4.012,16.717q-1.128,4.179-2.368,8.289c-.864,2.786-1.672,5.489-2.633,8.191v.139h-.125A23.189,23.189,0,0,1,131.86,219.77Z" transform="translate(-63.502 -83.602)" fill="#263238"/><path d="M137.46,198.909a20.521,20.521,0,0,1,1.783-4.332,19.805,19.805,0,0,1,2.633-3.817,19.5,19.5,0,0,1-1.783,4.332,20.449,20.449,0,0,1-2.633,3.817Z" transform="translate(-61.3 -82.021)" fill="#263238"/><path d="M160.326,189.949c-5.893,1.031-15.324-8.358-18.862-15.867-.237-.5,2.967-20.13,3.2-24.086,0-.808,24.449,7.481,24.449,7.481a63.178,63.178,0,0,0-3.288,15.045C165.787,173.107,166.01,188.946,160.326,189.949Z" transform="translate(-59.732 -98.067)" fill="#ad6359"/><path d="M167.971,157.453a63.176,63.176,0,0,0-3.288,15.045v1.895a12.785,12.785,0,0,1-2.424,0c-13.471-1.1-17.037-17.943-17.929-24.393l.738.167.808.209.488.125,1.7.488.738.223c1.087.32,2.285.7,3.525,1.087l.529.167,3.4,1.087.46.153,1.031.334,1.059.348,3.26,1.073.446.153,1.644.543.376.125,1.727.585.293.1.905.306h.167l.32.1Z" transform="translate(-58.6 -98.043)" fill="#263238"/><path d="M147.188,130.359c-4.555,8.01-5.572,33.852-.766,40.775,7.049,10.016,21.384,14.056,30.648,4.945,8.93-8.832,9.752-42.545,4.04-49.106C172.681,117.291,153.93,118.545,147.188,130.359Z" transform="translate(-59.02 -109.635)" fill="#ad6359"/><path d="M161.93,142.378c0-.07-.139,0-.139.139,0,1.755-.348,3.747-1.95,4.249v.1C161.79,146.682,162.18,144.035,161.93,142.378Z" transform="translate(-52.503 -101.05)" fill="#263238"/><path d="M160.95,141c-2.786-.334-3.26,5.266-.683,5.572S163.346,141.311,160.95,141Z" transform="translate(-53.001 -101.585)" fill="#263238"/><path d="M168.28,143.14s.125.1.111.167c-.2,1.727-.139,3.747,1.393,4.458v.1C167.862,147.431,167.806,144.756,168.28,143.14Z" transform="translate(-49.283 -100.74)" fill="#263238"/><path d="M169.949,141.94c2.786,0,2.549,5.642,0,5.572S167.595,141.912,169.949,141.94Z" transform="translate(-49.253 -101.212)" fill="#263238"/><path d="M159.248,140.05a21.22,21.22,0,0,0,2.243-.585,3.72,3.72,0,0,0,2.173-1.017,1.212,1.212,0,0,0-.07-1.393,2.981,2.981,0,0,0-2.939-.557,4.388,4.388,0,0,0-2.647,1.658,1.268,1.268,0,0,0,1.24,1.895Z" transform="translate(-53.291 -103.417)" fill="#263238"/><path d="M172.4,141.107a17.489,17.489,0,0,1-2.173-.766,3.776,3.776,0,0,1-2.076-1.2,1.2,1.2,0,0,1,.2-1.393,2.939,2.939,0,0,1,2.967-.293,4.319,4.319,0,0,1,2.494,1.867,1.254,1.254,0,0,1-1.407,1.783Z" transform="translate(-49.292 -103.081)" fill="#263238"/><path d="M158.915,153.8c.376.446.752,1.045,1.393,1.142a4.179,4.179,0,0,0,1.895-.279s.111,0,.07.1a2.312,2.312,0,0,1-2.285.752,1.825,1.825,0,0,1-1.226-1.644C158.72,153.77,158.86,153.742,158.915,153.8Z" transform="translate(-52.93 -96.562)" fill="#263238"/><path d="M160.509,155.286a5.921,5.921,0,0,0,3.72,2.967,7.257,7.257,0,0,0,2.117.279,1.294,1.294,0,0,0,.4,0h.39a.46.46,0,0,0,.39-.362h0v-.181h0v-.153c.153-1.393.2-3.371.2-3.371.474.279,2.87,1.616,2.884.919a88.5,88.5,0,0,0-.766-18.11.167.167,0,0,0-.32,0c-.362,5.572.265,11.145,0,16.787a10.532,10.532,0,0,0-2.786-1.087c-.2,0,0,3.956-.139,4.541a.249.249,0,0,1,0,.07,8.178,8.178,0,0,1-5.948-2.424C160.565,155.049,160.411,155.147,160.509,155.286Z" transform="translate(-52.253 -103.093)" fill="#263238"/><path d="M165.888,152.7a7.133,7.133,0,0,1-3,1.936,3.176,3.176,0,0,1-1.936,0c-1.393-.488-1.282-1.755-.933-2.786a8.162,8.162,0,0,1,.766-1.616A9.1,9.1,0,0,0,165.888,152.7Z" transform="translate(-52.52 -97.953)" fill="#263238"/><path d="M162.873,154.146a3.177,3.177,0,0,1-1.936,0c-1.393-.488-1.282-1.755-.933-2.786A3.274,3.274,0,0,1,162.873,154.146Z" transform="translate(-52.528 -97.509)" fill="#ff98b9"/><path d="M146.825,154.532c4.723.279,5.572-11.242,5.572-11.242s7.314-.446,11.98-9.849c0,0,8.526,6.882,16.424,6.394,12.371-.766,13.931-16.536,9.752-20.269-5.893-5.308-18.11,0-18.11,0s-16.717-6.882-23.292,4.179a8.944,8.944,0,0,0-9.306,7.885C138.369,140.1,143.3,154.351,146.825,154.532Z" transform="translate(-60.468 -110.934)" fill="#263238"/><path d="M147.543,140.789a16.02,16.02,0,0,0,9.64-3.859,12.022,12.022,0,0,0,4.012-10.267.167.167,0,0,1,.32,0c.376,4.179-.348,8.191-3.288,11.256a11.145,11.145,0,0,1-10.7,3.26C147.348,141.11,147.334,140.8,147.543,140.789Z" transform="translate(-57.397 -107.263)" fill="#263238"/><path d="M140.542,124.641c2.786-2.786,6.436-2.786,10.016-2.229a.167.167,0,0,1,0,.32c-3.5-.822-7.342,1.114-9.529,3.789s-2.159,6.255-1.8,9.473a25.3,25.3,0,0,0,8.247,16.174.084.084,0,1,1-.1.125,25.3,25.3,0,0,1-9.362-17.734C137.783,131.189,138.02,127.163,140.542,124.641Z" transform="translate(-61.108 -109.002)" fill="#263238"/><path d="M162.841,120.507a11.883,11.883,0,0,1,7.258-4.3,14.265,14.265,0,0,1,9.919,2.215,8.052,8.052,0,0,1,3.385,7.3,14.223,14.223,0,0,1-4.179,8.553c0,.07-.167,0-.111-.084a14.181,14.181,0,0,0,3.441-7.829A7.369,7.369,0,0,0,179,119.392c-4.709-2.786-12.008-3.3-15.867,1.393C162.953,120.869,162.7,120.66,162.841,120.507Z" transform="translate(-51.34 -111.387)" fill="#263238"/><path d="M159.669,152.048a7.467,7.467,0,1,1,9.013-7.578h0a7.467,7.467,0,0,1-7.174,7.732A7.3,7.3,0,0,1,159.669,152.048Zm2.912-13.61a6.13,6.13,0,0,0-1.6-.139,6.464,6.464,0,1,0,1.6.139Z" transform="translate(-54.896 -103.044)" fill="#ffc727"/><path d="M171.429,153.176c-2.786-.6-4.709-4-4.346-7.871a8.957,8.957,0,0,1,2.062-5.043,4.653,4.653,0,0,1,7.927.738,8.944,8.944,0,0,1,1.073,5.336c-.39,4.1-3.176,7.188-6.227,6.965ZM173.6,139.44h-.376a3.956,3.956,0,0,0-3.329,1.532,7.843,7.843,0,0,0-1.811,4.472c-.334,3.552,1.393,6.631,3.928,6.868s4.806-2.466,5.14-6a7.982,7.982,0,0,0-.947-4.75A4.179,4.179,0,0,0,173.6,139.4Z" transform="translate(-49.674 -102.612)" fill="#ffc727"/><path d="M164.351,143.515l-.571-.822c1.212-.836,3.942-1.867,5.572.237l-.794.613C167.109,141.7,164.463,143.515,164.351,143.515Z" transform="translate(-50.955 -101.31)" fill="#ffc727"/><path d="M140.546,143.445l-.836-.529c.251-.39,2.521-3.831,4.764-3.984S159.8,141.3,160.328,141.4l-.181.989c-3.789-.724-13.931-2.563-15.6-2.452S141.159,142.512,140.546,143.445Z" transform="translate(-60.416 -102.397)" fill="#ffc727"/><path d="M149.528,145.278s-3.984-9.222-8.052-7.954-2.229,13.805,1.741,16.285a4.444,4.444,0,0,0,6.325-1.142Z" transform="translate(-60.621 -103.073)" fill="#ad6359"/><path d="M141.288,139.83c-.07,0-.1,0,0,.111,2.786,1.839,3.775,4.959,4.291,8.08a2.466,2.466,0,0,0-3.469-1.393c-.1,0,0,.181,0,.181a2.786,2.786,0,0,1,2.786,1.546,12.913,12.913,0,0,1,.919,2.675c.084.306.6.265.557-.07v-.084C147.222,147.032,145.328,141.056,141.288,139.83Z" transform="translate(-59.821 -102.041)" fill="#263238"/><path d="M139.751,168.306c.71,1.282,1.31,2.605,2.09,3.859a42.181,42.181,0,0,0,2.577,3.664,39.949,39.949,0,0,0,6.032,6.241,14.432,14.432,0,0,0,8.191,3.9,7.829,7.829,0,0,0,7.119-3.761c2.034-3.107,2.006-6.965,1.978-10.657a.111.111,0,1,1,.209,0c.111,3.859.139,6.965-1.282,10.309a8.358,8.358,0,0,1-6.13,5.126c-6.589,1.128-12.008-4.681-15.616-9.4a41.28,41.28,0,0,1-2.911-4.332,32.038,32.038,0,0,1-2.466-4.876C139.5,168.264,139.695,168.194,139.751,168.306Z" transform="translate(-60.484 -90.87)" fill="#263238"/></g><g transform="translate(46.776 362.465)"><rect width="499.474" height="17.762" transform="translate(499.474 17.762) rotate(180)" fill="#37474f"/><rect width="499.474" height="6.938" transform="translate(499.474 17.776) rotate(180)" fill="#455a64"/><path d="M425.451,522.172h7.174l-20.9-249.222H393.41Z" transform="translate(56.108 -255.174)" fill="#455a64"/><path d="M393.41,272.95l2.145,16.675h17.567l-1.393-16.675Z" transform="translate(56.108 -255.174)" fill="#263238"/><path d="M85.614,522.172H78.44l20.9-249.222h18.319Z" transform="translate(-67.699 -255.174)" fill="#455a64"/><path d="M112.152,272.95l-2.145,16.675H92.44l1.393-16.675Z" transform="translate(-62.196 -255.174)" fill="#263238"/></g><g transform="translate(203.525 290.498)"><rect width="108.73" height="4.876" transform="translate(0 67.091)" fill="#c7c7c7"/><rect width="54.734" height="4.876" transform="translate(54.01 67.091)" fill="#a6a6a6"/><path d="M226.25,280.5H332.221l13.847-71.966H240.1Z" transform="translate(-166.348 -208.53)" fill="#c7c7c7"/><path d="M264.64,236.18a5.8,5.8,0,0,0,5.879,6.45,7.188,7.188,0,0,0,6.965-6.45,5.823,5.823,0,0,0-5.893-6.45,7.16,7.16,0,0,0-6.951,6.45Z" transform="translate(-151.272 -200.197)" fill="#a6a6a6"/></g><g transform="translate(444.074 460.223)"><path d="M410.555,354.154c-12.733,17.232-25.995,37.223-29.255,58.83a.293.293,0,0,0,.571.111,130.586,130.586,0,0,1,5.572-17.3c8.358-2.3,16.578-4.179,20.966-12.538,4.486-8.526,3.915-19.656,3.065-28.948C411.53,353.847,410.806,353.819,410.555,354.154Z" transform="translate(-345.951 -321.102)" fill="#ffc727"/><path d="M385.857,394.09c5.726-12.83,13.053-25.7,22.387-36.22,0,0,.153,0,.1.111A152.9,152.9,0,0,0,393.017,382c4.179-4.277,8.818-8.108,12.816-12.649,0-.084.2,0,.125.125-3.956,4.764-8.289,9.933-13.457,13.443q-2.076,3.817-4.179,7.676c.348-.2.711-.362,1.059-.543,0,0,.125.07,0,.1-.39.2-.78.4-1.184.585-.669,1.212-1.393,2.424-2.02,3.636C386.066,394.592,385.745,394.355,385.857,394.09Z" transform="translate(-344.169 -319.553)" fill="#263238"/><path d="M388.927,382.49a75.872,75.872,0,0,0,9.752-6.52c.083,0,.2,0,.111.125a52.074,52.074,0,0,1-9.751,6.645.139.139,0,0,1-.111-.251Z" transform="translate(-342.976 -312.438)" fill="#263238"/><path d="M380.53,419.014c0,.265.46.251.46,0,0-7.119,0-14.265.111-21.412,1.825-3.678,5.739-5.712,8.456-8.665a37.53,37.53,0,0,0,5.071-7.063,50.554,50.554,0,0,0,5.893-19.629c.752-7.606-2.131-32.723-5.349-31.86-1.658.46-7.049,12.9-8.47,17.01a119.2,119.2,0,0,0-5.071,20.9C379.039,384.995,379.249,402.185,380.53,419.014Z" transform="translate(-346.616 -330.364)" fill="#ffc727"/><path d="M380.254,387.1h0c.39-9,2.424-18.11,4.319-26.831,2.048-9.4,4.444-18.263,9.278-26.65a.139.139,0,0,1,.237.139,99.877,99.877,0,0,0-7.453,20.464c.334-.515.724-.989,1.059-1.477.139-.181.446,0,.32.2a13.462,13.462,0,0,1-1.518,2.131h0c-1.672,6.729-2.87,13.6-3.887,20.464.07-.084.139-.181.223-.265l.1.084c-.125.223-.265.446-.4.669-.515,3.483-.989,6.965-1.477,10.406A49.078,49.078,0,0,0,395.536,367.2s.07,0,0,0c-2.925,7.982-7.537,15.087-14.641,19.921-.125.933-.251,1.867-.39,2.786,0,.2-.334.139-.334,0a24.311,24.311,0,0,1,.084-2.466C380.184,387.3,380.142,387.174,380.254,387.1Z" transform="translate(-346.395 -329.103)" fill="#263238"/><path d="M382.337,368.77a144.054,144.054,0,0,0,12.621-21.76c0-.084.2,0,.153.07a70.546,70.546,0,0,1-12.538,21.871C382.462,369.076,382.239,368.909,382.337,368.77Z" transform="translate(-345.552 -323.835)" fill="#263238"/><path d="M386.856,348.7c1.964-3.483,4.026-6.854,5.879-10.406,0-.1.181,0,.139.1a53.855,53.855,0,0,1-5.726,10.476.168.168,0,0,1-.293-.167Z" transform="translate(-343.775 -327.264)" fill="#263238"/><path d="M386.3,346.83Z" transform="translate(-343.985 -323.892)" fill="#263238"/><path d="M382.426,395.425a72.8,72.8,0,0,1-1.658,14.014l.209,1.532a66.184,66.184,0,0,0,2.508-15.63.446.446,0,0,0,0-.474h0a103.842,103.842,0,0,0-1.574-21.175c-2.2-13.081-6.965-25.633-16.132-35.44a.669.669,0,0,0-1.017.209c-3.678,9.361-2.4,20.534.738,29.868a55,55,0,0,0,7.244,14.182C375.893,386.9,379.9,390.618,382.426,395.425Z" transform="translate(-353.332 -327.323)" fill="#ffc727"/><path d="M365.725,341.354c8.651,14.028,14.655,30.648,15.393,47.225,0,.292-.474.376-.515.07-.209-1.491-.432-2.967-.683-4.43h0a57.115,57.115,0,0,1-9.752-11.326c0-.07,0-.167.125-.1a117.979,117.979,0,0,0,9.529,10.378q-.919-5.489-2.215-10.824c-.237-.265-.46-.543-.683-.808s.1-.432.251-.251l.209.223a123.357,123.357,0,0,0-4.528-14.349c-2.2-2.619-4.653-4.89-6.255-8.052l.111-.07c1.3,1.811,2.535,3.636,4,5.308.585.669,1.226,1.3,1.825,1.95a109.927,109.927,0,0,0-7.077-14.753.2.2,0,0,1,.265-.2Z" transform="translate(-352.177 -326.05)" fill="#263238"/><path d="M366.969,353.784c2.786,3.761,5.976,7.341,8.567,11.228a.114.114,0,0,1-.181.139,57.409,57.409,0,0,1-8.581-11.256C366.7,353.77,366.886,353.672,366.969,353.784Z" transform="translate(-351.666 -321.178)" fill="#263238"/><path d="M373.383,362.467l.125.111c.084.083,0,.223-.139.139l-.111-.125a.089.089,0,0,1,.125-.125Z" transform="translate(-349.122 -317.756)" fill="#263238"/><path d="M355.932,360.947a42.976,42.976,0,0,0,9.125,21.4,22.819,22.819,0,0,0,7.4,5.767c3.2,1.588,6.547,3.413,9.863,4.708a64.7,64.7,0,0,1,3.5,12.412c.111-.362.209-.738.32-1.087C384,385.869,372.2,370.253,357.06,360.223a.738.738,0,0,0-1.128.724Z" transform="translate(-355.925 -318.673)" fill="#ffc727"/><path d="M359.693,364.641a.124.124,0,0,1,.153-.2,62.005,62.005,0,0,1,19.28,23.752c.1.251-.237.46-.376.223-.71-1.24-1.393-2.438-2.159-3.608h0c-3.455-.655-6.729-3.079-9.292-5.391-.07,0,0-.167.1-.1a22.066,22.066,0,0,0,4.374,3.065c1.393.711,2.925,1.17,4.388,1.741q-1.923-3.051-4.012-5.865a40.4,40.4,0,0,1-10.365-5.837c-.1-.07,0-.237.1-.167a105.042,105.042,0,0,0,9.64,5.154,85.09,85.09,0,0,0-6.812-7.941c-1.17-.613-2.354-1.24-3.5-1.909-.1,0,0-.209.07-.167a11.979,11.979,0,0,1,2.689,1.309C362.6,367.33,361.2,365.978,359.693,364.641Z" transform="translate(-354.462 -316.976)" fill="#263238"/><path d="M359.949,369.115a4.443,4.443,0,0,1,.585.418s0,.111-.07.1a5.327,5.327,0,0,1-.613-.348C359.754,369.212,359.851,369.045,359.949,369.115Z" transform="translate(-354.397 -315.139)" fill="#263238"/><path d="M406.258,433.909H364.8l3.357-37.738.724-8.331h33.295l.724,8.331Z" transform="translate(-352.436 -307.772)" fill="#455a64"/><path d="M401.953,396.171H367.21l.724-8.331h33.295Z" transform="translate(-351.489 -307.772)" fill="#263238"/><rect width="37.251" height="8.233" transform="translate(14.467 74.245)" fill="#455a64"/></g><g transform="translate(195.21 78.584)"><path d="M209.028,56.41c-42.294,0-42.363,60.139,0,60.139S251.377,56.41,209.028,56.41Z" transform="translate(-177.281 -56.41)" fill="#ffc727"/><path d="M233.222,90.632c-2.257,10.351-10.838,19.322-25.73,19.322-35.147,0-35.092-49.914,0-49.914h.7c-33.03.6-32.877,47.866.641,47.866C222.509,107.976,230.645,100.063,233.222,90.632Z" transform="translate(-175.76 -54.983)" fill="#ffc727"/><path d="M233.222,90.632c-2.257,10.351-10.838,19.322-25.73,19.322-35.147,0-35.092-49.914,0-49.914h.7c-33.03.6-32.877,47.866.641,47.866C222.509,107.976,230.645,100.063,233.222,90.632Z" transform="translate(-175.76 -54.983)" opacity="0.1"/><path d="M203.6,64.8a1.073,1.073,0,0,1,1.1,1v1.686a15.714,15.714,0,0,1,8.136,2.925c.418.293.641.543.641.961a1.128,1.128,0,0,1-1.184,1.045,1.17,1.17,0,0,1-.822-.293,13.722,13.722,0,0,0-6.868-2.786V81.058c6.965,1.393,9.877,3.733,9.877,7.829,0,4.444-4.068,7.578-9.752,7.745v3.274a1.1,1.1,0,1,1-2.2,0V96.66a18.027,18.027,0,0,1-10.295-4.054,1.059,1.059,0,0,1-.5-.878,1.142,1.142,0,0,1,1.142-1.059,1.226,1.226,0,0,1,.822.293,15.324,15.324,0,0,0,8.916,3.817V82.841c-6.854-1.393-9.752-3.678-9.752-7.857s4.026-7.453,9.612-7.578V65.8A1.073,1.073,0,0,1,203.6,64.8Zm-1.017,15.909V69.258c-4.43.084-7.355,2.508-7.355,5.572S196.689,79.414,202.582,80.709Zm2.062,2.563V94.821c4.569-.084,7.55-2.508,7.55-5.7C212.153,86.24,210.55,84.485,204.644,83.273Z" transform="translate(-171.602 -53.113)" fill="#ffc727"/><g transform="translate(20.128 11.686)" opacity="0.1"><path d="M203.6,64.8a1.073,1.073,0,0,1,1.1,1v1.686a15.714,15.714,0,0,1,8.136,2.925c.418.293.641.543.641.961a1.128,1.128,0,0,1-1.184,1.045,1.17,1.17,0,0,1-.822-.293,13.722,13.722,0,0,0-6.868-2.786V81.058c6.965,1.393,9.877,3.733,9.877,7.829,0,4.444-4.068,7.578-9.752,7.745v3.274a1.1,1.1,0,1,1-2.2,0V96.66a18.027,18.027,0,0,1-10.295-4.054,1.059,1.059,0,0,1-.5-.878,1.142,1.142,0,0,1,1.142-1.059,1.226,1.226,0,0,1,.822.293,15.324,15.324,0,0,0,8.916,3.817V82.841c-6.854-1.393-9.752-3.678-9.752-7.857s4.026-7.453,9.612-7.578V65.8A1.073,1.073,0,0,1,203.6,64.8Zm-1.017,15.909V69.258c-4.43.084-7.355,2.508-7.355,5.572S196.689,79.414,202.582,80.709Zm2.062,2.563V94.821c4.569-.084,7.55-2.508,7.55-5.7C212.153,86.24,210.55,84.485,204.644,83.273Z" transform="translate(-191.73 -64.799)"/></g><path d="M453.505,164.161c-38.073,6.826-28.015,63.246,10.128,56.392S491.648,157.335,453.505,164.161Z" transform="translate(-78.143 -14.28)" fill="#ffc727"/><path d="M453.505,164.161c-38.073,6.826-28.015,63.246,10.128,56.392S491.648,157.335,453.505,164.161Z" transform="translate(-78.143 -14.28)" opacity="0.1"/><path d="M455.705,163.7c-36.29,6.506-26.232,62.925,10.114,56.392S492.051,157.178,455.705,163.7Z" transform="translate(-76.762 -14.443)" fill="#ffc727"/><path d="M482.443,191.745c-.2,10.058-6.046,19.8-18.821,22.08-30.16,5.419-38.519-41.4-8.358-46.807l.6-.1c-28.238,5.656-20.144,49.97,8.609,44.8a20.9,20.9,0,0,0,17.971-19.977Z" transform="translate(-75.43 -12.971)" fill="#ffc727"/><path d="M482.443,191.745c-.2,10.058-6.046,19.8-18.821,22.08-30.16,5.419-38.519-41.4-8.358-46.807l.6-.1c-28.238,5.656-20.144,49.97,8.609,44.8a20.9,20.9,0,0,0,17.971-19.977Z" transform="translate(-75.43 -12.971)" opacity="0.1"/><path d="M458.243,171.38a.961.961,0,0,1,.836,1.059l-.181,1.588a13.053,13.053,0,0,1,6.729,3.594,1.129,1.129,0,0,1,.446.975,1.045,1.045,0,0,1-1.156.878,1,1,0,0,1-.683-.362,11.311,11.311,0,0,0-5.572-3.274l-1.309,11.145c5.879,1.978,8.149,4.527,7.69,8.358-.5,4.179-4.374,6.756-9.348,6.338l-.362,3.079a.954.954,0,0,1-1.895-.223l.362-3.12a14.99,14.99,0,0,1-8.456-4.89,1,1,0,0,1,.766-1.769,1.087,1.087,0,0,1,.683.362,12.8,12.8,0,0,0,7.3,4.514l1.323-11.284c-5.781-2.006-7.982-4.472-7.523-8.442s4.319-6.631,9.166-6.185l.181-1.5a.961.961,0,0,1,1-.836ZM455.6,186.328l1.282-10.81c-3.859-.376-6.659,1.616-6.965,4.472S450.581,184.5,455.6,186.328Zm1.393,2.619-1.282,10.936c3.97.39,6.812-1.616,7.16-4.625.39-2.73-.794-4.555-5.809-6.3Z" transform="translate(-72.056 -11.218)" fill="#ffc727"/><g transform="translate(372.922 160.161)" opacity="0.1"><path d="M458.243,171.38a.961.961,0,0,1,.836,1.059l-.181,1.588a13.053,13.053,0,0,1,6.729,3.594,1.129,1.129,0,0,1,.446.975,1.045,1.045,0,0,1-1.156.878,1,1,0,0,1-.683-.362,11.311,11.311,0,0,0-5.572-3.274l-1.309,11.145c5.879,1.978,8.149,4.527,7.69,8.358-.5,4.179-4.374,6.756-9.348,6.338l-.362,3.079a.954.954,0,0,1-1.895-.223l.362-3.12a14.99,14.99,0,0,1-8.456-4.89,1,1,0,0,1,.766-1.769,1.087,1.087,0,0,1,.683.362,12.8,12.8,0,0,0,7.3,4.514l1.323-11.284c-5.781-2.006-7.982-4.472-7.523-8.442s4.319-6.631,9.166-6.185l.181-1.5a.961.961,0,0,1,1-.836ZM455.6,186.328l1.282-10.81c-3.859-.376-6.659,1.616-6.965,4.472S450.581,184.5,455.6,186.328Zm1.393,2.619-1.282,10.936c3.97.39,6.812-1.616,7.16-4.625.39-2.73-.794-4.555-5.809-6.3Z" transform="translate(-444.978 -171.379)"/></g><path d="M433.613,206.261c30.787,5.572,22.665,51.14-8.177,45.609S402.784,200.73,433.613,206.261Z" transform="translate(-87.379 2.311)" fill="#ffc727"/><path d="M433.613,206.261c30.787,5.572,22.665,51.14-8.177,45.609S402.784,200.73,433.613,206.261Z" transform="translate(-87.379 2.311)" opacity="0.1"/><path d="M431.241,205.878c29.338,5.266,21.2,50.875-8.177,45.6S401.847,200.64,431.241,205.878Z" transform="translate(-87.891 2.178)" fill="#ffc727"/><path d="M407.46,228.545c.153,8.122,4.876,15.992,15.212,17.845,24.379,4.374,31.135-33.434,6.784-37.85h-.474c22.833,4.569,16.285,40.4-6.965,36.22a16.926,16.926,0,0,1-14.558-16.215Z" transform="translate(-86.803 3.389)" fill="#ffc727"/><path d="M407.46,228.545c.153,8.122,4.876,15.992,15.212,17.845,24.379,4.374,31.135-33.434,6.784-37.85h-.474c22.833,4.569,16.285,40.4-6.965,36.22a16.926,16.926,0,0,1-14.558-16.215Z" transform="translate(-86.803 3.389)" opacity="0.1"/><path d="M425.451,210.931a.78.78,0,0,1,.613.906l-.223,1.268a10.5,10.5,0,0,1,5.224,3.274.905.905,0,0,1,.306.808.822.822,0,0,1-.975.641.85.85,0,0,1-.529-.334,9.167,9.167,0,0,0-4.374-2.939l-1.644,8.874c4.625,1.909,6.325,4.1,5.739,7.2-.627,3.357-3.887,5.21-7.871,4.6l-.46,2.48a.78.78,0,0,1-1.533-.279l.474-2.508a12.162,12.162,0,0,1-6.561-4.4.822.822,0,0,1-.223-.738.836.836,0,0,1,.933-.641.78.78,0,0,1,.529.32,10.365,10.365,0,0,0,5.642,4.04l1.686-9.027c-4.555-1.936-6.2-4.054-5.572-7.216s3.845-5.127,7.732-4.5l.223-1.2a.794.794,0,0,1,.864-.627Zm-2.939,11.925,1.616-8.665c-3.093-.5-5.461.961-5.893,3.232s.362,3.678,4.277,5.433Zm1.031,2.187-1.63,8.749c3.19.529,5.572-.919,6.032-3.329C428.362,228.275,427.5,226.729,423.542,225.043Z" transform="translate(-84.469 4.327)" fill="#ffc727"/><g transform="translate(328.93 215.254)" opacity="0.1"><path d="M425.451,210.931a.78.78,0,0,1,.613.906l-.223,1.268a10.5,10.5,0,0,1,5.224,3.274.905.905,0,0,1,.306.808.822.822,0,0,1-.975.641.85.85,0,0,1-.529-.334,9.167,9.167,0,0,0-4.374-2.939l-1.644,8.874c4.625,1.909,6.325,4.1,5.739,7.2-.627,3.357-3.887,5.21-7.871,4.6l-.46,2.48a.78.78,0,0,1-1.533-.279l.474-2.508a12.162,12.162,0,0,1-6.561-4.4.822.822,0,0,1-.223-.738.836.836,0,0,1,.933-.641.78.78,0,0,1,.529.32,10.365,10.365,0,0,0,5.642,4.04l1.686-9.027c-4.555-1.936-6.2-4.054-5.572-7.216s3.845-5.127,7.732-4.5l.223-1.2a.794.794,0,0,1,.864-.627Zm-2.939,11.925,1.616-8.665c-3.093-.5-5.461.961-5.893,3.232s.362,3.678,4.277,5.433Zm1.031,2.187-1.63,8.749c3.19.529,5.572-.919,6.032-3.329C428.362,228.275,427.5,226.729,423.542,225.043Z" transform="translate(-413.399 -210.927)"/></g></g></g></g></svg>