<svg xmlns="http://www.w3.org/2000/svg" xmlns:xlink="http://www.w3.org/1999/xlink" width="155" height="51" viewBox="0 0 155 51">
  <defs>
    <clipPath id="clip-path">
      <rect id="Rectangle_5" data-name="Rectangle 5" width="27.232" height="27.268" fill="#0d1c3e"/>
    </clipPath>
  </defs>
  <g id="Group_12831" data-name="Group 12831" transform="translate(-176 -35)">
    <text id="Qcoin" transform="translate(235 73)" fill="#fff" font-size="35" font-family="SegoeUI-Bold, Segoe UI" font-weight="700"><tspan x="0" y="0">Qcoin</tspan></text>
    <g id="Group_11319" data-name="Group 11319" transform="translate(56 -87)">
      <circle id="Ellipse_2617" data-name="Ellipse 2617" cx="22.5" cy="22.5" r="22.5" transform="translate(120 128)" fill="#fff"/>
      <g id="Group_11307" data-name="Group 11307" transform="translate(-24.339 -15.962)">
        <g id="Group_2" data-name="Group 2" transform="translate(152.74 152.549)">
          <g id="Group_1" data-name="Group 1" transform="translate(0 0)" clip-path="url(#clip-path)">
            <path id="Path_1" data-name="Path 1" d="M17.108,26.3a13.414,13.414,0,1,1,9.18-9.153L17.98,8.842a6.465,6.465,0,0,0-9.143,9.143Z" transform="translate(0 -0.005)" fill="#0d1c3e"/>
          </g>
        </g>
        <path id="Path_59184" data-name="Path 59184" d="M64.293,64.435a3.635,3.635,0,0,0,0-5.141L58.3,53.3a3.635,3.635,0,0,0-5.141,5.141l5.995,5.994a3.635,3.635,0,0,0,5.141,0" transform="translate(114.614 114.317)" fill="#ffb500"/>
      </g>
    </g>
  </g>
</svg>
