<svg id="scan_2_" data-name="scan (2)" xmlns="http://www.w3.org/2000/svg" width="40.795" height="34.676" viewBox="0 0 40.795 34.676">
  <path id="Path_61185" data-name="Path 61185" d="M34.36,12.44a1.355,1.355,0,0,1-1.343-1.35V9.12a6.356,6.356,0,0,0-1.752-4.483,6.125,6.125,0,0,0-4.354-1.9H25.477a1.356,1.356,0,0,1-1.343-1.368A1.356,1.356,0,0,1,25.477,0H26.91a9.041,9.041,0,0,1,8.847,9.12v1.952a1.345,1.345,0,0,1-.37.965,1.3,1.3,0,0,1-.937.4h-.09Zm-31.34,0a1.313,1.313,0,0,1-.949-.389,1.362,1.362,0,0,1-.394-.961h0V9.12A9.1,9.1,0,0,1,4.23,2.678,8.767,8.767,0,0,1,10.524,0h1.468a1.356,1.356,0,0,1,1.343,1.368,1.356,1.356,0,0,1-1.343,1.368H10.542a6.1,6.1,0,0,0-4.406,1.87A6.337,6.337,0,0,0,4.364,9.12v1.97A1.356,1.356,0,0,1,3.02,12.44Z" transform="translate(1.743 0)" fill="#0d1c3e" opacity="0.4"/>
  <path id="Path_61186" data-name="Path 61186" d="M37.446,11.456v5.126a9.04,9.04,0,0,1-8.793,9.011H27.2a1.335,1.335,0,0,1-1.291-.63,1.39,1.39,0,0,1,0-1.458,1.335,1.335,0,0,1,1.291-.63h1.451a6.255,6.255,0,0,0,6.178-6.311V11.456ZM15.079,24.243a1.374,1.374,0,0,1-1.343,1.368H12.267a9.041,9.041,0,0,1-8.847-9.12V11.456H6.107v5.126a6.255,6.255,0,0,0,6.16,6.311h1.468a1.313,1.313,0,0,1,.949.389,1.363,1.363,0,0,1,.394.961ZM40.8,10.088a1.356,1.356,0,0,1-1.343,1.368H1.343a1.368,1.368,0,0,1,0-2.736H39.4a1.329,1.329,0,0,1,.985.381,1.382,1.382,0,0,1,.412.987Z" transform="translate(0 9.065)" fill="#0d1c3e"/>
  <path id="Path_61187" data-name="Path 61187" d="M24.086,10.485V8.132A4.327,4.327,0,0,0,22.854,5.1a4.17,4.17,0,0,0-2.976-1.256H9.634A4.248,4.248,0,0,0,5.426,8.132v2.353a.524.524,0,0,0,.5.511H23.585A.524.524,0,0,0,24.086,10.485Z" transform="translate(5.642 3.998)" fill="#0d1c3e" opacity="0.4"/>
  <path id="Path_61188" data-name="Path 61188" d="M24.086,10.06V12.1a4.248,4.248,0,0,1-4.208,4.287H9.634A4.248,4.248,0,0,1,5.426,12.1V10.06Z" transform="translate(5.642 10.461)" fill="#0d1c3e"/>
</svg>
