<svg xmlns="http://www.w3.org/2000/svg" width="40.375" height="40.355" viewBox="0 0 40.375 40.355">
  <g id="send_5_" data-name="send (5)" transform="translate(-2.5 -2.524)">
    <path id="Path_61189" data-name="Path 61189" d="M69.863,2.845c.214.214.178,1-.071,2.173-1.728,8.105-13.253,35.556-15.5,37.8-2.636,2.636-4.614-16.941-4.614-16.941s.855-1.14,2.227-2.9c2.013-2.654,5.219-6.751,8.355-10.564C65.339,8.26,69.917,4.181,69.917,3A.218.218,0,0,0,69.863,2.845Z" transform="translate(-27.129 -0.185)" fill="#0d1c3e"/>
    <path id="Path_61190" data-name="Path 61190" d="M42.735,2.66a.218.218,0,0,1,.054.16c0,1.176-4.578,5.255-9.655,9.406-6.324,5.219-13.449,10.6-13.449,10.6A115.019,115.019,0,0,1,6.555,20.741c-2.832-.73-4.756-1.585-3.812-2.53C5.29,15.664,40.33,1.182,42.663,2.624A.093.093,0,0,1,42.735,2.66Z" transform="translate(0 0)" fill="rgba(13,28,62,0.87)"/>
    <path id="Path_61191" data-name="Path 61191" d="M72.876,2.845c.214.214.178,1-.071,2.173a88.636,88.636,0,0,1-7.678,8.212c-3.741,3.705-7.785,7.5-10.207,9.744,2.013-2.654,5.219-6.751,8.355-10.564C68.351,8.26,72.929,4.181,72.929,3A.218.218,0,0,0,72.876,2.845Z" transform="translate(-30.141 -0.185)" fill="rgba(13,28,62,0.87)"/>
  </g>
</svg>
